M48
; DRILL file {KiCad (5.1.4-0-10_14)} date 2021 March 25, Thursday 20:09:06
; FORMAT={-:-/ absolute / metric / decimal}
; #@! TF.CreationDate,2021-03-25T20:09:06+09:00
; #@! TF.GenerationSoftware,Kicad,Pcbnew,(5.1.4-0-10_14)
FMAT,2
METRIC
T1C0.400
T2C0.800
T3C1.000
T4C1.200
T5C3.200
%
G90
G05
T1
X122.443Y-116.255
X134.968Y-113.077
X147.179Y-102.572
X163.882Y-123.294
X166.79Y-114.364
X169.514Y-123.294
T2
X97.92Y-84.0
X100.46Y-81.46
X103.0Y-84.0
X136.81Y-86.73
X107.0Y-81.5
X134.31Y-86.73
X150.25Y-102.0
X90.0Y-109.0
X100.16Y-109.0
X150.25Y-104.5
X153.5Y-102.38
X153.5Y-110.0
X156.04Y-102.38
X156.04Y-110.0
X158.58Y-102.38
X158.58Y-110.0
X161.12Y-102.38
X161.12Y-110.0
X163.66Y-102.38
X163.66Y-110.0
X166.2Y-102.38
X166.2Y-110.0
X168.74Y-102.38
X168.74Y-110.0
X171.28Y-102.38
X109.0Y-132.0
X119.16Y-132.0
X171.28Y-110.0
X110.5Y-101.5
X113.0Y-101.5
X93.92Y-124.5
X96.46Y-121.96
X99.0Y-124.5
X142.81Y-87.57
X142.81Y-97.73
X90.0Y-115.0
X92.5Y-115.0
X103.25Y-125.5
X105.75Y-125.5
X127.81Y-86.73
X130.31Y-86.73
X109.5Y-81.5
X124.5Y-118.26
X124.5Y-133.5
X127.04Y-118.26
X128.0Y-102.38
X130.54Y-102.38
X130.54Y-110.0
X133.08Y-102.38
X133.08Y-110.0
X135.62Y-102.38
X135.62Y-110.0
X138.16Y-102.38
X138.16Y-110.0
X140.7Y-102.38
X140.7Y-110.0
X143.24Y-102.38
X143.24Y-110.0
X127.04Y-133.5
X129.58Y-118.26
X129.58Y-133.5
X132.12Y-118.26
X132.12Y-133.5
X134.66Y-118.26
X134.66Y-133.5
X137.2Y-118.26
X137.2Y-133.5
X139.74Y-118.26
X139.74Y-133.5
X142.28Y-118.26
X142.28Y-133.5
X144.82Y-118.26
X144.82Y-133.5
X147.36Y-118.26
X147.36Y-133.5
X149.9Y-118.26
X107.5Y-84.88
X149.9Y-133.5
X152.44Y-118.26
X152.44Y-133.5
X154.98Y-118.26
X154.98Y-133.5
X157.52Y-118.26
X157.52Y-133.5
X160.06Y-118.26
X160.06Y-133.5
X162.6Y-118.26
X162.6Y-133.5
X165.14Y-118.26
X165.14Y-133.5
X167.68Y-118.26
X167.68Y-133.5
X170.22Y-118.26
X170.22Y-133.5
X172.76Y-118.26
X172.76Y-133.5
X127.65Y-97.48
X137.81Y-97.48
X125.0Y-102.0
X125.0Y-104.5
X130.18Y-92.23
X135.06Y-92.23
X103.5Y-114.88
X103.5Y-122.5
X106.04Y-114.88
X106.04Y-122.5
X101.5Y-75.0
X104.0Y-75.0
X108.58Y-114.88
X108.58Y-122.5
X111.12Y-114.88
X111.12Y-122.5
X109.0Y-135.5
X119.16Y-135.5
X89.5Y-91.0
X99.66Y-91.0
X128.0Y-110.0
X107.5Y-92.5
X109.0Y-128.0
X119.16Y-128.0
X90.0Y-84.0
X92.5Y-84.0
X167.5Y-123.75
X167.5Y-126.25
X110.04Y-84.88
X110.04Y-92.5
X112.58Y-84.88
X112.58Y-92.5
X115.12Y-84.88
X115.12Y-92.5
T3
X162.02Y-91.73
X162.02Y-94.27
X164.56Y-91.73
X164.56Y-94.27
X167.1Y-91.73
X167.1Y-94.27
X169.64Y-91.73
X181.5Y-89.12
X181.5Y-91.66
X181.5Y-94.2
X181.5Y-96.74
X184.04Y-89.12
X184.04Y-94.2
X184.04Y-96.74
X156.02Y-90.77
X169.64Y-94.27
X181.5Y-81.5
X181.5Y-84.04
X181.5Y-86.58
X184.04Y-81.5
X184.04Y-84.04
X184.04Y-86.58
X156.02Y-93.31
X156.02Y-95.85
X184.04Y-91.66
X162.02Y-84.73
X162.02Y-87.27
X164.56Y-84.73
X164.56Y-87.27
X167.1Y-84.73
X181.5Y-113.58
X167.1Y-87.27
X169.64Y-84.73
X169.64Y-87.27
X181.5Y-108.5
X181.5Y-111.04
X181.5Y-116.12
X181.5Y-118.66
X181.5Y-121.2
X181.5Y-123.74
X184.04Y-108.5
X184.04Y-111.04
X184.04Y-113.58
X184.04Y-116.12
X184.04Y-118.66
X184.04Y-121.2
X184.04Y-123.74
X112.5Y-72.96
X112.5Y-75.5
X115.04Y-72.96
X115.04Y-75.5
X117.58Y-72.96
X117.58Y-75.5
X120.12Y-72.96
X120.12Y-75.5
X122.66Y-72.96
X122.66Y-75.5
X125.2Y-72.96
X125.2Y-75.5
X127.74Y-72.96
X127.74Y-75.5
X130.28Y-72.96
X130.28Y-75.5
X132.82Y-72.96
X132.82Y-75.5
X135.36Y-72.96
X135.36Y-75.5
X137.9Y-72.96
X137.9Y-75.5
X140.44Y-72.96
X140.44Y-75.5
X142.98Y-72.96
X142.98Y-75.5
X145.52Y-72.96
X145.52Y-75.5
X148.06Y-72.96
X148.06Y-75.5
X150.6Y-72.96
X150.6Y-75.5
X153.14Y-72.96
X153.14Y-75.5
X155.68Y-72.96
X155.68Y-75.5
X158.22Y-72.96
X158.22Y-75.5
X160.76Y-72.96
X160.76Y-75.5
T5
X181.5Y-134.5
X92.0Y-134.5
X92.0Y-68.5
X181.0Y-68.5
T4
G00X90.7Y-100.4
M15
G01X90.7Y-99.6
M16
G05
G00X93.8Y-104.5
M15
G01X94.6Y-104.5
M16
G05
G00X97.1Y-97.1
M15
G01X97.9Y-97.1
M16
G05
G00X98.8Y-94.6
M15
G01X99.6Y-94.6
M16
G05
G00X102.0Y-104.7
M15
G01X102.0Y-103.9
M16
G05
T0
M30
