G04 #@! TF.GenerationSoftware,KiCad,Pcbnew,(5.1.4-0-10_14)*
G04 #@! TF.CreationDate,2021-03-25T20:08:59+09:00*
G04 #@! TF.ProjectId,KZ80-YM2203,4b5a3830-2d59-44d3-9232-30332e6b6963,rev?*
G04 #@! TF.SameCoordinates,Original*
G04 #@! TF.FileFunction,Copper,L2,Bot*
G04 #@! TF.FilePolarity,Positive*
%FSLAX46Y46*%
G04 Gerber Fmt 4.6, Leading zero omitted, Abs format (unit mm)*
G04 Created by KiCad (PCBNEW (5.1.4-0-10_14)) date 2021-03-25 20:08:59*
%MOMM*%
%LPD*%
G04 APERTURE LIST*
%ADD10O,1.700000X1.700000*%
%ADD11R,1.700000X1.700000*%
%ADD12C,1.500000*%
%ADD13O,1.600000X1.600000*%
%ADD14R,1.600000X1.600000*%
%ADD15C,1.440000*%
%ADD16C,1.600000*%
%ADD17O,3.000000X2.000000*%
%ADD18O,2.000000X3.000000*%
%ADD19C,0.800000*%
%ADD20C,0.600000*%
%ADD21C,0.250000*%
%ADD22C,0.254000*%
G04 APERTURE END LIST*
D10*
X156020000Y-95850000D03*
X156020000Y-93310000D03*
D11*
X156020000Y-90770000D03*
D10*
X184040000Y-123740000D03*
X181500000Y-123740000D03*
X184040000Y-121200000D03*
X181500000Y-121200000D03*
X184040000Y-118660000D03*
X181500000Y-118660000D03*
X184040000Y-116120000D03*
X181500000Y-116120000D03*
X184040000Y-113580000D03*
X181500000Y-113580000D03*
X184040000Y-111040000D03*
X181500000Y-111040000D03*
X184040000Y-108500000D03*
D11*
X181500000Y-108500000D03*
D10*
X184040000Y-96740000D03*
X181500000Y-96740000D03*
X184040000Y-94200000D03*
X181500000Y-94200000D03*
X184040000Y-91660000D03*
X181500000Y-91660000D03*
X184040000Y-89120000D03*
X181500000Y-89120000D03*
X184040000Y-86580000D03*
X181500000Y-86580000D03*
X184040000Y-84040000D03*
X181500000Y-84040000D03*
X184040000Y-81500000D03*
D11*
X181500000Y-81500000D03*
D10*
X169640000Y-84730000D03*
X169640000Y-87270000D03*
X167100000Y-84730000D03*
X167100000Y-87270000D03*
X164560000Y-84730000D03*
X164560000Y-87270000D03*
X162020000Y-84730000D03*
D11*
X162020000Y-87270000D03*
D10*
X169640000Y-91730000D03*
X169640000Y-94270000D03*
X167100000Y-91730000D03*
X167100000Y-94270000D03*
X164560000Y-91730000D03*
X164560000Y-94270000D03*
X162020000Y-91730000D03*
D11*
X162020000Y-94270000D03*
D12*
X130180000Y-92230000D03*
X135060000Y-92230000D03*
D13*
X103500000Y-114880000D03*
X111120000Y-122500000D03*
X106040000Y-114880000D03*
X108580000Y-122500000D03*
X108580000Y-114880000D03*
X106040000Y-122500000D03*
X111120000Y-114880000D03*
D14*
X103500000Y-122500000D03*
D13*
X124500000Y-118260000D03*
X172760000Y-133500000D03*
X127040000Y-118260000D03*
X170220000Y-133500000D03*
X129580000Y-118260000D03*
X167680000Y-133500000D03*
X132120000Y-118260000D03*
X165140000Y-133500000D03*
X134660000Y-118260000D03*
X162600000Y-133500000D03*
X137200000Y-118260000D03*
X160060000Y-133500000D03*
X139740000Y-118260000D03*
X157520000Y-133500000D03*
X142280000Y-118260000D03*
X154980000Y-133500000D03*
X144820000Y-118260000D03*
X152440000Y-133500000D03*
X147360000Y-118260000D03*
X149900000Y-133500000D03*
X149900000Y-118260000D03*
X147360000Y-133500000D03*
X152440000Y-118260000D03*
X144820000Y-133500000D03*
X154980000Y-118260000D03*
X142280000Y-133500000D03*
X157520000Y-118260000D03*
X139740000Y-133500000D03*
X160060000Y-118260000D03*
X137200000Y-133500000D03*
X162600000Y-118260000D03*
X134660000Y-133500000D03*
X165140000Y-118260000D03*
X132120000Y-133500000D03*
X167680000Y-118260000D03*
X129580000Y-133500000D03*
X170220000Y-118260000D03*
X127040000Y-133500000D03*
X172760000Y-118260000D03*
D14*
X124500000Y-133500000D03*
D13*
X128000000Y-102380000D03*
X143240000Y-110000000D03*
X130540000Y-102380000D03*
X140700000Y-110000000D03*
X133080000Y-102380000D03*
X138160000Y-110000000D03*
X135620000Y-102380000D03*
X135620000Y-110000000D03*
X138160000Y-102380000D03*
X133080000Y-110000000D03*
X140700000Y-102380000D03*
X130540000Y-110000000D03*
X143240000Y-102380000D03*
D14*
X128000000Y-110000000D03*
D13*
X153500000Y-102380000D03*
X171280000Y-110000000D03*
X156040000Y-102380000D03*
X168740000Y-110000000D03*
X158580000Y-102380000D03*
X166200000Y-110000000D03*
X161120000Y-102380000D03*
X163660000Y-110000000D03*
X163660000Y-102380000D03*
X161120000Y-110000000D03*
X166200000Y-102380000D03*
X158580000Y-110000000D03*
X168740000Y-102380000D03*
X156040000Y-110000000D03*
X171280000Y-102380000D03*
D14*
X153500000Y-110000000D03*
D13*
X107500000Y-84880000D03*
X115120000Y-92500000D03*
X110040000Y-84880000D03*
X112580000Y-92500000D03*
X112580000Y-84880000D03*
X110040000Y-92500000D03*
X115120000Y-84880000D03*
D14*
X107500000Y-92500000D03*
D15*
X103000000Y-84000000D03*
X100460000Y-81460000D03*
X97920000Y-84000000D03*
X99000000Y-124500000D03*
X96460000Y-121960000D03*
X93920000Y-124500000D03*
D13*
X99660000Y-91000000D03*
D16*
X89500000Y-91000000D03*
D13*
X100160000Y-109000000D03*
D16*
X90000000Y-109000000D03*
D13*
X119160000Y-135500000D03*
D16*
X109000000Y-135500000D03*
D13*
X119160000Y-132000000D03*
D16*
X109000000Y-132000000D03*
D13*
X119160000Y-128000000D03*
D16*
X109000000Y-128000000D03*
D13*
X127650000Y-97480000D03*
D16*
X137810000Y-97480000D03*
D13*
X142810000Y-87570000D03*
D16*
X142810000Y-97730000D03*
D17*
X94200000Y-104500000D03*
D18*
X102000000Y-104300000D03*
D17*
X97500000Y-97100000D03*
X99200000Y-94600000D03*
D18*
X90700000Y-100000000D03*
D10*
X160760000Y-72960000D03*
X160760000Y-75500000D03*
X158220000Y-72960000D03*
X158220000Y-75500000D03*
X155680000Y-72960000D03*
X155680000Y-75500000D03*
X153140000Y-72960000D03*
X153140000Y-75500000D03*
X150600000Y-72960000D03*
X150600000Y-75500000D03*
X148060000Y-72960000D03*
X148060000Y-75500000D03*
X145520000Y-72960000D03*
X145520000Y-75500000D03*
X142980000Y-72960000D03*
X142980000Y-75500000D03*
X140440000Y-72960000D03*
X140440000Y-75500000D03*
X137900000Y-72960000D03*
X137900000Y-75500000D03*
X135360000Y-72960000D03*
X135360000Y-75500000D03*
X132820000Y-72960000D03*
X132820000Y-75500000D03*
X130280000Y-72960000D03*
X130280000Y-75500000D03*
X127740000Y-72960000D03*
X127740000Y-75500000D03*
X125200000Y-72960000D03*
X125200000Y-75500000D03*
X122660000Y-72960000D03*
X122660000Y-75500000D03*
X120120000Y-72960000D03*
X120120000Y-75500000D03*
X117580000Y-72960000D03*
X117580000Y-75500000D03*
X115040000Y-72960000D03*
X115040000Y-75500000D03*
X112500000Y-72960000D03*
D11*
X112500000Y-75500000D03*
D16*
X104000000Y-75000000D03*
D14*
X101500000Y-75000000D03*
D16*
X92500000Y-84000000D03*
D14*
X90000000Y-84000000D03*
D16*
X113000000Y-101500000D03*
D14*
X110500000Y-101500000D03*
D16*
X92500000Y-115000000D03*
D14*
X90000000Y-115000000D03*
D16*
X103250000Y-125500000D03*
X105750000Y-125500000D03*
X167500000Y-123750000D03*
X167500000Y-126250000D03*
X130310000Y-86730000D03*
X127810000Y-86730000D03*
X134310000Y-86730000D03*
X136810000Y-86730000D03*
X125000000Y-102000000D03*
X125000000Y-104500000D03*
X150250000Y-102000000D03*
X150250000Y-104500000D03*
X107000000Y-81500000D03*
X109500000Y-81500000D03*
D19*
X122442900Y-116254900D03*
X147179100Y-102571600D03*
X166790000Y-114364200D03*
X169513700Y-123294100D03*
X134967900Y-113077200D03*
X163881800Y-123294100D03*
D20*
X107000000Y-78000000D02*
X104000000Y-75000000D01*
X107000000Y-81500000D02*
X107000000Y-78000000D01*
X107000000Y-78000000D02*
X108649700Y-78000000D01*
X108649700Y-78000000D02*
X111149700Y-75500000D01*
X112500000Y-75500000D02*
X111149700Y-75500000D01*
X107500000Y-83579700D02*
X107000000Y-83079700D01*
X107000000Y-83079700D02*
X107000000Y-81500000D01*
X181500000Y-96740000D02*
X181500000Y-98090300D01*
X181500000Y-123740000D02*
X180149600Y-122389600D01*
X180149600Y-122389600D02*
X180149600Y-99440700D01*
X180149600Y-99440700D02*
X181500000Y-98090300D01*
X153500000Y-102380000D02*
X152199700Y-102380000D01*
X150250000Y-102000000D02*
X151819700Y-102000000D01*
X151819700Y-102000000D02*
X152199700Y-102380000D01*
X107500000Y-84880000D02*
X107500000Y-83579700D01*
X172760000Y-119560300D02*
X171689700Y-119560300D01*
X171689700Y-119560300D02*
X167500000Y-123750000D01*
X103500000Y-122500000D02*
X103500000Y-121199700D01*
X107500000Y-84880000D02*
X107500000Y-86180300D01*
X107500000Y-86180300D02*
X102699800Y-90980500D01*
X102699800Y-90980500D02*
X102699800Y-99685800D01*
X102699800Y-99685800D02*
X100484100Y-101901500D01*
X100484100Y-101901500D02*
X100484100Y-106226600D01*
X100484100Y-106226600D02*
X102199700Y-107942200D01*
X102199700Y-107942200D02*
X102199700Y-119899400D01*
X102199700Y-119899400D02*
X103500000Y-121199700D01*
X103250000Y-125500000D02*
X103500000Y-125250000D01*
X103500000Y-125250000D02*
X103500000Y-122500000D01*
X172760000Y-118260000D02*
X172760000Y-119560300D01*
X115120000Y-92500000D02*
X115120000Y-99380000D01*
X115120000Y-99380000D02*
X113000000Y-101500000D01*
X115120000Y-92500000D02*
X115120000Y-91199700D01*
X109500000Y-81500000D02*
X113585100Y-81500000D01*
X113585100Y-81500000D02*
X116420300Y-84335200D01*
X116420300Y-84335200D02*
X116420300Y-89899400D01*
X116420300Y-89899400D02*
X115120000Y-91199700D01*
X167500000Y-126250000D02*
X167831100Y-126250000D01*
X167831100Y-126250000D02*
X174060400Y-120020700D01*
X174060400Y-120020700D02*
X174060400Y-114080700D01*
X174060400Y-114080700D02*
X171280000Y-111300300D01*
X144540300Y-110000000D02*
X144750000Y-110000000D01*
X144750000Y-110000000D02*
X150250000Y-104500000D01*
X124500000Y-132199700D02*
X122442900Y-130142600D01*
X122442900Y-130142600D02*
X122442900Y-116254900D01*
X124500000Y-133500000D02*
X124500000Y-132199700D01*
X167500000Y-126250000D02*
X167500000Y-129839700D01*
X167500000Y-129839700D02*
X165140000Y-132199700D01*
X171280000Y-110000000D02*
X171280000Y-111300300D01*
X165140000Y-133500000D02*
X165140000Y-132199700D01*
X143240000Y-110000000D02*
X144540300Y-110000000D01*
D21*
X130180000Y-92230000D02*
X127810000Y-89860000D01*
X127810000Y-89860000D02*
X127810000Y-86730000D01*
X92500000Y-115000000D02*
X98500000Y-109000000D01*
X98500000Y-109000000D02*
X100160000Y-109000000D01*
X90000000Y-115000000D02*
X90000000Y-116125300D01*
X90000000Y-116125300D02*
X90625300Y-116125300D01*
X90625300Y-116125300D02*
X96460000Y-121960000D01*
X110500000Y-101500000D02*
X110500000Y-95705300D01*
X110500000Y-95705300D02*
X112580000Y-93625300D01*
X112580000Y-92500000D02*
X112580000Y-93625300D01*
X99660000Y-91000000D02*
X98534700Y-91000000D01*
X92500000Y-84000000D02*
X98534700Y-90034700D01*
X98534700Y-90034700D02*
X98534700Y-91000000D01*
X150600000Y-76675300D02*
X159944000Y-86019300D01*
X159944000Y-86019300D02*
X159944000Y-100078700D01*
X159944000Y-100078700D02*
X161120000Y-101254700D01*
X161120000Y-102380000D02*
X161120000Y-101254700D01*
X150600000Y-75500000D02*
X150600000Y-76675300D01*
X148060000Y-74135300D02*
X148427400Y-74135300D01*
X148427400Y-74135300D02*
X149235300Y-74943200D01*
X149235300Y-74943200D02*
X149235300Y-76844300D01*
X149235300Y-76844300D02*
X158580000Y-86189000D01*
X158580000Y-86189000D02*
X158580000Y-102380000D01*
X148060000Y-72960000D02*
X148060000Y-74135300D01*
X158580000Y-108874700D02*
X157400200Y-107694900D01*
X157400200Y-107694900D02*
X157400200Y-86015500D01*
X157400200Y-86015500D02*
X148060000Y-76675300D01*
X158580000Y-110000000D02*
X158580000Y-108874700D01*
X148060000Y-75500000D02*
X148060000Y-76675300D01*
X145520000Y-74135300D02*
X145887400Y-74135300D01*
X145887400Y-74135300D02*
X146695300Y-74943200D01*
X146695300Y-74943200D02*
X146695300Y-88824400D01*
X146695300Y-88824400D02*
X154914700Y-97043800D01*
X154914700Y-97043800D02*
X154914700Y-107749400D01*
X154914700Y-107749400D02*
X156040000Y-108874700D01*
X156040000Y-110000000D02*
X156040000Y-108874700D01*
X145520000Y-72960000D02*
X145520000Y-74135300D01*
X142980000Y-75500000D02*
X142980000Y-76675300D01*
X142980000Y-76675300D02*
X143935400Y-77630700D01*
X143935400Y-77630700D02*
X143935400Y-99327900D01*
X143935400Y-99327900D02*
X147179100Y-102571600D01*
X137900000Y-76675300D02*
X140700000Y-79475300D01*
X140700000Y-79475300D02*
X140700000Y-102380000D01*
X137900000Y-75500000D02*
X137900000Y-76675300D01*
X135360000Y-76675300D02*
X139317400Y-80632700D01*
X139317400Y-80632700D02*
X139317400Y-115017300D01*
X139317400Y-115017300D02*
X137200000Y-117134700D01*
X137200000Y-118260000D02*
X137200000Y-117134700D01*
X135360000Y-75500000D02*
X135360000Y-76675300D01*
X134660000Y-117134700D02*
X134219400Y-116694100D01*
X134219400Y-116694100D02*
X134219400Y-101098800D01*
X134219400Y-101098800D02*
X132820000Y-99699400D01*
X132820000Y-99699400D02*
X132820000Y-75500000D01*
X134660000Y-118260000D02*
X134660000Y-117134700D01*
X142280000Y-133500000D02*
X142280000Y-132374700D01*
X130280000Y-72960000D02*
X131455300Y-72960000D01*
X131455300Y-72960000D02*
X131455300Y-72592700D01*
X131455300Y-72592700D02*
X132270900Y-71777100D01*
X132270900Y-71777100D02*
X135852700Y-71777100D01*
X135852700Y-71777100D02*
X136724600Y-72649000D01*
X136724600Y-72649000D02*
X136724600Y-73485600D01*
X136724600Y-73485600D02*
X137563600Y-74324600D01*
X137563600Y-74324600D02*
X138425600Y-74324600D01*
X138425600Y-74324600D02*
X139170000Y-75069000D01*
X139170000Y-75069000D02*
X139170000Y-76675300D01*
X139170000Y-76675300D02*
X141672500Y-79177800D01*
X141672500Y-79177800D02*
X141672500Y-100831200D01*
X141672500Y-100831200D02*
X141841200Y-100999900D01*
X141841200Y-100999900D02*
X141841200Y-115204400D01*
X141841200Y-115204400D02*
X141154700Y-115890900D01*
X141154700Y-115890900D02*
X141154700Y-131249400D01*
X141154700Y-131249400D02*
X142280000Y-132374700D01*
X130280000Y-75500000D02*
X131455300Y-75500000D01*
X139740000Y-133500000D02*
X139740000Y-132374700D01*
X139740000Y-132374700D02*
X136050500Y-128685200D01*
X136050500Y-128685200D02*
X136050500Y-117647300D01*
X136050500Y-117647300D02*
X136785100Y-116912700D01*
X136785100Y-116912700D02*
X136785100Y-101149700D01*
X136785100Y-101149700D02*
X136622800Y-100987400D01*
X136622800Y-100987400D02*
X136622800Y-92092800D01*
X136622800Y-92092800D02*
X135684600Y-91154600D01*
X135684600Y-91154600D02*
X135684600Y-79516000D01*
X135684600Y-79516000D02*
X133995400Y-77826800D01*
X133995400Y-77826800D02*
X133995400Y-74974400D01*
X133995400Y-74974400D02*
X133345700Y-74324700D01*
X133345700Y-74324700D02*
X132263200Y-74324700D01*
X132263200Y-74324700D02*
X131455300Y-75132600D01*
X131455300Y-75132600D02*
X131455300Y-75500000D01*
X137200000Y-133500000D02*
X136074700Y-133500000D01*
X127740000Y-72960000D02*
X126564700Y-72960000D01*
X126564700Y-72960000D02*
X126564700Y-72592700D01*
X126564700Y-72592700D02*
X125739500Y-71767500D01*
X125739500Y-71767500D02*
X122088400Y-71767500D01*
X122088400Y-71767500D02*
X121477300Y-72378600D01*
X121477300Y-72378600D02*
X121477300Y-114112000D01*
X121477300Y-114112000D02*
X123221400Y-115856100D01*
X123221400Y-115856100D02*
X123221400Y-129422500D01*
X123221400Y-129422500D02*
X125625400Y-131826500D01*
X125625400Y-131826500D02*
X125625400Y-133750800D01*
X125625400Y-133750800D02*
X126499900Y-134625300D01*
X126499900Y-134625300D02*
X135230800Y-134625300D01*
X135230800Y-134625300D02*
X136074700Y-133781400D01*
X136074700Y-133781400D02*
X136074700Y-133500000D01*
X134660000Y-133500000D02*
X134660000Y-132374700D01*
X127740000Y-75500000D02*
X127740000Y-76675300D01*
X127740000Y-76675300D02*
X131937800Y-80873100D01*
X131937800Y-80873100D02*
X131937800Y-114720100D01*
X131937800Y-114720100D02*
X133534700Y-116317000D01*
X133534700Y-116317000D02*
X133534700Y-131249400D01*
X133534700Y-131249400D02*
X134660000Y-132374700D01*
X132120000Y-133500000D02*
X132120000Y-132374700D01*
X125200000Y-72960000D02*
X125200000Y-74135300D01*
X125200000Y-74135300D02*
X125567400Y-74135300D01*
X125567400Y-74135300D02*
X126375300Y-74943200D01*
X126375300Y-74943200D02*
X126375300Y-94329600D01*
X126375300Y-94329600D02*
X129125400Y-97079700D01*
X129125400Y-97079700D02*
X129125400Y-114447700D01*
X129125400Y-114447700D02*
X130994700Y-116317000D01*
X130994700Y-116317000D02*
X130994700Y-131249400D01*
X130994700Y-131249400D02*
X132120000Y-132374700D01*
X125200000Y-75500000D02*
X125200000Y-76675300D01*
X129580000Y-132374700D02*
X128454700Y-131249400D01*
X128454700Y-131249400D02*
X128454700Y-116317000D01*
X128454700Y-116317000D02*
X126874600Y-114736900D01*
X126874600Y-114736900D02*
X126874600Y-98565400D01*
X126874600Y-98565400D02*
X125200000Y-96890800D01*
X125200000Y-96890800D02*
X125200000Y-76675300D01*
X129580000Y-133500000D02*
X129580000Y-132374700D01*
X127040000Y-132374700D02*
X125914700Y-131249400D01*
X125914700Y-131249400D02*
X125914700Y-115940500D01*
X125914700Y-115940500D02*
X123835300Y-113861100D01*
X123835300Y-113861100D02*
X123835300Y-74943200D01*
X123835300Y-74943200D02*
X123027400Y-74135300D01*
X123027400Y-74135300D02*
X122660000Y-74135300D01*
X127040000Y-133500000D02*
X127040000Y-132374700D01*
X122660000Y-72960000D02*
X122660000Y-74135300D01*
X124500000Y-117134700D02*
X124500000Y-116497800D01*
X124500000Y-116497800D02*
X122660000Y-114657800D01*
X122660000Y-114657800D02*
X122660000Y-75500000D01*
X124500000Y-118260000D02*
X124500000Y-117134700D01*
X164560000Y-94270000D02*
X164560000Y-95445300D01*
X163660000Y-110000000D02*
X163660000Y-108874700D01*
X163660000Y-108874700D02*
X164833500Y-107701200D01*
X164833500Y-107701200D02*
X164833500Y-95718800D01*
X164833500Y-95718800D02*
X164560000Y-95445300D01*
X167100000Y-87270000D02*
X167100000Y-88445300D01*
X168740000Y-102380000D02*
X168740000Y-101254700D01*
X168740000Y-101254700D02*
X168275300Y-100790000D01*
X168275300Y-100790000D02*
X168275300Y-89620600D01*
X168275300Y-89620600D02*
X167100000Y-88445300D01*
X164560000Y-87270000D02*
X164560000Y-88445300D01*
X166200000Y-102380000D02*
X166200000Y-101254700D01*
X166200000Y-101254700D02*
X165735300Y-100790000D01*
X165735300Y-100790000D02*
X165735300Y-89620600D01*
X165735300Y-89620600D02*
X164560000Y-88445300D01*
X162020000Y-84730000D02*
X162020000Y-85905300D01*
X153500000Y-110000000D02*
X154625300Y-110000000D01*
X154625300Y-110000000D02*
X154625300Y-110281300D01*
X154625300Y-110281300D02*
X155489300Y-111145300D01*
X155489300Y-111145300D02*
X159048100Y-111145300D01*
X159048100Y-111145300D02*
X159776100Y-110417300D01*
X159776100Y-110417300D02*
X159776100Y-107053400D01*
X159776100Y-107053400D02*
X162260000Y-104569500D01*
X162260000Y-104569500D02*
X162260000Y-98599300D01*
X162260000Y-98599300D02*
X160844700Y-97184000D01*
X160844700Y-97184000D02*
X160844700Y-86272500D01*
X160844700Y-86272500D02*
X161211900Y-85905300D01*
X161211900Y-85905300D02*
X162020000Y-85905300D01*
X162020000Y-87270000D02*
X162020000Y-88445300D01*
X163660000Y-102380000D02*
X163660000Y-101254700D01*
X163660000Y-101254700D02*
X163195300Y-100790000D01*
X163195300Y-100790000D02*
X163195300Y-89620600D01*
X163195300Y-89620600D02*
X162020000Y-88445300D01*
X94200000Y-104500000D02*
X92374700Y-104500000D01*
X92374700Y-104500000D02*
X92374700Y-106625300D01*
X92374700Y-106625300D02*
X90000000Y-109000000D01*
X95237400Y-96737300D02*
X94200000Y-97774700D01*
X94200000Y-97774700D02*
X94200000Y-104500000D01*
X97374700Y-94600000D02*
X95237400Y-96737300D01*
X95237400Y-96737300D02*
X89500000Y-91000000D01*
X99200000Y-94600000D02*
X97374700Y-94600000D01*
X162600000Y-118260000D02*
X166495800Y-114364200D01*
X166495800Y-114364200D02*
X166790000Y-114364200D01*
X184040000Y-121200000D02*
X184040000Y-120024700D01*
X184040000Y-95375300D02*
X184407300Y-95375300D01*
X184407300Y-95375300D02*
X185215300Y-96183300D01*
X185215300Y-96183300D02*
X185215300Y-119216800D01*
X185215300Y-119216800D02*
X184407400Y-120024700D01*
X184407400Y-120024700D02*
X184040000Y-120024700D01*
X184040000Y-94200000D02*
X184040000Y-95375300D01*
X145945300Y-133500000D02*
X145945300Y-133781300D01*
X145945300Y-133781300D02*
X147748300Y-135584300D01*
X147748300Y-135584300D02*
X169727900Y-135584300D01*
X169727900Y-135584300D02*
X171490000Y-133822200D01*
X171490000Y-133822200D02*
X171490000Y-132374600D01*
X171490000Y-132374600D02*
X179317000Y-124547600D01*
X179317000Y-124547600D02*
X179317000Y-94707500D01*
X179317000Y-94707500D02*
X181189100Y-92835400D01*
X181189100Y-92835400D02*
X182025600Y-92835400D01*
X182025600Y-92835400D02*
X182864700Y-91996300D01*
X182864700Y-91996300D02*
X182864700Y-91103200D01*
X182864700Y-91103200D02*
X183672600Y-90295300D01*
X183672600Y-90295300D02*
X184040000Y-90295300D01*
X184040000Y-89120000D02*
X184040000Y-90295300D01*
X144820000Y-133500000D02*
X145945300Y-133500000D01*
X148485300Y-133500000D02*
X148485300Y-133781300D01*
X148485300Y-133781300D02*
X149818800Y-135114800D01*
X149818800Y-135114800D02*
X167672200Y-135114800D01*
X167672200Y-135114800D02*
X168950000Y-133837000D01*
X168950000Y-133837000D02*
X168950000Y-132989600D01*
X168950000Y-132989600D02*
X178866700Y-123072900D01*
X178866700Y-123072900D02*
X178866700Y-92561300D01*
X178866700Y-92561300D02*
X181132700Y-90295300D01*
X181132700Y-90295300D02*
X181500000Y-90295300D01*
X181500000Y-89120000D02*
X181500000Y-90295300D01*
X147360000Y-133500000D02*
X148485300Y-133500000D01*
X184040000Y-86580000D02*
X184040000Y-87755300D01*
X149900000Y-133500000D02*
X148734300Y-132334300D01*
X148734300Y-132334300D02*
X144315500Y-132334300D01*
X144315500Y-132334300D02*
X143670900Y-132978900D01*
X143670900Y-132978900D02*
X143670900Y-133986200D01*
X143670900Y-133986200D02*
X145723100Y-136038400D01*
X145723100Y-136038400D02*
X173456500Y-136038400D01*
X173456500Y-136038400D02*
X185674600Y-123820300D01*
X185674600Y-123820300D02*
X185674600Y-89022600D01*
X185674600Y-89022600D02*
X184407300Y-87755300D01*
X184407300Y-87755300D02*
X184040000Y-87755300D01*
X153565300Y-133500000D02*
X153565300Y-133781300D01*
X153565300Y-133781300D02*
X154448400Y-134664400D01*
X154448400Y-134664400D02*
X157995300Y-134664400D01*
X157995300Y-134664400D02*
X158790000Y-133869700D01*
X158790000Y-133869700D02*
X158790000Y-130812200D01*
X158790000Y-130812200D02*
X168928800Y-120673400D01*
X168928800Y-120673400D02*
X169437400Y-120673400D01*
X169437400Y-120673400D02*
X171347000Y-118763800D01*
X171347000Y-118763800D02*
X171347000Y-112750600D01*
X171347000Y-112750600D02*
X170122500Y-111526100D01*
X170122500Y-111526100D02*
X170122500Y-107344500D01*
X170122500Y-107344500D02*
X177932100Y-99534900D01*
X177932100Y-99534900D02*
X177932100Y-90147900D01*
X177932100Y-90147900D02*
X181500000Y-86580000D01*
X152440000Y-133500000D02*
X153565300Y-133500000D01*
X154980000Y-133500000D02*
X154980000Y-130151300D01*
X154980000Y-130151300D02*
X166489500Y-118641800D01*
X166489500Y-118641800D02*
X166489500Y-115690500D01*
X166489500Y-115690500D02*
X167515300Y-114664700D01*
X167515300Y-114664700D02*
X167515300Y-112920200D01*
X167515300Y-112920200D02*
X165069700Y-110474600D01*
X165069700Y-110474600D02*
X165069700Y-109498700D01*
X165069700Y-109498700D02*
X171026100Y-103542300D01*
X171026100Y-103542300D02*
X171715800Y-103542300D01*
X171715800Y-103542300D02*
X175693500Y-99564600D01*
X175693500Y-99564600D02*
X175693500Y-85141200D01*
X175693500Y-85141200D02*
X180510100Y-80324600D01*
X180510100Y-80324600D02*
X182531100Y-80324600D01*
X182531100Y-80324600D02*
X182864700Y-80658200D01*
X182864700Y-80658200D02*
X182864700Y-82056800D01*
X182864700Y-82056800D02*
X183672600Y-82864700D01*
X183672600Y-82864700D02*
X184040000Y-82864700D01*
X184040000Y-84040000D02*
X184040000Y-82864700D01*
X157520000Y-133500000D02*
X157520000Y-131161000D01*
X157520000Y-131161000D02*
X168808100Y-119872900D01*
X168808100Y-119872900D02*
X168808100Y-112843200D01*
X168808100Y-112843200D02*
X167553600Y-111588700D01*
X167553600Y-111588700D02*
X167553600Y-109034200D01*
X167553600Y-109034200D02*
X176143900Y-100443900D01*
X176143900Y-100443900D02*
X176143900Y-90204100D01*
X176143900Y-90204100D02*
X181132700Y-85215300D01*
X181132700Y-85215300D02*
X181500000Y-85215300D01*
X181500000Y-84040000D02*
X181500000Y-85215300D01*
X160060000Y-133500000D02*
X160060000Y-132097400D01*
X160060000Y-132097400D02*
X167032800Y-125124600D01*
X167032800Y-125124600D02*
X167741000Y-125124600D01*
X167741000Y-125124600D02*
X169513700Y-123351900D01*
X169513700Y-123351900D02*
X169513700Y-123294100D01*
X163725300Y-133500000D02*
X163725300Y-133729300D01*
X163725300Y-133729300D02*
X164621700Y-134625700D01*
X164621700Y-134625700D02*
X165612200Y-134625700D01*
X165612200Y-134625700D02*
X166410000Y-133827900D01*
X166410000Y-133827900D02*
X166410000Y-133154000D01*
X166410000Y-133154000D02*
X178416400Y-121147600D01*
X178416400Y-121147600D02*
X178416400Y-90541200D01*
X178416400Y-90541200D02*
X181107600Y-87850000D01*
X181107600Y-87850000D02*
X181989500Y-87850000D01*
X181989500Y-87850000D02*
X182675300Y-87164200D01*
X182675300Y-87164200D02*
X182675300Y-83483200D01*
X182675300Y-83483200D02*
X181867400Y-82675300D01*
X181867400Y-82675300D02*
X181500000Y-82675300D01*
X181500000Y-81500000D02*
X181500000Y-82675300D01*
X162600000Y-133500000D02*
X163725300Y-133500000D01*
X156020000Y-93310000D02*
X156020000Y-94485300D01*
X156040000Y-102380000D02*
X156040000Y-97532200D01*
X156040000Y-97532200D02*
X154844700Y-96336900D01*
X154844700Y-96336900D02*
X154844700Y-95293200D01*
X154844700Y-95293200D02*
X155652600Y-94485300D01*
X155652600Y-94485300D02*
X156020000Y-94485300D01*
X109000000Y-128000000D02*
X109000000Y-132000000D01*
X109000000Y-132000000D02*
X109000000Y-135500000D01*
X107500000Y-92500000D02*
X107500000Y-93625300D01*
X107500000Y-93625300D02*
X103500000Y-97625300D01*
X103500000Y-97625300D02*
X103500000Y-114880000D01*
X106040000Y-122500000D02*
X106040000Y-121374700D01*
X115120000Y-84880000D02*
X115120000Y-86005300D01*
X115120000Y-86005300D02*
X111315000Y-89810300D01*
X111315000Y-89810300D02*
X111315000Y-93897000D01*
X111315000Y-93897000D02*
X107165300Y-98046700D01*
X107165300Y-98046700D02*
X107165300Y-120249400D01*
X107165300Y-120249400D02*
X106040000Y-121374700D01*
X135620000Y-111125300D02*
X134967900Y-111777400D01*
X134967900Y-111777400D02*
X134967900Y-113077200D01*
X135620000Y-110000000D02*
X135620000Y-111125300D01*
X144365300Y-102380000D02*
X145283000Y-103297700D01*
X145283000Y-103297700D02*
X150709900Y-103297700D01*
X150709900Y-103297700D02*
X152201900Y-104789700D01*
X152201900Y-104789700D02*
X152201900Y-111121900D01*
X152201900Y-111121900D02*
X158790000Y-117710000D01*
X158790000Y-117710000D02*
X158790000Y-118597600D01*
X158790000Y-118597600D02*
X159577700Y-119385300D01*
X159577700Y-119385300D02*
X163170800Y-119385300D01*
X163170800Y-119385300D02*
X164014700Y-118541400D01*
X164014700Y-118541400D02*
X164014700Y-118260000D01*
X143240000Y-102380000D02*
X144365300Y-102380000D01*
X165140000Y-118260000D02*
X164014700Y-118260000D01*
X167680000Y-119385300D02*
X163881800Y-123183500D01*
X163881800Y-123183500D02*
X163881800Y-123294100D01*
X167680000Y-118260000D02*
X167680000Y-119385300D01*
X171280000Y-101254700D02*
X171280000Y-90085300D01*
X171280000Y-90085300D02*
X169640000Y-88445300D01*
X171280000Y-102380000D02*
X171280000Y-101254700D01*
X169640000Y-87270000D02*
X169640000Y-88445300D01*
D22*
G36*
X106065000Y-80405604D02*
G01*
X105885363Y-80585241D01*
X105728320Y-80820273D01*
X105620147Y-81081426D01*
X105565000Y-81358665D01*
X105565000Y-81641335D01*
X105620147Y-81918574D01*
X105728320Y-82179727D01*
X105885363Y-82414759D01*
X106065000Y-82594396D01*
X106065000Y-83033768D01*
X106060476Y-83079700D01*
X106065000Y-83125631D01*
X106078529Y-83262991D01*
X106131993Y-83439239D01*
X106218814Y-83601671D01*
X106335656Y-83744044D01*
X106371342Y-83773331D01*
X106470480Y-83872469D01*
X106301068Y-84078899D01*
X106167818Y-84328192D01*
X106085764Y-84598691D01*
X106058057Y-84880000D01*
X106085764Y-85161309D01*
X106167818Y-85431808D01*
X106301068Y-85681101D01*
X106470480Y-85887531D01*
X102071141Y-90286870D01*
X102035456Y-90316156D01*
X101918614Y-90458529D01*
X101831793Y-90620961D01*
X101782426Y-90783703D01*
X101778329Y-90797209D01*
X101760276Y-90980500D01*
X101764800Y-91026432D01*
X101764801Y-99298509D01*
X99855441Y-101207870D01*
X99819756Y-101237156D01*
X99702914Y-101379529D01*
X99616093Y-101541961D01*
X99574339Y-101679605D01*
X99562629Y-101718209D01*
X99544576Y-101901500D01*
X99549100Y-101947432D01*
X99549101Y-106180658D01*
X99544576Y-106226600D01*
X99562629Y-106409891D01*
X99616094Y-106586140D01*
X99702915Y-106748572D01*
X99819757Y-106890944D01*
X99855436Y-106920225D01*
X100555664Y-107620453D01*
X100441309Y-107585764D01*
X100230492Y-107565000D01*
X100089508Y-107565000D01*
X99878691Y-107585764D01*
X99608192Y-107667818D01*
X99358899Y-107801068D01*
X99140392Y-107980392D01*
X98961068Y-108198899D01*
X98939099Y-108240000D01*
X98537322Y-108240000D01*
X98499999Y-108236324D01*
X98462676Y-108240000D01*
X98462667Y-108240000D01*
X98351014Y-108250997D01*
X98207753Y-108294454D01*
X98075724Y-108365026D01*
X98075722Y-108365027D01*
X98075723Y-108365027D01*
X97988996Y-108436201D01*
X97988992Y-108436205D01*
X97959999Y-108459999D01*
X97936205Y-108488992D01*
X92823886Y-113601312D01*
X92641335Y-113565000D01*
X92358665Y-113565000D01*
X92081426Y-113620147D01*
X91820273Y-113728320D01*
X91585241Y-113885363D01*
X91418661Y-114051943D01*
X91389502Y-113955820D01*
X91330537Y-113845506D01*
X91251185Y-113748815D01*
X91154494Y-113669463D01*
X91044180Y-113610498D01*
X90924482Y-113574188D01*
X90800000Y-113561928D01*
X89200000Y-113561928D01*
X89075518Y-113574188D01*
X88955820Y-113610498D01*
X88845506Y-113669463D01*
X88748815Y-113748815D01*
X88669463Y-113845506D01*
X88610498Y-113955820D01*
X88574188Y-114075518D01*
X88561928Y-114200000D01*
X88561928Y-115800000D01*
X88574188Y-115924482D01*
X88610498Y-116044180D01*
X88669463Y-116154494D01*
X88748815Y-116251185D01*
X88845506Y-116330537D01*
X88955820Y-116389502D01*
X89075518Y-116425812D01*
X89200000Y-116438072D01*
X89305425Y-116438072D01*
X89365026Y-116549576D01*
X89459999Y-116665301D01*
X89575724Y-116760274D01*
X89707753Y-116830846D01*
X89851014Y-116874303D01*
X89962667Y-116885300D01*
X90000000Y-116888977D01*
X90037333Y-116885300D01*
X90310499Y-116885300D01*
X95129346Y-121704148D01*
X95105000Y-121826544D01*
X95105000Y-122093456D01*
X95157072Y-122355239D01*
X95259215Y-122601833D01*
X95407503Y-122823762D01*
X95596238Y-123012497D01*
X95818167Y-123160785D01*
X96064761Y-123262928D01*
X96326544Y-123315000D01*
X96593456Y-123315000D01*
X96855239Y-123262928D01*
X97101833Y-123160785D01*
X97323762Y-123012497D01*
X97512497Y-122823762D01*
X97660785Y-122601833D01*
X97762928Y-122355239D01*
X97815000Y-122093456D01*
X97815000Y-121826544D01*
X97762928Y-121564761D01*
X97660785Y-121318167D01*
X97512497Y-121096238D01*
X97323762Y-120907503D01*
X97101833Y-120759215D01*
X96855239Y-120657072D01*
X96593456Y-120605000D01*
X96326544Y-120605000D01*
X96204148Y-120629346D01*
X91865013Y-116290212D01*
X92081426Y-116379853D01*
X92358665Y-116435000D01*
X92641335Y-116435000D01*
X92918574Y-116379853D01*
X93179727Y-116271680D01*
X93414759Y-116114637D01*
X93614637Y-115914759D01*
X93771680Y-115679727D01*
X93879853Y-115418574D01*
X93935000Y-115141335D01*
X93935000Y-114858665D01*
X93898688Y-114676114D01*
X98814803Y-109760000D01*
X98939099Y-109760000D01*
X98961068Y-109801101D01*
X99140392Y-110019608D01*
X99358899Y-110198932D01*
X99608192Y-110332182D01*
X99878691Y-110414236D01*
X100089508Y-110435000D01*
X100230492Y-110435000D01*
X100441309Y-110414236D01*
X100711808Y-110332182D01*
X100961101Y-110198932D01*
X101179608Y-110019608D01*
X101264700Y-109915923D01*
X101264701Y-119853458D01*
X101260176Y-119899400D01*
X101278229Y-120082691D01*
X101328800Y-120249400D01*
X101331694Y-120258940D01*
X101418515Y-120421372D01*
X101535357Y-120563744D01*
X101571036Y-120593025D01*
X102238903Y-121260892D01*
X102169463Y-121345506D01*
X102110498Y-121455820D01*
X102074188Y-121575518D01*
X102061928Y-121700000D01*
X102061928Y-123300000D01*
X102074188Y-123424482D01*
X102110498Y-123544180D01*
X102169463Y-123654494D01*
X102248815Y-123751185D01*
X102345506Y-123830537D01*
X102455820Y-123889502D01*
X102565000Y-123922622D01*
X102565000Y-124231843D01*
X102335241Y-124385363D01*
X102135363Y-124585241D01*
X101978320Y-124820273D01*
X101870147Y-125081426D01*
X101815000Y-125358665D01*
X101815000Y-125641335D01*
X101870147Y-125918574D01*
X101978320Y-126179727D01*
X102135363Y-126414759D01*
X102335241Y-126614637D01*
X102570273Y-126771680D01*
X102831426Y-126879853D01*
X103108665Y-126935000D01*
X103391335Y-126935000D01*
X103668574Y-126879853D01*
X103929727Y-126771680D01*
X104164759Y-126614637D01*
X104286694Y-126492702D01*
X104936903Y-126492702D01*
X105008486Y-126736671D01*
X105263996Y-126857571D01*
X105538184Y-126926300D01*
X105820512Y-126940217D01*
X106100130Y-126898787D01*
X106366292Y-126803603D01*
X106491514Y-126736671D01*
X106563097Y-126492702D01*
X105750000Y-125679605D01*
X104936903Y-126492702D01*
X104286694Y-126492702D01*
X104364637Y-126414759D01*
X104498692Y-126214131D01*
X104513329Y-126241514D01*
X104757298Y-126313097D01*
X105570395Y-125500000D01*
X105929605Y-125500000D01*
X106742702Y-126313097D01*
X106986671Y-126241514D01*
X107107571Y-125986004D01*
X107176300Y-125711816D01*
X107190217Y-125429488D01*
X107148787Y-125149870D01*
X107053603Y-124883708D01*
X106986671Y-124758486D01*
X106742702Y-124686903D01*
X105929605Y-125500000D01*
X105570395Y-125500000D01*
X104757298Y-124686903D01*
X104513329Y-124758486D01*
X104499676Y-124787341D01*
X104435000Y-124690547D01*
X104435000Y-124507298D01*
X104936903Y-124507298D01*
X105750000Y-125320395D01*
X106563097Y-124507298D01*
X106491514Y-124263329D01*
X106236004Y-124142429D01*
X105961816Y-124073700D01*
X105679488Y-124059783D01*
X105399870Y-124101213D01*
X105133708Y-124196397D01*
X105008486Y-124263329D01*
X104936903Y-124507298D01*
X104435000Y-124507298D01*
X104435000Y-123922621D01*
X104544180Y-123889502D01*
X104654494Y-123830537D01*
X104751185Y-123751185D01*
X104830537Y-123654494D01*
X104889502Y-123544180D01*
X104925812Y-123424482D01*
X104927581Y-123406518D01*
X105020392Y-123519608D01*
X105238899Y-123698932D01*
X105488192Y-123832182D01*
X105758691Y-123914236D01*
X105969508Y-123935000D01*
X106110492Y-123935000D01*
X106321309Y-123914236D01*
X106591808Y-123832182D01*
X106841101Y-123698932D01*
X107059608Y-123519608D01*
X107238932Y-123301101D01*
X107310000Y-123168142D01*
X107381068Y-123301101D01*
X107560392Y-123519608D01*
X107778899Y-123698932D01*
X108028192Y-123832182D01*
X108298691Y-123914236D01*
X108509508Y-123935000D01*
X108650492Y-123935000D01*
X108861309Y-123914236D01*
X109131808Y-123832182D01*
X109381101Y-123698932D01*
X109599608Y-123519608D01*
X109778932Y-123301101D01*
X109850000Y-123168142D01*
X109921068Y-123301101D01*
X110100392Y-123519608D01*
X110318899Y-123698932D01*
X110568192Y-123832182D01*
X110838691Y-123914236D01*
X111049508Y-123935000D01*
X111190492Y-123935000D01*
X111401309Y-123914236D01*
X111671808Y-123832182D01*
X111921101Y-123698932D01*
X112139608Y-123519608D01*
X112318932Y-123301101D01*
X112452182Y-123051808D01*
X112534236Y-122781309D01*
X112561943Y-122500000D01*
X112534236Y-122218691D01*
X112452182Y-121948192D01*
X112318932Y-121698899D01*
X112139608Y-121480392D01*
X111921101Y-121301068D01*
X111671808Y-121167818D01*
X111401309Y-121085764D01*
X111190492Y-121065000D01*
X111049508Y-121065000D01*
X110838691Y-121085764D01*
X110568192Y-121167818D01*
X110318899Y-121301068D01*
X110100392Y-121480392D01*
X109921068Y-121698899D01*
X109850000Y-121831858D01*
X109778932Y-121698899D01*
X109599608Y-121480392D01*
X109381101Y-121301068D01*
X109131808Y-121167818D01*
X108861309Y-121085764D01*
X108650492Y-121065000D01*
X108509508Y-121065000D01*
X108298691Y-121085764D01*
X108028192Y-121167818D01*
X107778899Y-121301068D01*
X107560392Y-121480392D01*
X107381068Y-121698899D01*
X107310000Y-121831858D01*
X107238932Y-121698899D01*
X107059608Y-121480392D01*
X107031872Y-121457630D01*
X107676303Y-120813199D01*
X107705301Y-120789401D01*
X107800274Y-120673676D01*
X107870846Y-120541647D01*
X107914303Y-120398386D01*
X107925300Y-120286733D01*
X107928977Y-120249400D01*
X107925300Y-120212067D01*
X107925300Y-116150134D01*
X108096913Y-116231246D01*
X108230961Y-116271904D01*
X108453000Y-116149915D01*
X108453000Y-115007000D01*
X108433000Y-115007000D01*
X108433000Y-114753000D01*
X108453000Y-114753000D01*
X108453000Y-113610085D01*
X108707000Y-113610085D01*
X108707000Y-114753000D01*
X108727000Y-114753000D01*
X108727000Y-115007000D01*
X108707000Y-115007000D01*
X108707000Y-116149915D01*
X108929039Y-116271904D01*
X109063087Y-116231246D01*
X109317420Y-116111037D01*
X109543414Y-115943519D01*
X109732385Y-115735131D01*
X109847421Y-115543318D01*
X109921068Y-115681101D01*
X110100392Y-115899608D01*
X110318899Y-116078932D01*
X110568192Y-116212182D01*
X110838691Y-116294236D01*
X111049508Y-116315000D01*
X111190492Y-116315000D01*
X111401309Y-116294236D01*
X111671808Y-116212182D01*
X111921101Y-116078932D01*
X112139608Y-115899608D01*
X112318932Y-115681101D01*
X112452182Y-115431808D01*
X112534236Y-115161309D01*
X112561943Y-114880000D01*
X112534236Y-114598691D01*
X112452182Y-114328192D01*
X112318932Y-114078899D01*
X112139608Y-113860392D01*
X111921101Y-113681068D01*
X111671808Y-113547818D01*
X111401309Y-113465764D01*
X111190492Y-113445000D01*
X111049508Y-113445000D01*
X110838691Y-113465764D01*
X110568192Y-113547818D01*
X110318899Y-113681068D01*
X110100392Y-113860392D01*
X109921068Y-114078899D01*
X109847421Y-114216682D01*
X109732385Y-114024869D01*
X109543414Y-113816481D01*
X109317420Y-113648963D01*
X109063087Y-113528754D01*
X108929039Y-113488096D01*
X108707000Y-113610085D01*
X108453000Y-113610085D01*
X108230961Y-113488096D01*
X108096913Y-113528754D01*
X107925300Y-113609866D01*
X107925300Y-98361501D01*
X109740001Y-96546801D01*
X109740000Y-100061928D01*
X109700000Y-100061928D01*
X109575518Y-100074188D01*
X109455820Y-100110498D01*
X109345506Y-100169463D01*
X109248815Y-100248815D01*
X109169463Y-100345506D01*
X109110498Y-100455820D01*
X109074188Y-100575518D01*
X109061928Y-100700000D01*
X109061928Y-102300000D01*
X109074188Y-102424482D01*
X109110498Y-102544180D01*
X109169463Y-102654494D01*
X109248815Y-102751185D01*
X109345506Y-102830537D01*
X109455820Y-102889502D01*
X109575518Y-102925812D01*
X109700000Y-102938072D01*
X111300000Y-102938072D01*
X111424482Y-102925812D01*
X111544180Y-102889502D01*
X111654494Y-102830537D01*
X111751185Y-102751185D01*
X111830537Y-102654494D01*
X111889502Y-102544180D01*
X111905117Y-102492702D01*
X112186903Y-102492702D01*
X112258486Y-102736671D01*
X112513996Y-102857571D01*
X112788184Y-102926300D01*
X113070512Y-102940217D01*
X113350130Y-102898787D01*
X113616292Y-102803603D01*
X113741514Y-102736671D01*
X113813097Y-102492702D01*
X113000000Y-101679605D01*
X112186903Y-102492702D01*
X111905117Y-102492702D01*
X111925812Y-102424482D01*
X111938072Y-102300000D01*
X111938072Y-102292785D01*
X112007298Y-102313097D01*
X112820395Y-101500000D01*
X113179605Y-101500000D01*
X113992702Y-102313097D01*
X114236671Y-102241514D01*
X114357571Y-101986004D01*
X114426300Y-101711816D01*
X114440217Y-101429488D01*
X114398787Y-101149870D01*
X114303603Y-100883708D01*
X114236671Y-100758486D01*
X113992702Y-100686903D01*
X113179605Y-101500000D01*
X112820395Y-101500000D01*
X112007298Y-100686903D01*
X111938072Y-100707215D01*
X111938072Y-100700000D01*
X111925812Y-100575518D01*
X111905118Y-100507298D01*
X112186903Y-100507298D01*
X113000000Y-101320395D01*
X113813097Y-100507298D01*
X113741514Y-100263329D01*
X113486004Y-100142429D01*
X113211816Y-100073700D01*
X112929488Y-100059783D01*
X112649870Y-100101213D01*
X112383708Y-100196397D01*
X112258486Y-100263329D01*
X112186903Y-100507298D01*
X111905118Y-100507298D01*
X111889502Y-100455820D01*
X111830537Y-100345506D01*
X111751185Y-100248815D01*
X111654494Y-100169463D01*
X111544180Y-100110498D01*
X111424482Y-100074188D01*
X111300000Y-100061928D01*
X111260000Y-100061928D01*
X111260000Y-96020101D01*
X113091003Y-94189099D01*
X113120001Y-94165301D01*
X113214974Y-94049576D01*
X113285546Y-93917547D01*
X113329003Y-93774286D01*
X113333942Y-93724139D01*
X113381101Y-93698932D01*
X113599608Y-93519608D01*
X113778932Y-93301101D01*
X113852579Y-93163318D01*
X113967615Y-93355131D01*
X114156586Y-93563519D01*
X114382580Y-93731037D01*
X114636913Y-93851246D01*
X114770961Y-93891904D01*
X114993000Y-93769915D01*
X114993000Y-92627000D01*
X115247000Y-92627000D01*
X115247000Y-93769915D01*
X115469039Y-93891904D01*
X115603087Y-93851246D01*
X115857420Y-93731037D01*
X116083414Y-93563519D01*
X116272385Y-93355131D01*
X116417070Y-93113881D01*
X116511909Y-92849040D01*
X116390624Y-92627000D01*
X115247000Y-92627000D01*
X114993000Y-92627000D01*
X114973000Y-92627000D01*
X114973000Y-92373000D01*
X114993000Y-92373000D01*
X114993000Y-91230085D01*
X115247000Y-91230085D01*
X115247000Y-92373000D01*
X116390624Y-92373000D01*
X116511909Y-92150960D01*
X116417070Y-91886119D01*
X116272385Y-91644869D01*
X116083414Y-91436481D01*
X115857420Y-91268963D01*
X115603087Y-91148754D01*
X115469039Y-91108096D01*
X115247000Y-91230085D01*
X114993000Y-91230085D01*
X114770961Y-91108096D01*
X114636913Y-91148754D01*
X114382580Y-91268963D01*
X114156586Y-91436481D01*
X113967615Y-91644869D01*
X113852579Y-91836682D01*
X113778932Y-91698899D01*
X113599608Y-91480392D01*
X113381101Y-91301068D01*
X113131808Y-91167818D01*
X112861309Y-91085764D01*
X112650492Y-91065000D01*
X112509508Y-91065000D01*
X112298691Y-91085764D01*
X112075000Y-91153619D01*
X112075000Y-90125101D01*
X115631003Y-86569099D01*
X115660001Y-86545301D01*
X115754974Y-86429576D01*
X115825546Y-86297547D01*
X115869003Y-86154286D01*
X115873942Y-86104139D01*
X115921101Y-86078932D01*
X116139608Y-85899608D01*
X116318932Y-85681101D01*
X116452182Y-85431808D01*
X116534236Y-85161309D01*
X116561943Y-84880000D01*
X116534236Y-84598691D01*
X116452182Y-84328192D01*
X116318932Y-84078899D01*
X116139608Y-83860392D01*
X115921101Y-83681068D01*
X115671808Y-83547818D01*
X115401309Y-83465764D01*
X115190492Y-83445000D01*
X115049508Y-83445000D01*
X114838691Y-83465764D01*
X114568192Y-83547818D01*
X114318899Y-83681068D01*
X114100392Y-83860392D01*
X113921068Y-84078899D01*
X113850000Y-84211858D01*
X113778932Y-84078899D01*
X113599608Y-83860392D01*
X113381101Y-83681068D01*
X113131808Y-83547818D01*
X112861309Y-83465764D01*
X112650492Y-83445000D01*
X112509508Y-83445000D01*
X112298691Y-83465764D01*
X112028192Y-83547818D01*
X111778899Y-83681068D01*
X111560392Y-83860392D01*
X111381068Y-84078899D01*
X111310000Y-84211858D01*
X111238932Y-84078899D01*
X111059608Y-83860392D01*
X110841101Y-83681068D01*
X110591808Y-83547818D01*
X110321309Y-83465764D01*
X110110492Y-83445000D01*
X109969508Y-83445000D01*
X109758691Y-83465764D01*
X109488192Y-83547818D01*
X109238899Y-83681068D01*
X109020392Y-83860392D01*
X108841068Y-84078899D01*
X108770000Y-84211858D01*
X108698932Y-84078899D01*
X108519608Y-83860392D01*
X108435000Y-83790956D01*
X108435000Y-83625635D01*
X108439524Y-83579700D01*
X108421472Y-83396408D01*
X108381000Y-83262992D01*
X108368007Y-83220160D01*
X108281186Y-83057728D01*
X108164344Y-82915356D01*
X108128654Y-82886066D01*
X107935000Y-82692412D01*
X107935000Y-82594396D01*
X108036694Y-82492702D01*
X108686903Y-82492702D01*
X108758486Y-82736671D01*
X109013996Y-82857571D01*
X109288184Y-82926300D01*
X109570512Y-82940217D01*
X109850130Y-82898787D01*
X110116292Y-82803603D01*
X110241514Y-82736671D01*
X110313097Y-82492702D01*
X109500000Y-81679605D01*
X108686903Y-82492702D01*
X108036694Y-82492702D01*
X108114637Y-82414759D01*
X108248692Y-82214131D01*
X108263329Y-82241514D01*
X108507298Y-82313097D01*
X109320395Y-81500000D01*
X109679605Y-81500000D01*
X110492702Y-82313097D01*
X110736671Y-82241514D01*
X110857571Y-81986004D01*
X110926300Y-81711816D01*
X110940217Y-81429488D01*
X110898787Y-81149870D01*
X110803603Y-80883708D01*
X110736671Y-80758486D01*
X110492702Y-80686903D01*
X109679605Y-81500000D01*
X109320395Y-81500000D01*
X108507298Y-80686903D01*
X108263329Y-80758486D01*
X108249676Y-80787341D01*
X108114637Y-80585241D01*
X108036694Y-80507298D01*
X108686903Y-80507298D01*
X109500000Y-81320395D01*
X110313097Y-80507298D01*
X110241514Y-80263329D01*
X109986004Y-80142429D01*
X109711816Y-80073700D01*
X109429488Y-80059783D01*
X109149870Y-80101213D01*
X108883708Y-80196397D01*
X108758486Y-80263329D01*
X108686903Y-80507298D01*
X108036694Y-80507298D01*
X107935000Y-80405604D01*
X107935000Y-79627000D01*
X118373000Y-79627000D01*
X118373000Y-126793531D01*
X118358899Y-126801068D01*
X118140392Y-126980392D01*
X117961068Y-127198899D01*
X117827818Y-127448192D01*
X117745764Y-127718691D01*
X117718057Y-128000000D01*
X117745764Y-128281309D01*
X117827818Y-128551808D01*
X117961068Y-128801101D01*
X118140392Y-129019608D01*
X118358899Y-129198932D01*
X118373000Y-129206469D01*
X118373000Y-130793531D01*
X118358899Y-130801068D01*
X118140392Y-130980392D01*
X117961068Y-131198899D01*
X117827818Y-131448192D01*
X117745764Y-131718691D01*
X117718057Y-132000000D01*
X117745764Y-132281309D01*
X117827818Y-132551808D01*
X117961068Y-132801101D01*
X118140392Y-133019608D01*
X118358899Y-133198932D01*
X118373000Y-133206469D01*
X118373000Y-134293531D01*
X118358899Y-134301068D01*
X118140392Y-134480392D01*
X117961068Y-134698899D01*
X117827818Y-134948192D01*
X117745764Y-135218691D01*
X117718057Y-135500000D01*
X117745764Y-135781309D01*
X117827818Y-136051808D01*
X117961068Y-136301101D01*
X118140392Y-136519608D01*
X118358899Y-136698932D01*
X118373000Y-136706469D01*
X118373000Y-138340000D01*
X87160000Y-138340000D01*
X87160000Y-134279872D01*
X89765000Y-134279872D01*
X89765000Y-134720128D01*
X89850890Y-135151925D01*
X90019369Y-135558669D01*
X90263962Y-135924729D01*
X90575271Y-136236038D01*
X90941331Y-136480631D01*
X91348075Y-136649110D01*
X91779872Y-136735000D01*
X92220128Y-136735000D01*
X92651925Y-136649110D01*
X93058669Y-136480631D01*
X93424729Y-136236038D01*
X93736038Y-135924729D01*
X93980631Y-135558669D01*
X94149110Y-135151925D01*
X94235000Y-134720128D01*
X94235000Y-134279872D01*
X94149110Y-133848075D01*
X93980631Y-133441331D01*
X93736038Y-133075271D01*
X93424729Y-132763962D01*
X93058669Y-132519369D01*
X92651925Y-132350890D01*
X92220128Y-132265000D01*
X91779872Y-132265000D01*
X91348075Y-132350890D01*
X90941331Y-132519369D01*
X90575271Y-132763962D01*
X90263962Y-133075271D01*
X90019369Y-133441331D01*
X89850890Y-133848075D01*
X89765000Y-134279872D01*
X87160000Y-134279872D01*
X87160000Y-127858665D01*
X107565000Y-127858665D01*
X107565000Y-128141335D01*
X107620147Y-128418574D01*
X107728320Y-128679727D01*
X107885363Y-128914759D01*
X108085241Y-129114637D01*
X108240000Y-129218044D01*
X108240001Y-130781956D01*
X108085241Y-130885363D01*
X107885363Y-131085241D01*
X107728320Y-131320273D01*
X107620147Y-131581426D01*
X107565000Y-131858665D01*
X107565000Y-132141335D01*
X107620147Y-132418574D01*
X107728320Y-132679727D01*
X107885363Y-132914759D01*
X108085241Y-133114637D01*
X108240000Y-133218044D01*
X108240001Y-134281956D01*
X108085241Y-134385363D01*
X107885363Y-134585241D01*
X107728320Y-134820273D01*
X107620147Y-135081426D01*
X107565000Y-135358665D01*
X107565000Y-135641335D01*
X107620147Y-135918574D01*
X107728320Y-136179727D01*
X107885363Y-136414759D01*
X108085241Y-136614637D01*
X108320273Y-136771680D01*
X108581426Y-136879853D01*
X108858665Y-136935000D01*
X109141335Y-136935000D01*
X109418574Y-136879853D01*
X109679727Y-136771680D01*
X109914759Y-136614637D01*
X110114637Y-136414759D01*
X110271680Y-136179727D01*
X110379853Y-135918574D01*
X110435000Y-135641335D01*
X110435000Y-135358665D01*
X110379853Y-135081426D01*
X110271680Y-134820273D01*
X110114637Y-134585241D01*
X109914759Y-134385363D01*
X109760000Y-134281957D01*
X109760000Y-133218043D01*
X109914759Y-133114637D01*
X110114637Y-132914759D01*
X110271680Y-132679727D01*
X110379853Y-132418574D01*
X110435000Y-132141335D01*
X110435000Y-131858665D01*
X110379853Y-131581426D01*
X110271680Y-131320273D01*
X110114637Y-131085241D01*
X109914759Y-130885363D01*
X109760000Y-130781957D01*
X109760000Y-129218043D01*
X109914759Y-129114637D01*
X110114637Y-128914759D01*
X110271680Y-128679727D01*
X110379853Y-128418574D01*
X110435000Y-128141335D01*
X110435000Y-127858665D01*
X110379853Y-127581426D01*
X110271680Y-127320273D01*
X110114637Y-127085241D01*
X109914759Y-126885363D01*
X109679727Y-126728320D01*
X109418574Y-126620147D01*
X109141335Y-126565000D01*
X108858665Y-126565000D01*
X108581426Y-126620147D01*
X108320273Y-126728320D01*
X108085241Y-126885363D01*
X107885363Y-127085241D01*
X107728320Y-127320273D01*
X107620147Y-127581426D01*
X107565000Y-127858665D01*
X87160000Y-127858665D01*
X87160000Y-125435560D01*
X93164045Y-125435560D01*
X93225932Y-125671368D01*
X93467790Y-125784266D01*
X93727027Y-125847811D01*
X93993680Y-125859561D01*
X94257501Y-125819063D01*
X94508353Y-125727875D01*
X94614068Y-125671368D01*
X94675955Y-125435560D01*
X93920000Y-124679605D01*
X93164045Y-125435560D01*
X87160000Y-125435560D01*
X87160000Y-124573680D01*
X92560439Y-124573680D01*
X92600937Y-124837501D01*
X92692125Y-125088353D01*
X92748632Y-125194068D01*
X92984440Y-125255955D01*
X93740395Y-124500000D01*
X94099605Y-124500000D01*
X94855560Y-125255955D01*
X95091368Y-125194068D01*
X95204266Y-124952210D01*
X95267811Y-124692973D01*
X95279561Y-124426320D01*
X95270386Y-124366544D01*
X97645000Y-124366544D01*
X97645000Y-124633456D01*
X97697072Y-124895239D01*
X97799215Y-125141833D01*
X97947503Y-125363762D01*
X98136238Y-125552497D01*
X98358167Y-125700785D01*
X98604761Y-125802928D01*
X98866544Y-125855000D01*
X99133456Y-125855000D01*
X99395239Y-125802928D01*
X99641833Y-125700785D01*
X99863762Y-125552497D01*
X100052497Y-125363762D01*
X100200785Y-125141833D01*
X100302928Y-124895239D01*
X100355000Y-124633456D01*
X100355000Y-124366544D01*
X100302928Y-124104761D01*
X100200785Y-123858167D01*
X100052497Y-123636238D01*
X99863762Y-123447503D01*
X99641833Y-123299215D01*
X99395239Y-123197072D01*
X99133456Y-123145000D01*
X98866544Y-123145000D01*
X98604761Y-123197072D01*
X98358167Y-123299215D01*
X98136238Y-123447503D01*
X97947503Y-123636238D01*
X97799215Y-123858167D01*
X97697072Y-124104761D01*
X97645000Y-124366544D01*
X95270386Y-124366544D01*
X95239063Y-124162499D01*
X95147875Y-123911647D01*
X95091368Y-123805932D01*
X94855560Y-123744045D01*
X94099605Y-124500000D01*
X93740395Y-124500000D01*
X92984440Y-123744045D01*
X92748632Y-123805932D01*
X92635734Y-124047790D01*
X92572189Y-124307027D01*
X92560439Y-124573680D01*
X87160000Y-124573680D01*
X87160000Y-123564440D01*
X93164045Y-123564440D01*
X93920000Y-124320395D01*
X94675955Y-123564440D01*
X94614068Y-123328632D01*
X94372210Y-123215734D01*
X94112973Y-123152189D01*
X93846320Y-123140439D01*
X93582499Y-123180937D01*
X93331647Y-123272125D01*
X93225932Y-123328632D01*
X93164045Y-123564440D01*
X87160000Y-123564440D01*
X87160000Y-100127000D01*
X89065000Y-100127000D01*
X89065000Y-100627000D01*
X89121193Y-100943532D01*
X89238058Y-101243020D01*
X89411105Y-101513954D01*
X89633683Y-101745922D01*
X89897239Y-101930010D01*
X90191645Y-102059144D01*
X90319566Y-102090124D01*
X90573000Y-101970777D01*
X90573000Y-100127000D01*
X90827000Y-100127000D01*
X90827000Y-101970777D01*
X91080434Y-102090124D01*
X91208355Y-102059144D01*
X91502761Y-101930010D01*
X91766317Y-101745922D01*
X91988895Y-101513954D01*
X92161942Y-101243020D01*
X92278807Y-100943532D01*
X92335000Y-100627000D01*
X92335000Y-100127000D01*
X90827000Y-100127000D01*
X90573000Y-100127000D01*
X89065000Y-100127000D01*
X87160000Y-100127000D01*
X87160000Y-99373000D01*
X89065000Y-99373000D01*
X89065000Y-99873000D01*
X90573000Y-99873000D01*
X90573000Y-98029223D01*
X90827000Y-98029223D01*
X90827000Y-99873000D01*
X92335000Y-99873000D01*
X92335000Y-99373000D01*
X92278807Y-99056468D01*
X92161942Y-98756980D01*
X91988895Y-98486046D01*
X91766317Y-98254078D01*
X91502761Y-98069990D01*
X91208355Y-97940856D01*
X91080434Y-97909876D01*
X90827000Y-98029223D01*
X90573000Y-98029223D01*
X90319566Y-97909876D01*
X90191645Y-97940856D01*
X89897239Y-98069990D01*
X89633683Y-98254078D01*
X89411105Y-98486046D01*
X89238058Y-98756980D01*
X89121193Y-99056468D01*
X89065000Y-99373000D01*
X87160000Y-99373000D01*
X87160000Y-90858665D01*
X88065000Y-90858665D01*
X88065000Y-91141335D01*
X88120147Y-91418574D01*
X88228320Y-91679727D01*
X88385363Y-91914759D01*
X88585241Y-92114637D01*
X88820273Y-92271680D01*
X89081426Y-92379853D01*
X89358665Y-92435000D01*
X89641335Y-92435000D01*
X89823899Y-92398685D01*
X94162594Y-96737305D01*
X93689002Y-97210896D01*
X93659999Y-97234699D01*
X93625041Y-97277296D01*
X93565026Y-97350424D01*
X93532259Y-97411726D01*
X93494454Y-97482454D01*
X93450997Y-97625715D01*
X93440000Y-97737368D01*
X93440000Y-97737378D01*
X93436324Y-97774700D01*
X93440000Y-97812023D01*
X93440001Y-102882697D01*
X93379484Y-102888657D01*
X93071285Y-102982148D01*
X92787248Y-103133969D01*
X92538286Y-103338286D01*
X92333969Y-103587248D01*
X92247595Y-103748842D01*
X92225714Y-103750997D01*
X92082453Y-103794454D01*
X91950424Y-103865026D01*
X91834699Y-103959999D01*
X91739726Y-104075724D01*
X91669154Y-104207753D01*
X91625697Y-104351014D01*
X91611023Y-104500000D01*
X91614700Y-104537333D01*
X91614701Y-106310497D01*
X90323886Y-107601312D01*
X90141335Y-107565000D01*
X89858665Y-107565000D01*
X89581426Y-107620147D01*
X89320273Y-107728320D01*
X89085241Y-107885363D01*
X88885363Y-108085241D01*
X88728320Y-108320273D01*
X88620147Y-108581426D01*
X88565000Y-108858665D01*
X88565000Y-109141335D01*
X88620147Y-109418574D01*
X88728320Y-109679727D01*
X88885363Y-109914759D01*
X89085241Y-110114637D01*
X89320273Y-110271680D01*
X89581426Y-110379853D01*
X89858665Y-110435000D01*
X90141335Y-110435000D01*
X90418574Y-110379853D01*
X90679727Y-110271680D01*
X90914759Y-110114637D01*
X91114637Y-109914759D01*
X91271680Y-109679727D01*
X91379853Y-109418574D01*
X91435000Y-109141335D01*
X91435000Y-108858665D01*
X91398688Y-108676114D01*
X92885703Y-107189099D01*
X92914701Y-107165301D01*
X92972718Y-107094607D01*
X93009674Y-107049577D01*
X93080246Y-106917547D01*
X93099138Y-106855266D01*
X93123703Y-106774286D01*
X93134700Y-106662633D01*
X93134700Y-106662623D01*
X93138376Y-106625300D01*
X93134700Y-106587977D01*
X93134700Y-106037089D01*
X93379484Y-106111343D01*
X93619678Y-106135000D01*
X94780322Y-106135000D01*
X95020516Y-106111343D01*
X95328715Y-106017852D01*
X95612752Y-105866031D01*
X95861714Y-105661714D01*
X96066031Y-105412752D01*
X96217852Y-105128715D01*
X96311343Y-104820516D01*
X96342911Y-104500000D01*
X96311343Y-104179484D01*
X96217852Y-103871285D01*
X96066031Y-103587248D01*
X95861714Y-103338286D01*
X95612752Y-103133969D01*
X95328715Y-102982148D01*
X95020516Y-102888657D01*
X94960000Y-102882697D01*
X94960000Y-98089501D01*
X95444592Y-97604910D01*
X95482148Y-97728715D01*
X95633969Y-98012752D01*
X95838286Y-98261714D01*
X96087248Y-98466031D01*
X96371285Y-98617852D01*
X96679484Y-98711343D01*
X96919678Y-98735000D01*
X98080322Y-98735000D01*
X98320516Y-98711343D01*
X98628715Y-98617852D01*
X98912752Y-98466031D01*
X99161714Y-98261714D01*
X99366031Y-98012752D01*
X99517852Y-97728715D01*
X99611343Y-97420516D01*
X99642911Y-97100000D01*
X99611343Y-96779484D01*
X99517852Y-96471285D01*
X99391555Y-96235000D01*
X99780322Y-96235000D01*
X100020516Y-96211343D01*
X100328715Y-96117852D01*
X100612752Y-95966031D01*
X100861714Y-95761714D01*
X101066031Y-95512752D01*
X101217852Y-95228715D01*
X101311343Y-94920516D01*
X101342911Y-94600000D01*
X101311343Y-94279484D01*
X101217852Y-93971285D01*
X101066031Y-93687248D01*
X100861714Y-93438286D01*
X100612752Y-93233969D01*
X100328715Y-93082148D01*
X100020516Y-92988657D01*
X99780322Y-92965000D01*
X98619678Y-92965000D01*
X98379484Y-92988657D01*
X98071285Y-93082148D01*
X97787248Y-93233969D01*
X97538286Y-93438286D01*
X97333969Y-93687248D01*
X97247595Y-93848842D01*
X97225714Y-93850997D01*
X97082453Y-93894454D01*
X96950424Y-93965026D01*
X96834699Y-94059999D01*
X96810901Y-94088997D01*
X95237395Y-95662503D01*
X90898690Y-91323874D01*
X90935000Y-91141335D01*
X90935000Y-90858665D01*
X90879853Y-90581426D01*
X90771680Y-90320273D01*
X90614637Y-90085241D01*
X90414759Y-89885363D01*
X90179727Y-89728320D01*
X89918574Y-89620147D01*
X89641335Y-89565000D01*
X89358665Y-89565000D01*
X89081426Y-89620147D01*
X88820273Y-89728320D01*
X88585241Y-89885363D01*
X88385363Y-90085241D01*
X88228320Y-90320273D01*
X88120147Y-90581426D01*
X88065000Y-90858665D01*
X87160000Y-90858665D01*
X87160000Y-83200000D01*
X88561928Y-83200000D01*
X88561928Y-84800000D01*
X88574188Y-84924482D01*
X88610498Y-85044180D01*
X88669463Y-85154494D01*
X88748815Y-85251185D01*
X88845506Y-85330537D01*
X88955820Y-85389502D01*
X89075518Y-85425812D01*
X89200000Y-85438072D01*
X90800000Y-85438072D01*
X90924482Y-85425812D01*
X91044180Y-85389502D01*
X91154494Y-85330537D01*
X91251185Y-85251185D01*
X91330537Y-85154494D01*
X91389502Y-85044180D01*
X91418661Y-84948057D01*
X91585241Y-85114637D01*
X91820273Y-85271680D01*
X92081426Y-85379853D01*
X92358665Y-85435000D01*
X92641335Y-85435000D01*
X92823887Y-85398688D01*
X97774700Y-90349502D01*
X97774701Y-90962658D01*
X97771023Y-91000000D01*
X97785697Y-91148986D01*
X97829154Y-91292247D01*
X97899726Y-91424276D01*
X97994699Y-91540001D01*
X98110424Y-91634974D01*
X98242453Y-91705546D01*
X98385714Y-91749003D01*
X98435861Y-91753942D01*
X98461068Y-91801101D01*
X98640392Y-92019608D01*
X98858899Y-92198932D01*
X99108192Y-92332182D01*
X99378691Y-92414236D01*
X99589508Y-92435000D01*
X99730492Y-92435000D01*
X99941309Y-92414236D01*
X100211808Y-92332182D01*
X100461101Y-92198932D01*
X100679608Y-92019608D01*
X100858932Y-91801101D01*
X100992182Y-91551808D01*
X101074236Y-91281309D01*
X101101943Y-91000000D01*
X101074236Y-90718691D01*
X100992182Y-90448192D01*
X100858932Y-90198899D01*
X100679608Y-89980392D01*
X100461101Y-89801068D01*
X100211808Y-89667818D01*
X99941309Y-89585764D01*
X99730492Y-89565000D01*
X99589508Y-89565000D01*
X99378691Y-89585764D01*
X99187494Y-89643762D01*
X99169674Y-89610424D01*
X99149436Y-89585764D01*
X99074701Y-89494699D01*
X99045704Y-89470902D01*
X94510362Y-84935560D01*
X97164045Y-84935560D01*
X97225932Y-85171368D01*
X97467790Y-85284266D01*
X97727027Y-85347811D01*
X97993680Y-85359561D01*
X98257501Y-85319063D01*
X98508353Y-85227875D01*
X98614068Y-85171368D01*
X98675955Y-84935560D01*
X97920000Y-84179605D01*
X97164045Y-84935560D01*
X94510362Y-84935560D01*
X93898688Y-84323887D01*
X93935000Y-84141335D01*
X93935000Y-84073680D01*
X96560439Y-84073680D01*
X96600937Y-84337501D01*
X96692125Y-84588353D01*
X96748632Y-84694068D01*
X96984440Y-84755955D01*
X97740395Y-84000000D01*
X98099605Y-84000000D01*
X98855560Y-84755955D01*
X99091368Y-84694068D01*
X99204266Y-84452210D01*
X99267811Y-84192973D01*
X99279561Y-83926320D01*
X99270386Y-83866544D01*
X101645000Y-83866544D01*
X101645000Y-84133456D01*
X101697072Y-84395239D01*
X101799215Y-84641833D01*
X101947503Y-84863762D01*
X102136238Y-85052497D01*
X102358167Y-85200785D01*
X102604761Y-85302928D01*
X102866544Y-85355000D01*
X103133456Y-85355000D01*
X103395239Y-85302928D01*
X103641833Y-85200785D01*
X103863762Y-85052497D01*
X104052497Y-84863762D01*
X104200785Y-84641833D01*
X104302928Y-84395239D01*
X104355000Y-84133456D01*
X104355000Y-83866544D01*
X104302928Y-83604761D01*
X104200785Y-83358167D01*
X104052497Y-83136238D01*
X103863762Y-82947503D01*
X103641833Y-82799215D01*
X103395239Y-82697072D01*
X103133456Y-82645000D01*
X102866544Y-82645000D01*
X102604761Y-82697072D01*
X102358167Y-82799215D01*
X102136238Y-82947503D01*
X101947503Y-83136238D01*
X101799215Y-83358167D01*
X101697072Y-83604761D01*
X101645000Y-83866544D01*
X99270386Y-83866544D01*
X99239063Y-83662499D01*
X99147875Y-83411647D01*
X99091368Y-83305932D01*
X98855560Y-83244045D01*
X98099605Y-84000000D01*
X97740395Y-84000000D01*
X96984440Y-83244045D01*
X96748632Y-83305932D01*
X96635734Y-83547790D01*
X96572189Y-83807027D01*
X96560439Y-84073680D01*
X93935000Y-84073680D01*
X93935000Y-83858665D01*
X93879853Y-83581426D01*
X93771680Y-83320273D01*
X93614637Y-83085241D01*
X93593836Y-83064440D01*
X97164045Y-83064440D01*
X97920000Y-83820395D01*
X98675955Y-83064440D01*
X98614068Y-82828632D01*
X98372210Y-82715734D01*
X98112973Y-82652189D01*
X97846320Y-82640439D01*
X97582499Y-82680937D01*
X97331647Y-82772125D01*
X97225932Y-82828632D01*
X97164045Y-83064440D01*
X93593836Y-83064440D01*
X93414759Y-82885363D01*
X93179727Y-82728320D01*
X92918574Y-82620147D01*
X92641335Y-82565000D01*
X92358665Y-82565000D01*
X92081426Y-82620147D01*
X91820273Y-82728320D01*
X91585241Y-82885363D01*
X91418661Y-83051943D01*
X91389502Y-82955820D01*
X91330537Y-82845506D01*
X91251185Y-82748815D01*
X91154494Y-82669463D01*
X91044180Y-82610498D01*
X90924482Y-82574188D01*
X90800000Y-82561928D01*
X89200000Y-82561928D01*
X89075518Y-82574188D01*
X88955820Y-82610498D01*
X88845506Y-82669463D01*
X88748815Y-82748815D01*
X88669463Y-82845506D01*
X88610498Y-82955820D01*
X88574188Y-83075518D01*
X88561928Y-83200000D01*
X87160000Y-83200000D01*
X87160000Y-81326544D01*
X99105000Y-81326544D01*
X99105000Y-81593456D01*
X99157072Y-81855239D01*
X99259215Y-82101833D01*
X99407503Y-82323762D01*
X99596238Y-82512497D01*
X99818167Y-82660785D01*
X100064761Y-82762928D01*
X100326544Y-82815000D01*
X100593456Y-82815000D01*
X100855239Y-82762928D01*
X101101833Y-82660785D01*
X101323762Y-82512497D01*
X101512497Y-82323762D01*
X101660785Y-82101833D01*
X101762928Y-81855239D01*
X101815000Y-81593456D01*
X101815000Y-81326544D01*
X101762928Y-81064761D01*
X101660785Y-80818167D01*
X101512497Y-80596238D01*
X101323762Y-80407503D01*
X101101833Y-80259215D01*
X100855239Y-80157072D01*
X100593456Y-80105000D01*
X100326544Y-80105000D01*
X100064761Y-80157072D01*
X99818167Y-80259215D01*
X99596238Y-80407503D01*
X99407503Y-80596238D01*
X99259215Y-80818167D01*
X99157072Y-81064761D01*
X99105000Y-81326544D01*
X87160000Y-81326544D01*
X87160000Y-79627000D01*
X106065000Y-79627000D01*
X106065000Y-80405604D01*
X106065000Y-80405604D01*
G37*
X106065000Y-80405604D02*
X105885363Y-80585241D01*
X105728320Y-80820273D01*
X105620147Y-81081426D01*
X105565000Y-81358665D01*
X105565000Y-81641335D01*
X105620147Y-81918574D01*
X105728320Y-82179727D01*
X105885363Y-82414759D01*
X106065000Y-82594396D01*
X106065000Y-83033768D01*
X106060476Y-83079700D01*
X106065000Y-83125631D01*
X106078529Y-83262991D01*
X106131993Y-83439239D01*
X106218814Y-83601671D01*
X106335656Y-83744044D01*
X106371342Y-83773331D01*
X106470480Y-83872469D01*
X106301068Y-84078899D01*
X106167818Y-84328192D01*
X106085764Y-84598691D01*
X106058057Y-84880000D01*
X106085764Y-85161309D01*
X106167818Y-85431808D01*
X106301068Y-85681101D01*
X106470480Y-85887531D01*
X102071141Y-90286870D01*
X102035456Y-90316156D01*
X101918614Y-90458529D01*
X101831793Y-90620961D01*
X101782426Y-90783703D01*
X101778329Y-90797209D01*
X101760276Y-90980500D01*
X101764800Y-91026432D01*
X101764801Y-99298509D01*
X99855441Y-101207870D01*
X99819756Y-101237156D01*
X99702914Y-101379529D01*
X99616093Y-101541961D01*
X99574339Y-101679605D01*
X99562629Y-101718209D01*
X99544576Y-101901500D01*
X99549100Y-101947432D01*
X99549101Y-106180658D01*
X99544576Y-106226600D01*
X99562629Y-106409891D01*
X99616094Y-106586140D01*
X99702915Y-106748572D01*
X99819757Y-106890944D01*
X99855436Y-106920225D01*
X100555664Y-107620453D01*
X100441309Y-107585764D01*
X100230492Y-107565000D01*
X100089508Y-107565000D01*
X99878691Y-107585764D01*
X99608192Y-107667818D01*
X99358899Y-107801068D01*
X99140392Y-107980392D01*
X98961068Y-108198899D01*
X98939099Y-108240000D01*
X98537322Y-108240000D01*
X98499999Y-108236324D01*
X98462676Y-108240000D01*
X98462667Y-108240000D01*
X98351014Y-108250997D01*
X98207753Y-108294454D01*
X98075724Y-108365026D01*
X98075722Y-108365027D01*
X98075723Y-108365027D01*
X97988996Y-108436201D01*
X97988992Y-108436205D01*
X97959999Y-108459999D01*
X97936205Y-108488992D01*
X92823886Y-113601312D01*
X92641335Y-113565000D01*
X92358665Y-113565000D01*
X92081426Y-113620147D01*
X91820273Y-113728320D01*
X91585241Y-113885363D01*
X91418661Y-114051943D01*
X91389502Y-113955820D01*
X91330537Y-113845506D01*
X91251185Y-113748815D01*
X91154494Y-113669463D01*
X91044180Y-113610498D01*
X90924482Y-113574188D01*
X90800000Y-113561928D01*
X89200000Y-113561928D01*
X89075518Y-113574188D01*
X88955820Y-113610498D01*
X88845506Y-113669463D01*
X88748815Y-113748815D01*
X88669463Y-113845506D01*
X88610498Y-113955820D01*
X88574188Y-114075518D01*
X88561928Y-114200000D01*
X88561928Y-115800000D01*
X88574188Y-115924482D01*
X88610498Y-116044180D01*
X88669463Y-116154494D01*
X88748815Y-116251185D01*
X88845506Y-116330537D01*
X88955820Y-116389502D01*
X89075518Y-116425812D01*
X89200000Y-116438072D01*
X89305425Y-116438072D01*
X89365026Y-116549576D01*
X89459999Y-116665301D01*
X89575724Y-116760274D01*
X89707753Y-116830846D01*
X89851014Y-116874303D01*
X89962667Y-116885300D01*
X90000000Y-116888977D01*
X90037333Y-116885300D01*
X90310499Y-116885300D01*
X95129346Y-121704148D01*
X95105000Y-121826544D01*
X95105000Y-122093456D01*
X95157072Y-122355239D01*
X95259215Y-122601833D01*
X95407503Y-122823762D01*
X95596238Y-123012497D01*
X95818167Y-123160785D01*
X96064761Y-123262928D01*
X96326544Y-123315000D01*
X96593456Y-123315000D01*
X96855239Y-123262928D01*
X97101833Y-123160785D01*
X97323762Y-123012497D01*
X97512497Y-122823762D01*
X97660785Y-122601833D01*
X97762928Y-122355239D01*
X97815000Y-122093456D01*
X97815000Y-121826544D01*
X97762928Y-121564761D01*
X97660785Y-121318167D01*
X97512497Y-121096238D01*
X97323762Y-120907503D01*
X97101833Y-120759215D01*
X96855239Y-120657072D01*
X96593456Y-120605000D01*
X96326544Y-120605000D01*
X96204148Y-120629346D01*
X91865013Y-116290212D01*
X92081426Y-116379853D01*
X92358665Y-116435000D01*
X92641335Y-116435000D01*
X92918574Y-116379853D01*
X93179727Y-116271680D01*
X93414759Y-116114637D01*
X93614637Y-115914759D01*
X93771680Y-115679727D01*
X93879853Y-115418574D01*
X93935000Y-115141335D01*
X93935000Y-114858665D01*
X93898688Y-114676114D01*
X98814803Y-109760000D01*
X98939099Y-109760000D01*
X98961068Y-109801101D01*
X99140392Y-110019608D01*
X99358899Y-110198932D01*
X99608192Y-110332182D01*
X99878691Y-110414236D01*
X100089508Y-110435000D01*
X100230492Y-110435000D01*
X100441309Y-110414236D01*
X100711808Y-110332182D01*
X100961101Y-110198932D01*
X101179608Y-110019608D01*
X101264700Y-109915923D01*
X101264701Y-119853458D01*
X101260176Y-119899400D01*
X101278229Y-120082691D01*
X101328800Y-120249400D01*
X101331694Y-120258940D01*
X101418515Y-120421372D01*
X101535357Y-120563744D01*
X101571036Y-120593025D01*
X102238903Y-121260892D01*
X102169463Y-121345506D01*
X102110498Y-121455820D01*
X102074188Y-121575518D01*
X102061928Y-121700000D01*
X102061928Y-123300000D01*
X102074188Y-123424482D01*
X102110498Y-123544180D01*
X102169463Y-123654494D01*
X102248815Y-123751185D01*
X102345506Y-123830537D01*
X102455820Y-123889502D01*
X102565000Y-123922622D01*
X102565000Y-124231843D01*
X102335241Y-124385363D01*
X102135363Y-124585241D01*
X101978320Y-124820273D01*
X101870147Y-125081426D01*
X101815000Y-125358665D01*
X101815000Y-125641335D01*
X101870147Y-125918574D01*
X101978320Y-126179727D01*
X102135363Y-126414759D01*
X102335241Y-126614637D01*
X102570273Y-126771680D01*
X102831426Y-126879853D01*
X103108665Y-126935000D01*
X103391335Y-126935000D01*
X103668574Y-126879853D01*
X103929727Y-126771680D01*
X104164759Y-126614637D01*
X104286694Y-126492702D01*
X104936903Y-126492702D01*
X105008486Y-126736671D01*
X105263996Y-126857571D01*
X105538184Y-126926300D01*
X105820512Y-126940217D01*
X106100130Y-126898787D01*
X106366292Y-126803603D01*
X106491514Y-126736671D01*
X106563097Y-126492702D01*
X105750000Y-125679605D01*
X104936903Y-126492702D01*
X104286694Y-126492702D01*
X104364637Y-126414759D01*
X104498692Y-126214131D01*
X104513329Y-126241514D01*
X104757298Y-126313097D01*
X105570395Y-125500000D01*
X105929605Y-125500000D01*
X106742702Y-126313097D01*
X106986671Y-126241514D01*
X107107571Y-125986004D01*
X107176300Y-125711816D01*
X107190217Y-125429488D01*
X107148787Y-125149870D01*
X107053603Y-124883708D01*
X106986671Y-124758486D01*
X106742702Y-124686903D01*
X105929605Y-125500000D01*
X105570395Y-125500000D01*
X104757298Y-124686903D01*
X104513329Y-124758486D01*
X104499676Y-124787341D01*
X104435000Y-124690547D01*
X104435000Y-124507298D01*
X104936903Y-124507298D01*
X105750000Y-125320395D01*
X106563097Y-124507298D01*
X106491514Y-124263329D01*
X106236004Y-124142429D01*
X105961816Y-124073700D01*
X105679488Y-124059783D01*
X105399870Y-124101213D01*
X105133708Y-124196397D01*
X105008486Y-124263329D01*
X104936903Y-124507298D01*
X104435000Y-124507298D01*
X104435000Y-123922621D01*
X104544180Y-123889502D01*
X104654494Y-123830537D01*
X104751185Y-123751185D01*
X104830537Y-123654494D01*
X104889502Y-123544180D01*
X104925812Y-123424482D01*
X104927581Y-123406518D01*
X105020392Y-123519608D01*
X105238899Y-123698932D01*
X105488192Y-123832182D01*
X105758691Y-123914236D01*
X105969508Y-123935000D01*
X106110492Y-123935000D01*
X106321309Y-123914236D01*
X106591808Y-123832182D01*
X106841101Y-123698932D01*
X107059608Y-123519608D01*
X107238932Y-123301101D01*
X107310000Y-123168142D01*
X107381068Y-123301101D01*
X107560392Y-123519608D01*
X107778899Y-123698932D01*
X108028192Y-123832182D01*
X108298691Y-123914236D01*
X108509508Y-123935000D01*
X108650492Y-123935000D01*
X108861309Y-123914236D01*
X109131808Y-123832182D01*
X109381101Y-123698932D01*
X109599608Y-123519608D01*
X109778932Y-123301101D01*
X109850000Y-123168142D01*
X109921068Y-123301101D01*
X110100392Y-123519608D01*
X110318899Y-123698932D01*
X110568192Y-123832182D01*
X110838691Y-123914236D01*
X111049508Y-123935000D01*
X111190492Y-123935000D01*
X111401309Y-123914236D01*
X111671808Y-123832182D01*
X111921101Y-123698932D01*
X112139608Y-123519608D01*
X112318932Y-123301101D01*
X112452182Y-123051808D01*
X112534236Y-122781309D01*
X112561943Y-122500000D01*
X112534236Y-122218691D01*
X112452182Y-121948192D01*
X112318932Y-121698899D01*
X112139608Y-121480392D01*
X111921101Y-121301068D01*
X111671808Y-121167818D01*
X111401309Y-121085764D01*
X111190492Y-121065000D01*
X111049508Y-121065000D01*
X110838691Y-121085764D01*
X110568192Y-121167818D01*
X110318899Y-121301068D01*
X110100392Y-121480392D01*
X109921068Y-121698899D01*
X109850000Y-121831858D01*
X109778932Y-121698899D01*
X109599608Y-121480392D01*
X109381101Y-121301068D01*
X109131808Y-121167818D01*
X108861309Y-121085764D01*
X108650492Y-121065000D01*
X108509508Y-121065000D01*
X108298691Y-121085764D01*
X108028192Y-121167818D01*
X107778899Y-121301068D01*
X107560392Y-121480392D01*
X107381068Y-121698899D01*
X107310000Y-121831858D01*
X107238932Y-121698899D01*
X107059608Y-121480392D01*
X107031872Y-121457630D01*
X107676303Y-120813199D01*
X107705301Y-120789401D01*
X107800274Y-120673676D01*
X107870846Y-120541647D01*
X107914303Y-120398386D01*
X107925300Y-120286733D01*
X107928977Y-120249400D01*
X107925300Y-120212067D01*
X107925300Y-116150134D01*
X108096913Y-116231246D01*
X108230961Y-116271904D01*
X108453000Y-116149915D01*
X108453000Y-115007000D01*
X108433000Y-115007000D01*
X108433000Y-114753000D01*
X108453000Y-114753000D01*
X108453000Y-113610085D01*
X108707000Y-113610085D01*
X108707000Y-114753000D01*
X108727000Y-114753000D01*
X108727000Y-115007000D01*
X108707000Y-115007000D01*
X108707000Y-116149915D01*
X108929039Y-116271904D01*
X109063087Y-116231246D01*
X109317420Y-116111037D01*
X109543414Y-115943519D01*
X109732385Y-115735131D01*
X109847421Y-115543318D01*
X109921068Y-115681101D01*
X110100392Y-115899608D01*
X110318899Y-116078932D01*
X110568192Y-116212182D01*
X110838691Y-116294236D01*
X111049508Y-116315000D01*
X111190492Y-116315000D01*
X111401309Y-116294236D01*
X111671808Y-116212182D01*
X111921101Y-116078932D01*
X112139608Y-115899608D01*
X112318932Y-115681101D01*
X112452182Y-115431808D01*
X112534236Y-115161309D01*
X112561943Y-114880000D01*
X112534236Y-114598691D01*
X112452182Y-114328192D01*
X112318932Y-114078899D01*
X112139608Y-113860392D01*
X111921101Y-113681068D01*
X111671808Y-113547818D01*
X111401309Y-113465764D01*
X111190492Y-113445000D01*
X111049508Y-113445000D01*
X110838691Y-113465764D01*
X110568192Y-113547818D01*
X110318899Y-113681068D01*
X110100392Y-113860392D01*
X109921068Y-114078899D01*
X109847421Y-114216682D01*
X109732385Y-114024869D01*
X109543414Y-113816481D01*
X109317420Y-113648963D01*
X109063087Y-113528754D01*
X108929039Y-113488096D01*
X108707000Y-113610085D01*
X108453000Y-113610085D01*
X108230961Y-113488096D01*
X108096913Y-113528754D01*
X107925300Y-113609866D01*
X107925300Y-98361501D01*
X109740001Y-96546801D01*
X109740000Y-100061928D01*
X109700000Y-100061928D01*
X109575518Y-100074188D01*
X109455820Y-100110498D01*
X109345506Y-100169463D01*
X109248815Y-100248815D01*
X109169463Y-100345506D01*
X109110498Y-100455820D01*
X109074188Y-100575518D01*
X109061928Y-100700000D01*
X109061928Y-102300000D01*
X109074188Y-102424482D01*
X109110498Y-102544180D01*
X109169463Y-102654494D01*
X109248815Y-102751185D01*
X109345506Y-102830537D01*
X109455820Y-102889502D01*
X109575518Y-102925812D01*
X109700000Y-102938072D01*
X111300000Y-102938072D01*
X111424482Y-102925812D01*
X111544180Y-102889502D01*
X111654494Y-102830537D01*
X111751185Y-102751185D01*
X111830537Y-102654494D01*
X111889502Y-102544180D01*
X111905117Y-102492702D01*
X112186903Y-102492702D01*
X112258486Y-102736671D01*
X112513996Y-102857571D01*
X112788184Y-102926300D01*
X113070512Y-102940217D01*
X113350130Y-102898787D01*
X113616292Y-102803603D01*
X113741514Y-102736671D01*
X113813097Y-102492702D01*
X113000000Y-101679605D01*
X112186903Y-102492702D01*
X111905117Y-102492702D01*
X111925812Y-102424482D01*
X111938072Y-102300000D01*
X111938072Y-102292785D01*
X112007298Y-102313097D01*
X112820395Y-101500000D01*
X113179605Y-101500000D01*
X113992702Y-102313097D01*
X114236671Y-102241514D01*
X114357571Y-101986004D01*
X114426300Y-101711816D01*
X114440217Y-101429488D01*
X114398787Y-101149870D01*
X114303603Y-100883708D01*
X114236671Y-100758486D01*
X113992702Y-100686903D01*
X113179605Y-101500000D01*
X112820395Y-101500000D01*
X112007298Y-100686903D01*
X111938072Y-100707215D01*
X111938072Y-100700000D01*
X111925812Y-100575518D01*
X111905118Y-100507298D01*
X112186903Y-100507298D01*
X113000000Y-101320395D01*
X113813097Y-100507298D01*
X113741514Y-100263329D01*
X113486004Y-100142429D01*
X113211816Y-100073700D01*
X112929488Y-100059783D01*
X112649870Y-100101213D01*
X112383708Y-100196397D01*
X112258486Y-100263329D01*
X112186903Y-100507298D01*
X111905118Y-100507298D01*
X111889502Y-100455820D01*
X111830537Y-100345506D01*
X111751185Y-100248815D01*
X111654494Y-100169463D01*
X111544180Y-100110498D01*
X111424482Y-100074188D01*
X111300000Y-100061928D01*
X111260000Y-100061928D01*
X111260000Y-96020101D01*
X113091003Y-94189099D01*
X113120001Y-94165301D01*
X113214974Y-94049576D01*
X113285546Y-93917547D01*
X113329003Y-93774286D01*
X113333942Y-93724139D01*
X113381101Y-93698932D01*
X113599608Y-93519608D01*
X113778932Y-93301101D01*
X113852579Y-93163318D01*
X113967615Y-93355131D01*
X114156586Y-93563519D01*
X114382580Y-93731037D01*
X114636913Y-93851246D01*
X114770961Y-93891904D01*
X114993000Y-93769915D01*
X114993000Y-92627000D01*
X115247000Y-92627000D01*
X115247000Y-93769915D01*
X115469039Y-93891904D01*
X115603087Y-93851246D01*
X115857420Y-93731037D01*
X116083414Y-93563519D01*
X116272385Y-93355131D01*
X116417070Y-93113881D01*
X116511909Y-92849040D01*
X116390624Y-92627000D01*
X115247000Y-92627000D01*
X114993000Y-92627000D01*
X114973000Y-92627000D01*
X114973000Y-92373000D01*
X114993000Y-92373000D01*
X114993000Y-91230085D01*
X115247000Y-91230085D01*
X115247000Y-92373000D01*
X116390624Y-92373000D01*
X116511909Y-92150960D01*
X116417070Y-91886119D01*
X116272385Y-91644869D01*
X116083414Y-91436481D01*
X115857420Y-91268963D01*
X115603087Y-91148754D01*
X115469039Y-91108096D01*
X115247000Y-91230085D01*
X114993000Y-91230085D01*
X114770961Y-91108096D01*
X114636913Y-91148754D01*
X114382580Y-91268963D01*
X114156586Y-91436481D01*
X113967615Y-91644869D01*
X113852579Y-91836682D01*
X113778932Y-91698899D01*
X113599608Y-91480392D01*
X113381101Y-91301068D01*
X113131808Y-91167818D01*
X112861309Y-91085764D01*
X112650492Y-91065000D01*
X112509508Y-91065000D01*
X112298691Y-91085764D01*
X112075000Y-91153619D01*
X112075000Y-90125101D01*
X115631003Y-86569099D01*
X115660001Y-86545301D01*
X115754974Y-86429576D01*
X115825546Y-86297547D01*
X115869003Y-86154286D01*
X115873942Y-86104139D01*
X115921101Y-86078932D01*
X116139608Y-85899608D01*
X116318932Y-85681101D01*
X116452182Y-85431808D01*
X116534236Y-85161309D01*
X116561943Y-84880000D01*
X116534236Y-84598691D01*
X116452182Y-84328192D01*
X116318932Y-84078899D01*
X116139608Y-83860392D01*
X115921101Y-83681068D01*
X115671808Y-83547818D01*
X115401309Y-83465764D01*
X115190492Y-83445000D01*
X115049508Y-83445000D01*
X114838691Y-83465764D01*
X114568192Y-83547818D01*
X114318899Y-83681068D01*
X114100392Y-83860392D01*
X113921068Y-84078899D01*
X113850000Y-84211858D01*
X113778932Y-84078899D01*
X113599608Y-83860392D01*
X113381101Y-83681068D01*
X113131808Y-83547818D01*
X112861309Y-83465764D01*
X112650492Y-83445000D01*
X112509508Y-83445000D01*
X112298691Y-83465764D01*
X112028192Y-83547818D01*
X111778899Y-83681068D01*
X111560392Y-83860392D01*
X111381068Y-84078899D01*
X111310000Y-84211858D01*
X111238932Y-84078899D01*
X111059608Y-83860392D01*
X110841101Y-83681068D01*
X110591808Y-83547818D01*
X110321309Y-83465764D01*
X110110492Y-83445000D01*
X109969508Y-83445000D01*
X109758691Y-83465764D01*
X109488192Y-83547818D01*
X109238899Y-83681068D01*
X109020392Y-83860392D01*
X108841068Y-84078899D01*
X108770000Y-84211858D01*
X108698932Y-84078899D01*
X108519608Y-83860392D01*
X108435000Y-83790956D01*
X108435000Y-83625635D01*
X108439524Y-83579700D01*
X108421472Y-83396408D01*
X108381000Y-83262992D01*
X108368007Y-83220160D01*
X108281186Y-83057728D01*
X108164344Y-82915356D01*
X108128654Y-82886066D01*
X107935000Y-82692412D01*
X107935000Y-82594396D01*
X108036694Y-82492702D01*
X108686903Y-82492702D01*
X108758486Y-82736671D01*
X109013996Y-82857571D01*
X109288184Y-82926300D01*
X109570512Y-82940217D01*
X109850130Y-82898787D01*
X110116292Y-82803603D01*
X110241514Y-82736671D01*
X110313097Y-82492702D01*
X109500000Y-81679605D01*
X108686903Y-82492702D01*
X108036694Y-82492702D01*
X108114637Y-82414759D01*
X108248692Y-82214131D01*
X108263329Y-82241514D01*
X108507298Y-82313097D01*
X109320395Y-81500000D01*
X109679605Y-81500000D01*
X110492702Y-82313097D01*
X110736671Y-82241514D01*
X110857571Y-81986004D01*
X110926300Y-81711816D01*
X110940217Y-81429488D01*
X110898787Y-81149870D01*
X110803603Y-80883708D01*
X110736671Y-80758486D01*
X110492702Y-80686903D01*
X109679605Y-81500000D01*
X109320395Y-81500000D01*
X108507298Y-80686903D01*
X108263329Y-80758486D01*
X108249676Y-80787341D01*
X108114637Y-80585241D01*
X108036694Y-80507298D01*
X108686903Y-80507298D01*
X109500000Y-81320395D01*
X110313097Y-80507298D01*
X110241514Y-80263329D01*
X109986004Y-80142429D01*
X109711816Y-80073700D01*
X109429488Y-80059783D01*
X109149870Y-80101213D01*
X108883708Y-80196397D01*
X108758486Y-80263329D01*
X108686903Y-80507298D01*
X108036694Y-80507298D01*
X107935000Y-80405604D01*
X107935000Y-79627000D01*
X118373000Y-79627000D01*
X118373000Y-126793531D01*
X118358899Y-126801068D01*
X118140392Y-126980392D01*
X117961068Y-127198899D01*
X117827818Y-127448192D01*
X117745764Y-127718691D01*
X117718057Y-128000000D01*
X117745764Y-128281309D01*
X117827818Y-128551808D01*
X117961068Y-128801101D01*
X118140392Y-129019608D01*
X118358899Y-129198932D01*
X118373000Y-129206469D01*
X118373000Y-130793531D01*
X118358899Y-130801068D01*
X118140392Y-130980392D01*
X117961068Y-131198899D01*
X117827818Y-131448192D01*
X117745764Y-131718691D01*
X117718057Y-132000000D01*
X117745764Y-132281309D01*
X117827818Y-132551808D01*
X117961068Y-132801101D01*
X118140392Y-133019608D01*
X118358899Y-133198932D01*
X118373000Y-133206469D01*
X118373000Y-134293531D01*
X118358899Y-134301068D01*
X118140392Y-134480392D01*
X117961068Y-134698899D01*
X117827818Y-134948192D01*
X117745764Y-135218691D01*
X117718057Y-135500000D01*
X117745764Y-135781309D01*
X117827818Y-136051808D01*
X117961068Y-136301101D01*
X118140392Y-136519608D01*
X118358899Y-136698932D01*
X118373000Y-136706469D01*
X118373000Y-138340000D01*
X87160000Y-138340000D01*
X87160000Y-134279872D01*
X89765000Y-134279872D01*
X89765000Y-134720128D01*
X89850890Y-135151925D01*
X90019369Y-135558669D01*
X90263962Y-135924729D01*
X90575271Y-136236038D01*
X90941331Y-136480631D01*
X91348075Y-136649110D01*
X91779872Y-136735000D01*
X92220128Y-136735000D01*
X92651925Y-136649110D01*
X93058669Y-136480631D01*
X93424729Y-136236038D01*
X93736038Y-135924729D01*
X93980631Y-135558669D01*
X94149110Y-135151925D01*
X94235000Y-134720128D01*
X94235000Y-134279872D01*
X94149110Y-133848075D01*
X93980631Y-133441331D01*
X93736038Y-133075271D01*
X93424729Y-132763962D01*
X93058669Y-132519369D01*
X92651925Y-132350890D01*
X92220128Y-132265000D01*
X91779872Y-132265000D01*
X91348075Y-132350890D01*
X90941331Y-132519369D01*
X90575271Y-132763962D01*
X90263962Y-133075271D01*
X90019369Y-133441331D01*
X89850890Y-133848075D01*
X89765000Y-134279872D01*
X87160000Y-134279872D01*
X87160000Y-127858665D01*
X107565000Y-127858665D01*
X107565000Y-128141335D01*
X107620147Y-128418574D01*
X107728320Y-128679727D01*
X107885363Y-128914759D01*
X108085241Y-129114637D01*
X108240000Y-129218044D01*
X108240001Y-130781956D01*
X108085241Y-130885363D01*
X107885363Y-131085241D01*
X107728320Y-131320273D01*
X107620147Y-131581426D01*
X107565000Y-131858665D01*
X107565000Y-132141335D01*
X107620147Y-132418574D01*
X107728320Y-132679727D01*
X107885363Y-132914759D01*
X108085241Y-133114637D01*
X108240000Y-133218044D01*
X108240001Y-134281956D01*
X108085241Y-134385363D01*
X107885363Y-134585241D01*
X107728320Y-134820273D01*
X107620147Y-135081426D01*
X107565000Y-135358665D01*
X107565000Y-135641335D01*
X107620147Y-135918574D01*
X107728320Y-136179727D01*
X107885363Y-136414759D01*
X108085241Y-136614637D01*
X108320273Y-136771680D01*
X108581426Y-136879853D01*
X108858665Y-136935000D01*
X109141335Y-136935000D01*
X109418574Y-136879853D01*
X109679727Y-136771680D01*
X109914759Y-136614637D01*
X110114637Y-136414759D01*
X110271680Y-136179727D01*
X110379853Y-135918574D01*
X110435000Y-135641335D01*
X110435000Y-135358665D01*
X110379853Y-135081426D01*
X110271680Y-134820273D01*
X110114637Y-134585241D01*
X109914759Y-134385363D01*
X109760000Y-134281957D01*
X109760000Y-133218043D01*
X109914759Y-133114637D01*
X110114637Y-132914759D01*
X110271680Y-132679727D01*
X110379853Y-132418574D01*
X110435000Y-132141335D01*
X110435000Y-131858665D01*
X110379853Y-131581426D01*
X110271680Y-131320273D01*
X110114637Y-131085241D01*
X109914759Y-130885363D01*
X109760000Y-130781957D01*
X109760000Y-129218043D01*
X109914759Y-129114637D01*
X110114637Y-128914759D01*
X110271680Y-128679727D01*
X110379853Y-128418574D01*
X110435000Y-128141335D01*
X110435000Y-127858665D01*
X110379853Y-127581426D01*
X110271680Y-127320273D01*
X110114637Y-127085241D01*
X109914759Y-126885363D01*
X109679727Y-126728320D01*
X109418574Y-126620147D01*
X109141335Y-126565000D01*
X108858665Y-126565000D01*
X108581426Y-126620147D01*
X108320273Y-126728320D01*
X108085241Y-126885363D01*
X107885363Y-127085241D01*
X107728320Y-127320273D01*
X107620147Y-127581426D01*
X107565000Y-127858665D01*
X87160000Y-127858665D01*
X87160000Y-125435560D01*
X93164045Y-125435560D01*
X93225932Y-125671368D01*
X93467790Y-125784266D01*
X93727027Y-125847811D01*
X93993680Y-125859561D01*
X94257501Y-125819063D01*
X94508353Y-125727875D01*
X94614068Y-125671368D01*
X94675955Y-125435560D01*
X93920000Y-124679605D01*
X93164045Y-125435560D01*
X87160000Y-125435560D01*
X87160000Y-124573680D01*
X92560439Y-124573680D01*
X92600937Y-124837501D01*
X92692125Y-125088353D01*
X92748632Y-125194068D01*
X92984440Y-125255955D01*
X93740395Y-124500000D01*
X94099605Y-124500000D01*
X94855560Y-125255955D01*
X95091368Y-125194068D01*
X95204266Y-124952210D01*
X95267811Y-124692973D01*
X95279561Y-124426320D01*
X95270386Y-124366544D01*
X97645000Y-124366544D01*
X97645000Y-124633456D01*
X97697072Y-124895239D01*
X97799215Y-125141833D01*
X97947503Y-125363762D01*
X98136238Y-125552497D01*
X98358167Y-125700785D01*
X98604761Y-125802928D01*
X98866544Y-125855000D01*
X99133456Y-125855000D01*
X99395239Y-125802928D01*
X99641833Y-125700785D01*
X99863762Y-125552497D01*
X100052497Y-125363762D01*
X100200785Y-125141833D01*
X100302928Y-124895239D01*
X100355000Y-124633456D01*
X100355000Y-124366544D01*
X100302928Y-124104761D01*
X100200785Y-123858167D01*
X100052497Y-123636238D01*
X99863762Y-123447503D01*
X99641833Y-123299215D01*
X99395239Y-123197072D01*
X99133456Y-123145000D01*
X98866544Y-123145000D01*
X98604761Y-123197072D01*
X98358167Y-123299215D01*
X98136238Y-123447503D01*
X97947503Y-123636238D01*
X97799215Y-123858167D01*
X97697072Y-124104761D01*
X97645000Y-124366544D01*
X95270386Y-124366544D01*
X95239063Y-124162499D01*
X95147875Y-123911647D01*
X95091368Y-123805932D01*
X94855560Y-123744045D01*
X94099605Y-124500000D01*
X93740395Y-124500000D01*
X92984440Y-123744045D01*
X92748632Y-123805932D01*
X92635734Y-124047790D01*
X92572189Y-124307027D01*
X92560439Y-124573680D01*
X87160000Y-124573680D01*
X87160000Y-123564440D01*
X93164045Y-123564440D01*
X93920000Y-124320395D01*
X94675955Y-123564440D01*
X94614068Y-123328632D01*
X94372210Y-123215734D01*
X94112973Y-123152189D01*
X93846320Y-123140439D01*
X93582499Y-123180937D01*
X93331647Y-123272125D01*
X93225932Y-123328632D01*
X93164045Y-123564440D01*
X87160000Y-123564440D01*
X87160000Y-100127000D01*
X89065000Y-100127000D01*
X89065000Y-100627000D01*
X89121193Y-100943532D01*
X89238058Y-101243020D01*
X89411105Y-101513954D01*
X89633683Y-101745922D01*
X89897239Y-101930010D01*
X90191645Y-102059144D01*
X90319566Y-102090124D01*
X90573000Y-101970777D01*
X90573000Y-100127000D01*
X90827000Y-100127000D01*
X90827000Y-101970777D01*
X91080434Y-102090124D01*
X91208355Y-102059144D01*
X91502761Y-101930010D01*
X91766317Y-101745922D01*
X91988895Y-101513954D01*
X92161942Y-101243020D01*
X92278807Y-100943532D01*
X92335000Y-100627000D01*
X92335000Y-100127000D01*
X90827000Y-100127000D01*
X90573000Y-100127000D01*
X89065000Y-100127000D01*
X87160000Y-100127000D01*
X87160000Y-99373000D01*
X89065000Y-99373000D01*
X89065000Y-99873000D01*
X90573000Y-99873000D01*
X90573000Y-98029223D01*
X90827000Y-98029223D01*
X90827000Y-99873000D01*
X92335000Y-99873000D01*
X92335000Y-99373000D01*
X92278807Y-99056468D01*
X92161942Y-98756980D01*
X91988895Y-98486046D01*
X91766317Y-98254078D01*
X91502761Y-98069990D01*
X91208355Y-97940856D01*
X91080434Y-97909876D01*
X90827000Y-98029223D01*
X90573000Y-98029223D01*
X90319566Y-97909876D01*
X90191645Y-97940856D01*
X89897239Y-98069990D01*
X89633683Y-98254078D01*
X89411105Y-98486046D01*
X89238058Y-98756980D01*
X89121193Y-99056468D01*
X89065000Y-99373000D01*
X87160000Y-99373000D01*
X87160000Y-90858665D01*
X88065000Y-90858665D01*
X88065000Y-91141335D01*
X88120147Y-91418574D01*
X88228320Y-91679727D01*
X88385363Y-91914759D01*
X88585241Y-92114637D01*
X88820273Y-92271680D01*
X89081426Y-92379853D01*
X89358665Y-92435000D01*
X89641335Y-92435000D01*
X89823899Y-92398685D01*
X94162594Y-96737305D01*
X93689002Y-97210896D01*
X93659999Y-97234699D01*
X93625041Y-97277296D01*
X93565026Y-97350424D01*
X93532259Y-97411726D01*
X93494454Y-97482454D01*
X93450997Y-97625715D01*
X93440000Y-97737368D01*
X93440000Y-97737378D01*
X93436324Y-97774700D01*
X93440000Y-97812023D01*
X93440001Y-102882697D01*
X93379484Y-102888657D01*
X93071285Y-102982148D01*
X92787248Y-103133969D01*
X92538286Y-103338286D01*
X92333969Y-103587248D01*
X92247595Y-103748842D01*
X92225714Y-103750997D01*
X92082453Y-103794454D01*
X91950424Y-103865026D01*
X91834699Y-103959999D01*
X91739726Y-104075724D01*
X91669154Y-104207753D01*
X91625697Y-104351014D01*
X91611023Y-104500000D01*
X91614700Y-104537333D01*
X91614701Y-106310497D01*
X90323886Y-107601312D01*
X90141335Y-107565000D01*
X89858665Y-107565000D01*
X89581426Y-107620147D01*
X89320273Y-107728320D01*
X89085241Y-107885363D01*
X88885363Y-108085241D01*
X88728320Y-108320273D01*
X88620147Y-108581426D01*
X88565000Y-108858665D01*
X88565000Y-109141335D01*
X88620147Y-109418574D01*
X88728320Y-109679727D01*
X88885363Y-109914759D01*
X89085241Y-110114637D01*
X89320273Y-110271680D01*
X89581426Y-110379853D01*
X89858665Y-110435000D01*
X90141335Y-110435000D01*
X90418574Y-110379853D01*
X90679727Y-110271680D01*
X90914759Y-110114637D01*
X91114637Y-109914759D01*
X91271680Y-109679727D01*
X91379853Y-109418574D01*
X91435000Y-109141335D01*
X91435000Y-108858665D01*
X91398688Y-108676114D01*
X92885703Y-107189099D01*
X92914701Y-107165301D01*
X92972718Y-107094607D01*
X93009674Y-107049577D01*
X93080246Y-106917547D01*
X93099138Y-106855266D01*
X93123703Y-106774286D01*
X93134700Y-106662633D01*
X93134700Y-106662623D01*
X93138376Y-106625300D01*
X93134700Y-106587977D01*
X93134700Y-106037089D01*
X93379484Y-106111343D01*
X93619678Y-106135000D01*
X94780322Y-106135000D01*
X95020516Y-106111343D01*
X95328715Y-106017852D01*
X95612752Y-105866031D01*
X95861714Y-105661714D01*
X96066031Y-105412752D01*
X96217852Y-105128715D01*
X96311343Y-104820516D01*
X96342911Y-104500000D01*
X96311343Y-104179484D01*
X96217852Y-103871285D01*
X96066031Y-103587248D01*
X95861714Y-103338286D01*
X95612752Y-103133969D01*
X95328715Y-102982148D01*
X95020516Y-102888657D01*
X94960000Y-102882697D01*
X94960000Y-98089501D01*
X95444592Y-97604910D01*
X95482148Y-97728715D01*
X95633969Y-98012752D01*
X95838286Y-98261714D01*
X96087248Y-98466031D01*
X96371285Y-98617852D01*
X96679484Y-98711343D01*
X96919678Y-98735000D01*
X98080322Y-98735000D01*
X98320516Y-98711343D01*
X98628715Y-98617852D01*
X98912752Y-98466031D01*
X99161714Y-98261714D01*
X99366031Y-98012752D01*
X99517852Y-97728715D01*
X99611343Y-97420516D01*
X99642911Y-97100000D01*
X99611343Y-96779484D01*
X99517852Y-96471285D01*
X99391555Y-96235000D01*
X99780322Y-96235000D01*
X100020516Y-96211343D01*
X100328715Y-96117852D01*
X100612752Y-95966031D01*
X100861714Y-95761714D01*
X101066031Y-95512752D01*
X101217852Y-95228715D01*
X101311343Y-94920516D01*
X101342911Y-94600000D01*
X101311343Y-94279484D01*
X101217852Y-93971285D01*
X101066031Y-93687248D01*
X100861714Y-93438286D01*
X100612752Y-93233969D01*
X100328715Y-93082148D01*
X100020516Y-92988657D01*
X99780322Y-92965000D01*
X98619678Y-92965000D01*
X98379484Y-92988657D01*
X98071285Y-93082148D01*
X97787248Y-93233969D01*
X97538286Y-93438286D01*
X97333969Y-93687248D01*
X97247595Y-93848842D01*
X97225714Y-93850997D01*
X97082453Y-93894454D01*
X96950424Y-93965026D01*
X96834699Y-94059999D01*
X96810901Y-94088997D01*
X95237395Y-95662503D01*
X90898690Y-91323874D01*
X90935000Y-91141335D01*
X90935000Y-90858665D01*
X90879853Y-90581426D01*
X90771680Y-90320273D01*
X90614637Y-90085241D01*
X90414759Y-89885363D01*
X90179727Y-89728320D01*
X89918574Y-89620147D01*
X89641335Y-89565000D01*
X89358665Y-89565000D01*
X89081426Y-89620147D01*
X88820273Y-89728320D01*
X88585241Y-89885363D01*
X88385363Y-90085241D01*
X88228320Y-90320273D01*
X88120147Y-90581426D01*
X88065000Y-90858665D01*
X87160000Y-90858665D01*
X87160000Y-83200000D01*
X88561928Y-83200000D01*
X88561928Y-84800000D01*
X88574188Y-84924482D01*
X88610498Y-85044180D01*
X88669463Y-85154494D01*
X88748815Y-85251185D01*
X88845506Y-85330537D01*
X88955820Y-85389502D01*
X89075518Y-85425812D01*
X89200000Y-85438072D01*
X90800000Y-85438072D01*
X90924482Y-85425812D01*
X91044180Y-85389502D01*
X91154494Y-85330537D01*
X91251185Y-85251185D01*
X91330537Y-85154494D01*
X91389502Y-85044180D01*
X91418661Y-84948057D01*
X91585241Y-85114637D01*
X91820273Y-85271680D01*
X92081426Y-85379853D01*
X92358665Y-85435000D01*
X92641335Y-85435000D01*
X92823887Y-85398688D01*
X97774700Y-90349502D01*
X97774701Y-90962658D01*
X97771023Y-91000000D01*
X97785697Y-91148986D01*
X97829154Y-91292247D01*
X97899726Y-91424276D01*
X97994699Y-91540001D01*
X98110424Y-91634974D01*
X98242453Y-91705546D01*
X98385714Y-91749003D01*
X98435861Y-91753942D01*
X98461068Y-91801101D01*
X98640392Y-92019608D01*
X98858899Y-92198932D01*
X99108192Y-92332182D01*
X99378691Y-92414236D01*
X99589508Y-92435000D01*
X99730492Y-92435000D01*
X99941309Y-92414236D01*
X100211808Y-92332182D01*
X100461101Y-92198932D01*
X100679608Y-92019608D01*
X100858932Y-91801101D01*
X100992182Y-91551808D01*
X101074236Y-91281309D01*
X101101943Y-91000000D01*
X101074236Y-90718691D01*
X100992182Y-90448192D01*
X100858932Y-90198899D01*
X100679608Y-89980392D01*
X100461101Y-89801068D01*
X100211808Y-89667818D01*
X99941309Y-89585764D01*
X99730492Y-89565000D01*
X99589508Y-89565000D01*
X99378691Y-89585764D01*
X99187494Y-89643762D01*
X99169674Y-89610424D01*
X99149436Y-89585764D01*
X99074701Y-89494699D01*
X99045704Y-89470902D01*
X94510362Y-84935560D01*
X97164045Y-84935560D01*
X97225932Y-85171368D01*
X97467790Y-85284266D01*
X97727027Y-85347811D01*
X97993680Y-85359561D01*
X98257501Y-85319063D01*
X98508353Y-85227875D01*
X98614068Y-85171368D01*
X98675955Y-84935560D01*
X97920000Y-84179605D01*
X97164045Y-84935560D01*
X94510362Y-84935560D01*
X93898688Y-84323887D01*
X93935000Y-84141335D01*
X93935000Y-84073680D01*
X96560439Y-84073680D01*
X96600937Y-84337501D01*
X96692125Y-84588353D01*
X96748632Y-84694068D01*
X96984440Y-84755955D01*
X97740395Y-84000000D01*
X98099605Y-84000000D01*
X98855560Y-84755955D01*
X99091368Y-84694068D01*
X99204266Y-84452210D01*
X99267811Y-84192973D01*
X99279561Y-83926320D01*
X99270386Y-83866544D01*
X101645000Y-83866544D01*
X101645000Y-84133456D01*
X101697072Y-84395239D01*
X101799215Y-84641833D01*
X101947503Y-84863762D01*
X102136238Y-85052497D01*
X102358167Y-85200785D01*
X102604761Y-85302928D01*
X102866544Y-85355000D01*
X103133456Y-85355000D01*
X103395239Y-85302928D01*
X103641833Y-85200785D01*
X103863762Y-85052497D01*
X104052497Y-84863762D01*
X104200785Y-84641833D01*
X104302928Y-84395239D01*
X104355000Y-84133456D01*
X104355000Y-83866544D01*
X104302928Y-83604761D01*
X104200785Y-83358167D01*
X104052497Y-83136238D01*
X103863762Y-82947503D01*
X103641833Y-82799215D01*
X103395239Y-82697072D01*
X103133456Y-82645000D01*
X102866544Y-82645000D01*
X102604761Y-82697072D01*
X102358167Y-82799215D01*
X102136238Y-82947503D01*
X101947503Y-83136238D01*
X101799215Y-83358167D01*
X101697072Y-83604761D01*
X101645000Y-83866544D01*
X99270386Y-83866544D01*
X99239063Y-83662499D01*
X99147875Y-83411647D01*
X99091368Y-83305932D01*
X98855560Y-83244045D01*
X98099605Y-84000000D01*
X97740395Y-84000000D01*
X96984440Y-83244045D01*
X96748632Y-83305932D01*
X96635734Y-83547790D01*
X96572189Y-83807027D01*
X96560439Y-84073680D01*
X93935000Y-84073680D01*
X93935000Y-83858665D01*
X93879853Y-83581426D01*
X93771680Y-83320273D01*
X93614637Y-83085241D01*
X93593836Y-83064440D01*
X97164045Y-83064440D01*
X97920000Y-83820395D01*
X98675955Y-83064440D01*
X98614068Y-82828632D01*
X98372210Y-82715734D01*
X98112973Y-82652189D01*
X97846320Y-82640439D01*
X97582499Y-82680937D01*
X97331647Y-82772125D01*
X97225932Y-82828632D01*
X97164045Y-83064440D01*
X93593836Y-83064440D01*
X93414759Y-82885363D01*
X93179727Y-82728320D01*
X92918574Y-82620147D01*
X92641335Y-82565000D01*
X92358665Y-82565000D01*
X92081426Y-82620147D01*
X91820273Y-82728320D01*
X91585241Y-82885363D01*
X91418661Y-83051943D01*
X91389502Y-82955820D01*
X91330537Y-82845506D01*
X91251185Y-82748815D01*
X91154494Y-82669463D01*
X91044180Y-82610498D01*
X90924482Y-82574188D01*
X90800000Y-82561928D01*
X89200000Y-82561928D01*
X89075518Y-82574188D01*
X88955820Y-82610498D01*
X88845506Y-82669463D01*
X88748815Y-82748815D01*
X88669463Y-82845506D01*
X88610498Y-82955820D01*
X88574188Y-83075518D01*
X88561928Y-83200000D01*
X87160000Y-83200000D01*
X87160000Y-81326544D01*
X99105000Y-81326544D01*
X99105000Y-81593456D01*
X99157072Y-81855239D01*
X99259215Y-82101833D01*
X99407503Y-82323762D01*
X99596238Y-82512497D01*
X99818167Y-82660785D01*
X100064761Y-82762928D01*
X100326544Y-82815000D01*
X100593456Y-82815000D01*
X100855239Y-82762928D01*
X101101833Y-82660785D01*
X101323762Y-82512497D01*
X101512497Y-82323762D01*
X101660785Y-82101833D01*
X101762928Y-81855239D01*
X101815000Y-81593456D01*
X101815000Y-81326544D01*
X101762928Y-81064761D01*
X101660785Y-80818167D01*
X101512497Y-80596238D01*
X101323762Y-80407503D01*
X101101833Y-80259215D01*
X100855239Y-80157072D01*
X100593456Y-80105000D01*
X100326544Y-80105000D01*
X100064761Y-80157072D01*
X99818167Y-80259215D01*
X99596238Y-80407503D01*
X99407503Y-80596238D01*
X99259215Y-80818167D01*
X99157072Y-81064761D01*
X99105000Y-81326544D01*
X87160000Y-81326544D01*
X87160000Y-79627000D01*
X106065000Y-79627000D01*
X106065000Y-80405604D01*
G36*
X118879294Y-76329014D02*
G01*
X119064866Y-76555134D01*
X119290986Y-76740706D01*
X119548966Y-76878599D01*
X119828889Y-76963513D01*
X120047050Y-76985000D01*
X120192950Y-76985000D01*
X120411111Y-76963513D01*
X120691034Y-76878599D01*
X120717300Y-76864559D01*
X120717301Y-114074667D01*
X120713624Y-114112000D01*
X120717301Y-114149333D01*
X120728298Y-114260986D01*
X120738450Y-114294454D01*
X120771754Y-114404246D01*
X120842326Y-114536276D01*
X120902915Y-114610103D01*
X120937300Y-114652001D01*
X120966298Y-114675799D01*
X122461400Y-116170902D01*
X122461401Y-129385168D01*
X122457724Y-129422500D01*
X122472398Y-129571485D01*
X122515854Y-129714746D01*
X122586426Y-129846776D01*
X122657601Y-129933502D01*
X122681400Y-129962501D01*
X122710398Y-129986299D01*
X124789077Y-132064980D01*
X124785750Y-132065000D01*
X124627000Y-132223750D01*
X124627000Y-133373000D01*
X124647000Y-133373000D01*
X124647000Y-133627000D01*
X124627000Y-133627000D01*
X124627000Y-134776250D01*
X124785750Y-134935000D01*
X125300000Y-134938072D01*
X125424482Y-134925812D01*
X125544180Y-134889502D01*
X125638751Y-134838952D01*
X125936101Y-135136303D01*
X125959899Y-135165301D01*
X126075624Y-135260274D01*
X126207653Y-135330846D01*
X126350914Y-135374303D01*
X126462567Y-135385300D01*
X126462575Y-135385300D01*
X126499900Y-135388976D01*
X126537225Y-135385300D01*
X135193478Y-135385300D01*
X135230800Y-135388976D01*
X135268122Y-135385300D01*
X135268133Y-135385300D01*
X135379786Y-135374303D01*
X135523047Y-135330846D01*
X135655076Y-135260274D01*
X135770801Y-135165301D01*
X135794603Y-135136298D01*
X136307214Y-134623688D01*
X136398899Y-134698932D01*
X136648192Y-134832182D01*
X136918691Y-134914236D01*
X137129508Y-134935000D01*
X137270492Y-134935000D01*
X137481309Y-134914236D01*
X137751808Y-134832182D01*
X138001101Y-134698932D01*
X138219608Y-134519608D01*
X138398932Y-134301101D01*
X138470000Y-134168142D01*
X138541068Y-134301101D01*
X138720392Y-134519608D01*
X138938899Y-134698932D01*
X139188192Y-134832182D01*
X139458691Y-134914236D01*
X139669508Y-134935000D01*
X139810492Y-134935000D01*
X140021309Y-134914236D01*
X140291808Y-134832182D01*
X140541101Y-134698932D01*
X140759608Y-134519608D01*
X140938932Y-134301101D01*
X141010000Y-134168142D01*
X141081068Y-134301101D01*
X141260392Y-134519608D01*
X141478899Y-134698932D01*
X141728192Y-134832182D01*
X141998691Y-134914236D01*
X142209508Y-134935000D01*
X142350492Y-134935000D01*
X142561309Y-134914236D01*
X142831808Y-134832182D01*
X143081101Y-134698932D01*
X143206181Y-134596282D01*
X145159301Y-136549403D01*
X145183099Y-136578401D01*
X145212097Y-136602199D01*
X145298823Y-136673374D01*
X145414116Y-136735000D01*
X145430853Y-136743946D01*
X145574114Y-136787403D01*
X145685767Y-136798400D01*
X145685776Y-136798400D01*
X145723099Y-136802076D01*
X145760422Y-136798400D01*
X173419178Y-136798400D01*
X173456500Y-136802076D01*
X173493822Y-136798400D01*
X173493833Y-136798400D01*
X173605486Y-136787403D01*
X173748747Y-136743946D01*
X173880776Y-136673374D01*
X173996501Y-136578401D01*
X174020304Y-136549397D01*
X176289829Y-134279872D01*
X179265000Y-134279872D01*
X179265000Y-134720128D01*
X179350890Y-135151925D01*
X179519369Y-135558669D01*
X179763962Y-135924729D01*
X180075271Y-136236038D01*
X180441331Y-136480631D01*
X180848075Y-136649110D01*
X181279872Y-136735000D01*
X181720128Y-136735000D01*
X182151925Y-136649110D01*
X182558669Y-136480631D01*
X182924729Y-136236038D01*
X183236038Y-135924729D01*
X183480631Y-135558669D01*
X183649110Y-135151925D01*
X183735000Y-134720128D01*
X183735000Y-134279872D01*
X183649110Y-133848075D01*
X183480631Y-133441331D01*
X183236038Y-133075271D01*
X182924729Y-132763962D01*
X182558669Y-132519369D01*
X182151925Y-132350890D01*
X181720128Y-132265000D01*
X181279872Y-132265000D01*
X180848075Y-132350890D01*
X180441331Y-132519369D01*
X180075271Y-132763962D01*
X179763962Y-133075271D01*
X179519369Y-133441331D01*
X179350890Y-133848075D01*
X179265000Y-134279872D01*
X176289829Y-134279872D01*
X185840001Y-124729701D01*
X185840001Y-138340000D01*
X120127000Y-138340000D01*
X120127000Y-136562782D01*
X120179608Y-136519608D01*
X120358932Y-136301101D01*
X120492182Y-136051808D01*
X120574236Y-135781309D01*
X120601943Y-135500000D01*
X120574236Y-135218691D01*
X120492182Y-134948192D01*
X120358932Y-134698899D01*
X120179608Y-134480392D01*
X120127000Y-134437218D01*
X120127000Y-134300000D01*
X123061928Y-134300000D01*
X123074188Y-134424482D01*
X123110498Y-134544180D01*
X123169463Y-134654494D01*
X123248815Y-134751185D01*
X123345506Y-134830537D01*
X123455820Y-134889502D01*
X123575518Y-134925812D01*
X123700000Y-134938072D01*
X124214250Y-134935000D01*
X124373000Y-134776250D01*
X124373000Y-133627000D01*
X123223750Y-133627000D01*
X123065000Y-133785750D01*
X123061928Y-134300000D01*
X120127000Y-134300000D01*
X120127000Y-133062782D01*
X120179608Y-133019608D01*
X120358932Y-132801101D01*
X120412971Y-132700000D01*
X123061928Y-132700000D01*
X123065000Y-133214250D01*
X123223750Y-133373000D01*
X124373000Y-133373000D01*
X124373000Y-132223750D01*
X124214250Y-132065000D01*
X123700000Y-132061928D01*
X123575518Y-132074188D01*
X123455820Y-132110498D01*
X123345506Y-132169463D01*
X123248815Y-132248815D01*
X123169463Y-132345506D01*
X123110498Y-132455820D01*
X123074188Y-132575518D01*
X123061928Y-132700000D01*
X120412971Y-132700000D01*
X120492182Y-132551808D01*
X120574236Y-132281309D01*
X120601943Y-132000000D01*
X120574236Y-131718691D01*
X120492182Y-131448192D01*
X120358932Y-131198899D01*
X120179608Y-130980392D01*
X120127000Y-130937218D01*
X120127000Y-129062782D01*
X120179608Y-129019608D01*
X120358932Y-128801101D01*
X120492182Y-128551808D01*
X120574236Y-128281309D01*
X120601943Y-128000000D01*
X120574236Y-127718691D01*
X120492182Y-127448192D01*
X120358932Y-127198899D01*
X120179608Y-126980392D01*
X120127000Y-126937218D01*
X120127000Y-78500000D01*
X120124560Y-78475224D01*
X120117333Y-78451399D01*
X120105597Y-78429443D01*
X120089803Y-78410197D01*
X120070557Y-78394403D01*
X120048601Y-78382667D01*
X120024776Y-78375440D01*
X120000000Y-78373000D01*
X109598989Y-78373000D01*
X111186189Y-76785800D01*
X111198815Y-76801185D01*
X111295506Y-76880537D01*
X111405820Y-76939502D01*
X111525518Y-76975812D01*
X111650000Y-76988072D01*
X113350000Y-76988072D01*
X113474482Y-76975812D01*
X113594180Y-76939502D01*
X113704494Y-76880537D01*
X113801185Y-76801185D01*
X113880537Y-76704494D01*
X113939502Y-76594180D01*
X113960393Y-76525313D01*
X113984866Y-76555134D01*
X114210986Y-76740706D01*
X114468966Y-76878599D01*
X114748889Y-76963513D01*
X114967050Y-76985000D01*
X115112950Y-76985000D01*
X115331111Y-76963513D01*
X115611034Y-76878599D01*
X115869014Y-76740706D01*
X116095134Y-76555134D01*
X116280706Y-76329014D01*
X116310000Y-76274209D01*
X116339294Y-76329014D01*
X116524866Y-76555134D01*
X116750986Y-76740706D01*
X117008966Y-76878599D01*
X117288889Y-76963513D01*
X117507050Y-76985000D01*
X117652950Y-76985000D01*
X117871111Y-76963513D01*
X118151034Y-76878599D01*
X118409014Y-76740706D01*
X118635134Y-76555134D01*
X118820706Y-76329014D01*
X118850000Y-76274209D01*
X118879294Y-76329014D01*
X118879294Y-76329014D01*
G37*
X118879294Y-76329014D02*
X119064866Y-76555134D01*
X119290986Y-76740706D01*
X119548966Y-76878599D01*
X119828889Y-76963513D01*
X120047050Y-76985000D01*
X120192950Y-76985000D01*
X120411111Y-76963513D01*
X120691034Y-76878599D01*
X120717300Y-76864559D01*
X120717301Y-114074667D01*
X120713624Y-114112000D01*
X120717301Y-114149333D01*
X120728298Y-114260986D01*
X120738450Y-114294454D01*
X120771754Y-114404246D01*
X120842326Y-114536276D01*
X120902915Y-114610103D01*
X120937300Y-114652001D01*
X120966298Y-114675799D01*
X122461400Y-116170902D01*
X122461401Y-129385168D01*
X122457724Y-129422500D01*
X122472398Y-129571485D01*
X122515854Y-129714746D01*
X122586426Y-129846776D01*
X122657601Y-129933502D01*
X122681400Y-129962501D01*
X122710398Y-129986299D01*
X124789077Y-132064980D01*
X124785750Y-132065000D01*
X124627000Y-132223750D01*
X124627000Y-133373000D01*
X124647000Y-133373000D01*
X124647000Y-133627000D01*
X124627000Y-133627000D01*
X124627000Y-134776250D01*
X124785750Y-134935000D01*
X125300000Y-134938072D01*
X125424482Y-134925812D01*
X125544180Y-134889502D01*
X125638751Y-134838952D01*
X125936101Y-135136303D01*
X125959899Y-135165301D01*
X126075624Y-135260274D01*
X126207653Y-135330846D01*
X126350914Y-135374303D01*
X126462567Y-135385300D01*
X126462575Y-135385300D01*
X126499900Y-135388976D01*
X126537225Y-135385300D01*
X135193478Y-135385300D01*
X135230800Y-135388976D01*
X135268122Y-135385300D01*
X135268133Y-135385300D01*
X135379786Y-135374303D01*
X135523047Y-135330846D01*
X135655076Y-135260274D01*
X135770801Y-135165301D01*
X135794603Y-135136298D01*
X136307214Y-134623688D01*
X136398899Y-134698932D01*
X136648192Y-134832182D01*
X136918691Y-134914236D01*
X137129508Y-134935000D01*
X137270492Y-134935000D01*
X137481309Y-134914236D01*
X137751808Y-134832182D01*
X138001101Y-134698932D01*
X138219608Y-134519608D01*
X138398932Y-134301101D01*
X138470000Y-134168142D01*
X138541068Y-134301101D01*
X138720392Y-134519608D01*
X138938899Y-134698932D01*
X139188192Y-134832182D01*
X139458691Y-134914236D01*
X139669508Y-134935000D01*
X139810492Y-134935000D01*
X140021309Y-134914236D01*
X140291808Y-134832182D01*
X140541101Y-134698932D01*
X140759608Y-134519608D01*
X140938932Y-134301101D01*
X141010000Y-134168142D01*
X141081068Y-134301101D01*
X141260392Y-134519608D01*
X141478899Y-134698932D01*
X141728192Y-134832182D01*
X141998691Y-134914236D01*
X142209508Y-134935000D01*
X142350492Y-134935000D01*
X142561309Y-134914236D01*
X142831808Y-134832182D01*
X143081101Y-134698932D01*
X143206181Y-134596282D01*
X145159301Y-136549403D01*
X145183099Y-136578401D01*
X145212097Y-136602199D01*
X145298823Y-136673374D01*
X145414116Y-136735000D01*
X145430853Y-136743946D01*
X145574114Y-136787403D01*
X145685767Y-136798400D01*
X145685776Y-136798400D01*
X145723099Y-136802076D01*
X145760422Y-136798400D01*
X173419178Y-136798400D01*
X173456500Y-136802076D01*
X173493822Y-136798400D01*
X173493833Y-136798400D01*
X173605486Y-136787403D01*
X173748747Y-136743946D01*
X173880776Y-136673374D01*
X173996501Y-136578401D01*
X174020304Y-136549397D01*
X176289829Y-134279872D01*
X179265000Y-134279872D01*
X179265000Y-134720128D01*
X179350890Y-135151925D01*
X179519369Y-135558669D01*
X179763962Y-135924729D01*
X180075271Y-136236038D01*
X180441331Y-136480631D01*
X180848075Y-136649110D01*
X181279872Y-136735000D01*
X181720128Y-136735000D01*
X182151925Y-136649110D01*
X182558669Y-136480631D01*
X182924729Y-136236038D01*
X183236038Y-135924729D01*
X183480631Y-135558669D01*
X183649110Y-135151925D01*
X183735000Y-134720128D01*
X183735000Y-134279872D01*
X183649110Y-133848075D01*
X183480631Y-133441331D01*
X183236038Y-133075271D01*
X182924729Y-132763962D01*
X182558669Y-132519369D01*
X182151925Y-132350890D01*
X181720128Y-132265000D01*
X181279872Y-132265000D01*
X180848075Y-132350890D01*
X180441331Y-132519369D01*
X180075271Y-132763962D01*
X179763962Y-133075271D01*
X179519369Y-133441331D01*
X179350890Y-133848075D01*
X179265000Y-134279872D01*
X176289829Y-134279872D01*
X185840001Y-124729701D01*
X185840001Y-138340000D01*
X120127000Y-138340000D01*
X120127000Y-136562782D01*
X120179608Y-136519608D01*
X120358932Y-136301101D01*
X120492182Y-136051808D01*
X120574236Y-135781309D01*
X120601943Y-135500000D01*
X120574236Y-135218691D01*
X120492182Y-134948192D01*
X120358932Y-134698899D01*
X120179608Y-134480392D01*
X120127000Y-134437218D01*
X120127000Y-134300000D01*
X123061928Y-134300000D01*
X123074188Y-134424482D01*
X123110498Y-134544180D01*
X123169463Y-134654494D01*
X123248815Y-134751185D01*
X123345506Y-134830537D01*
X123455820Y-134889502D01*
X123575518Y-134925812D01*
X123700000Y-134938072D01*
X124214250Y-134935000D01*
X124373000Y-134776250D01*
X124373000Y-133627000D01*
X123223750Y-133627000D01*
X123065000Y-133785750D01*
X123061928Y-134300000D01*
X120127000Y-134300000D01*
X120127000Y-133062782D01*
X120179608Y-133019608D01*
X120358932Y-132801101D01*
X120412971Y-132700000D01*
X123061928Y-132700000D01*
X123065000Y-133214250D01*
X123223750Y-133373000D01*
X124373000Y-133373000D01*
X124373000Y-132223750D01*
X124214250Y-132065000D01*
X123700000Y-132061928D01*
X123575518Y-132074188D01*
X123455820Y-132110498D01*
X123345506Y-132169463D01*
X123248815Y-132248815D01*
X123169463Y-132345506D01*
X123110498Y-132455820D01*
X123074188Y-132575518D01*
X123061928Y-132700000D01*
X120412971Y-132700000D01*
X120492182Y-132551808D01*
X120574236Y-132281309D01*
X120601943Y-132000000D01*
X120574236Y-131718691D01*
X120492182Y-131448192D01*
X120358932Y-131198899D01*
X120179608Y-130980392D01*
X120127000Y-130937218D01*
X120127000Y-129062782D01*
X120179608Y-129019608D01*
X120358932Y-128801101D01*
X120492182Y-128551808D01*
X120574236Y-128281309D01*
X120601943Y-128000000D01*
X120574236Y-127718691D01*
X120492182Y-127448192D01*
X120358932Y-127198899D01*
X120179608Y-126980392D01*
X120127000Y-126937218D01*
X120127000Y-78500000D01*
X120124560Y-78475224D01*
X120117333Y-78451399D01*
X120105597Y-78429443D01*
X120089803Y-78410197D01*
X120070557Y-78394403D01*
X120048601Y-78382667D01*
X120024776Y-78375440D01*
X120000000Y-78373000D01*
X109598989Y-78373000D01*
X111186189Y-76785800D01*
X111198815Y-76801185D01*
X111295506Y-76880537D01*
X111405820Y-76939502D01*
X111525518Y-76975812D01*
X111650000Y-76988072D01*
X113350000Y-76988072D01*
X113474482Y-76975812D01*
X113594180Y-76939502D01*
X113704494Y-76880537D01*
X113801185Y-76801185D01*
X113880537Y-76704494D01*
X113939502Y-76594180D01*
X113960393Y-76525313D01*
X113984866Y-76555134D01*
X114210986Y-76740706D01*
X114468966Y-76878599D01*
X114748889Y-76963513D01*
X114967050Y-76985000D01*
X115112950Y-76985000D01*
X115331111Y-76963513D01*
X115611034Y-76878599D01*
X115869014Y-76740706D01*
X116095134Y-76555134D01*
X116280706Y-76329014D01*
X116310000Y-76274209D01*
X116339294Y-76329014D01*
X116524866Y-76555134D01*
X116750986Y-76740706D01*
X117008966Y-76878599D01*
X117288889Y-76963513D01*
X117507050Y-76985000D01*
X117652950Y-76985000D01*
X117871111Y-76963513D01*
X118151034Y-76878599D01*
X118409014Y-76740706D01*
X118635134Y-76555134D01*
X118820706Y-76329014D01*
X118850000Y-76274209D01*
X118879294Y-76329014D01*
G36*
X177656400Y-120832798D02*
G01*
X166074299Y-132414900D01*
X165877420Y-132268963D01*
X165623087Y-132148754D01*
X165489039Y-132108096D01*
X165267000Y-132230085D01*
X165267000Y-133373000D01*
X165287000Y-133373000D01*
X165287000Y-133627000D01*
X165267000Y-133627000D01*
X165267000Y-133647000D01*
X165013000Y-133647000D01*
X165013000Y-133627000D01*
X164993000Y-133627000D01*
X164993000Y-133373000D01*
X165013000Y-133373000D01*
X165013000Y-132230085D01*
X164790961Y-132108096D01*
X164656913Y-132148754D01*
X164402580Y-132268963D01*
X164176586Y-132436481D01*
X163987615Y-132644869D01*
X163916320Y-132763748D01*
X163874286Y-132750997D01*
X163824139Y-132746058D01*
X163798932Y-132698899D01*
X163619608Y-132480392D01*
X163401101Y-132301068D01*
X163151808Y-132167818D01*
X162881309Y-132085764D01*
X162670492Y-132065000D01*
X162529508Y-132065000D01*
X162318691Y-132085764D01*
X162048192Y-132167818D01*
X161798899Y-132301068D01*
X161580392Y-132480392D01*
X161401068Y-132698899D01*
X161330000Y-132831858D01*
X161258932Y-132698899D01*
X161079608Y-132480392D01*
X160899566Y-132332635D01*
X165989499Y-127242702D01*
X166686903Y-127242702D01*
X166758486Y-127486671D01*
X167013996Y-127607571D01*
X167288184Y-127676300D01*
X167570512Y-127690217D01*
X167850130Y-127648787D01*
X168116292Y-127553603D01*
X168241514Y-127486671D01*
X168313097Y-127242702D01*
X167500000Y-126429605D01*
X166686903Y-127242702D01*
X165989499Y-127242702D01*
X166255443Y-126976759D01*
X166263329Y-126991514D01*
X166507298Y-127063097D01*
X167320395Y-126250000D01*
X167306253Y-126235858D01*
X167485858Y-126056253D01*
X167500000Y-126070395D01*
X167514143Y-126056253D01*
X167693748Y-126235858D01*
X167679605Y-126250000D01*
X168492702Y-127063097D01*
X168736671Y-126991514D01*
X168857571Y-126736004D01*
X168926300Y-126461816D01*
X168940217Y-126179488D01*
X168898787Y-125899870D01*
X168803603Y-125633708D01*
X168736671Y-125508486D01*
X168501049Y-125439352D01*
X169611302Y-124329100D01*
X169615639Y-124329100D01*
X169815598Y-124289326D01*
X170003956Y-124211305D01*
X170173474Y-124098037D01*
X170317637Y-123953874D01*
X170430905Y-123784356D01*
X170508926Y-123595998D01*
X170548700Y-123396039D01*
X170548700Y-123192161D01*
X170508926Y-122992202D01*
X170430905Y-122803844D01*
X170317637Y-122634326D01*
X170173474Y-122490163D01*
X170118715Y-122453574D01*
X172076989Y-120495300D01*
X172714068Y-120495300D01*
X172760000Y-120499824D01*
X172805932Y-120495300D01*
X172943292Y-120481771D01*
X173119540Y-120428307D01*
X173281972Y-120341486D01*
X173424344Y-120224644D01*
X173541186Y-120082272D01*
X173628007Y-119919840D01*
X173681471Y-119743592D01*
X173699524Y-119560300D01*
X173695000Y-119514368D01*
X173695000Y-119349044D01*
X173779608Y-119279608D01*
X173958932Y-119061101D01*
X174092182Y-118811808D01*
X174174236Y-118541309D01*
X174201943Y-118260000D01*
X174174236Y-117978691D01*
X174092182Y-117708192D01*
X173958932Y-117458899D01*
X173779608Y-117240392D01*
X173561101Y-117061068D01*
X173311808Y-116927818D01*
X173041309Y-116845764D01*
X172830492Y-116825000D01*
X172689508Y-116825000D01*
X172478691Y-116845764D01*
X172208192Y-116927818D01*
X172107000Y-116981906D01*
X172107000Y-112787933D01*
X172110677Y-112750600D01*
X172096003Y-112601614D01*
X172052546Y-112458353D01*
X171981974Y-112326324D01*
X171910799Y-112239597D01*
X171887001Y-112210599D01*
X171858003Y-112186801D01*
X171016248Y-111345047D01*
X171153000Y-111269915D01*
X171153000Y-110127000D01*
X171407000Y-110127000D01*
X171407000Y-111269915D01*
X171629039Y-111391904D01*
X171763087Y-111351246D01*
X172017420Y-111231037D01*
X172243414Y-111063519D01*
X172432385Y-110855131D01*
X172577070Y-110613881D01*
X172671909Y-110349040D01*
X172550624Y-110127000D01*
X171407000Y-110127000D01*
X171153000Y-110127000D01*
X171133000Y-110127000D01*
X171133000Y-109873000D01*
X171153000Y-109873000D01*
X171153000Y-108730085D01*
X171407000Y-108730085D01*
X171407000Y-109873000D01*
X172550624Y-109873000D01*
X172671909Y-109650960D01*
X172577070Y-109386119D01*
X172432385Y-109144869D01*
X172243414Y-108936481D01*
X172017420Y-108768963D01*
X171763087Y-108648754D01*
X171629039Y-108608096D01*
X171407000Y-108730085D01*
X171153000Y-108730085D01*
X170930961Y-108608096D01*
X170882500Y-108622795D01*
X170882500Y-107659301D01*
X177656401Y-100885401D01*
X177656400Y-120832798D01*
X177656400Y-120832798D01*
G37*
X177656400Y-120832798D02*
X166074299Y-132414900D01*
X165877420Y-132268963D01*
X165623087Y-132148754D01*
X165489039Y-132108096D01*
X165267000Y-132230085D01*
X165267000Y-133373000D01*
X165287000Y-133373000D01*
X165287000Y-133627000D01*
X165267000Y-133627000D01*
X165267000Y-133647000D01*
X165013000Y-133647000D01*
X165013000Y-133627000D01*
X164993000Y-133627000D01*
X164993000Y-133373000D01*
X165013000Y-133373000D01*
X165013000Y-132230085D01*
X164790961Y-132108096D01*
X164656913Y-132148754D01*
X164402580Y-132268963D01*
X164176586Y-132436481D01*
X163987615Y-132644869D01*
X163916320Y-132763748D01*
X163874286Y-132750997D01*
X163824139Y-132746058D01*
X163798932Y-132698899D01*
X163619608Y-132480392D01*
X163401101Y-132301068D01*
X163151808Y-132167818D01*
X162881309Y-132085764D01*
X162670492Y-132065000D01*
X162529508Y-132065000D01*
X162318691Y-132085764D01*
X162048192Y-132167818D01*
X161798899Y-132301068D01*
X161580392Y-132480392D01*
X161401068Y-132698899D01*
X161330000Y-132831858D01*
X161258932Y-132698899D01*
X161079608Y-132480392D01*
X160899566Y-132332635D01*
X165989499Y-127242702D01*
X166686903Y-127242702D01*
X166758486Y-127486671D01*
X167013996Y-127607571D01*
X167288184Y-127676300D01*
X167570512Y-127690217D01*
X167850130Y-127648787D01*
X168116292Y-127553603D01*
X168241514Y-127486671D01*
X168313097Y-127242702D01*
X167500000Y-126429605D01*
X166686903Y-127242702D01*
X165989499Y-127242702D01*
X166255443Y-126976759D01*
X166263329Y-126991514D01*
X166507298Y-127063097D01*
X167320395Y-126250000D01*
X167306253Y-126235858D01*
X167485858Y-126056253D01*
X167500000Y-126070395D01*
X167514143Y-126056253D01*
X167693748Y-126235858D01*
X167679605Y-126250000D01*
X168492702Y-127063097D01*
X168736671Y-126991514D01*
X168857571Y-126736004D01*
X168926300Y-126461816D01*
X168940217Y-126179488D01*
X168898787Y-125899870D01*
X168803603Y-125633708D01*
X168736671Y-125508486D01*
X168501049Y-125439352D01*
X169611302Y-124329100D01*
X169615639Y-124329100D01*
X169815598Y-124289326D01*
X170003956Y-124211305D01*
X170173474Y-124098037D01*
X170317637Y-123953874D01*
X170430905Y-123784356D01*
X170508926Y-123595998D01*
X170548700Y-123396039D01*
X170548700Y-123192161D01*
X170508926Y-122992202D01*
X170430905Y-122803844D01*
X170317637Y-122634326D01*
X170173474Y-122490163D01*
X170118715Y-122453574D01*
X172076989Y-120495300D01*
X172714068Y-120495300D01*
X172760000Y-120499824D01*
X172805932Y-120495300D01*
X172943292Y-120481771D01*
X173119540Y-120428307D01*
X173281972Y-120341486D01*
X173424344Y-120224644D01*
X173541186Y-120082272D01*
X173628007Y-119919840D01*
X173681471Y-119743592D01*
X173699524Y-119560300D01*
X173695000Y-119514368D01*
X173695000Y-119349044D01*
X173779608Y-119279608D01*
X173958932Y-119061101D01*
X174092182Y-118811808D01*
X174174236Y-118541309D01*
X174201943Y-118260000D01*
X174174236Y-117978691D01*
X174092182Y-117708192D01*
X173958932Y-117458899D01*
X173779608Y-117240392D01*
X173561101Y-117061068D01*
X173311808Y-116927818D01*
X173041309Y-116845764D01*
X172830492Y-116825000D01*
X172689508Y-116825000D01*
X172478691Y-116845764D01*
X172208192Y-116927818D01*
X172107000Y-116981906D01*
X172107000Y-112787933D01*
X172110677Y-112750600D01*
X172096003Y-112601614D01*
X172052546Y-112458353D01*
X171981974Y-112326324D01*
X171910799Y-112239597D01*
X171887001Y-112210599D01*
X171858003Y-112186801D01*
X171016248Y-111345047D01*
X171153000Y-111269915D01*
X171153000Y-110127000D01*
X171407000Y-110127000D01*
X171407000Y-111269915D01*
X171629039Y-111391904D01*
X171763087Y-111351246D01*
X172017420Y-111231037D01*
X172243414Y-111063519D01*
X172432385Y-110855131D01*
X172577070Y-110613881D01*
X172671909Y-110349040D01*
X172550624Y-110127000D01*
X171407000Y-110127000D01*
X171153000Y-110127000D01*
X171133000Y-110127000D01*
X171133000Y-109873000D01*
X171153000Y-109873000D01*
X171153000Y-108730085D01*
X171407000Y-108730085D01*
X171407000Y-109873000D01*
X172550624Y-109873000D01*
X172671909Y-109650960D01*
X172577070Y-109386119D01*
X172432385Y-109144869D01*
X172243414Y-108936481D01*
X172017420Y-108768963D01*
X171763087Y-108648754D01*
X171629039Y-108608096D01*
X171407000Y-108730085D01*
X171153000Y-108730085D01*
X170930961Y-108608096D01*
X170882500Y-108622795D01*
X170882500Y-107659301D01*
X177656401Y-100885401D01*
X177656400Y-120832798D01*
G36*
X184167000Y-123613000D02*
G01*
X184187000Y-123613000D01*
X184187000Y-123867000D01*
X184167000Y-123867000D01*
X184167000Y-123887000D01*
X183913000Y-123887000D01*
X183913000Y-123867000D01*
X183893000Y-123867000D01*
X183893000Y-123613000D01*
X183913000Y-123613000D01*
X183913000Y-123593000D01*
X184167000Y-123593000D01*
X184167000Y-123613000D01*
X184167000Y-123613000D01*
G37*
X184167000Y-123613000D02*
X184187000Y-123613000D01*
X184187000Y-123867000D01*
X184167000Y-123867000D01*
X184167000Y-123887000D01*
X183913000Y-123887000D01*
X183913000Y-123867000D01*
X183893000Y-123867000D01*
X183893000Y-123613000D01*
X183913000Y-123613000D01*
X183913000Y-123593000D01*
X184167000Y-123593000D01*
X184167000Y-123613000D01*
G36*
X144719200Y-103808702D02*
G01*
X144742999Y-103837701D01*
X144858724Y-103932674D01*
X144990753Y-104003246D01*
X145134014Y-104046703D01*
X145245667Y-104057700D01*
X145245675Y-104057700D01*
X145283000Y-104061376D01*
X145320325Y-104057700D01*
X148881474Y-104057700D01*
X148823700Y-104288184D01*
X148809783Y-104570512D01*
X148851213Y-104850130D01*
X148946397Y-105116292D01*
X149013329Y-105241514D01*
X149257298Y-105313097D01*
X150070395Y-104500000D01*
X150056253Y-104485858D01*
X150235858Y-104306253D01*
X150250000Y-104320395D01*
X150264143Y-104306253D01*
X150443748Y-104485858D01*
X150429605Y-104500000D01*
X151242702Y-105313097D01*
X151441900Y-105254650D01*
X151441901Y-111084568D01*
X151438224Y-111121900D01*
X151441901Y-111159233D01*
X151452898Y-111270886D01*
X151459996Y-111294285D01*
X151496354Y-111414146D01*
X151566926Y-111546176D01*
X151632463Y-111626032D01*
X151661900Y-111661901D01*
X151690898Y-111685699D01*
X156945269Y-116940071D01*
X156718899Y-117061068D01*
X156500392Y-117240392D01*
X156321068Y-117458899D01*
X156250000Y-117591858D01*
X156178932Y-117458899D01*
X155999608Y-117240392D01*
X155781101Y-117061068D01*
X155531808Y-116927818D01*
X155261309Y-116845764D01*
X155050492Y-116825000D01*
X154909508Y-116825000D01*
X154698691Y-116845764D01*
X154428192Y-116927818D01*
X154178899Y-117061068D01*
X153960392Y-117240392D01*
X153781068Y-117458899D01*
X153710000Y-117591858D01*
X153638932Y-117458899D01*
X153459608Y-117240392D01*
X153241101Y-117061068D01*
X152991808Y-116927818D01*
X152721309Y-116845764D01*
X152510492Y-116825000D01*
X152369508Y-116825000D01*
X152158691Y-116845764D01*
X151888192Y-116927818D01*
X151638899Y-117061068D01*
X151420392Y-117240392D01*
X151241068Y-117458899D01*
X151170000Y-117591858D01*
X151098932Y-117458899D01*
X150919608Y-117240392D01*
X150701101Y-117061068D01*
X150451808Y-116927818D01*
X150181309Y-116845764D01*
X149970492Y-116825000D01*
X149829508Y-116825000D01*
X149618691Y-116845764D01*
X149348192Y-116927818D01*
X149098899Y-117061068D01*
X148880392Y-117240392D01*
X148701068Y-117458899D01*
X148630000Y-117591858D01*
X148558932Y-117458899D01*
X148379608Y-117240392D01*
X148161101Y-117061068D01*
X147911808Y-116927818D01*
X147641309Y-116845764D01*
X147430492Y-116825000D01*
X147289508Y-116825000D01*
X147078691Y-116845764D01*
X146808192Y-116927818D01*
X146558899Y-117061068D01*
X146340392Y-117240392D01*
X146161068Y-117458899D01*
X146090000Y-117591858D01*
X146018932Y-117458899D01*
X145839608Y-117240392D01*
X145621101Y-117061068D01*
X145371808Y-116927818D01*
X145101309Y-116845764D01*
X144890492Y-116825000D01*
X144749508Y-116825000D01*
X144538691Y-116845764D01*
X144268192Y-116927818D01*
X144018899Y-117061068D01*
X143800392Y-117240392D01*
X143621068Y-117458899D01*
X143550000Y-117591858D01*
X143478932Y-117458899D01*
X143299608Y-117240392D01*
X143081101Y-117061068D01*
X142831808Y-116927818D01*
X142561309Y-116845764D01*
X142350492Y-116825000D01*
X142209508Y-116825000D01*
X141998691Y-116845764D01*
X141914700Y-116871242D01*
X141914700Y-116205701D01*
X142352202Y-115768199D01*
X142381201Y-115744401D01*
X142476174Y-115628676D01*
X142546746Y-115496647D01*
X142590203Y-115353386D01*
X142601200Y-115241733D01*
X142604877Y-115204400D01*
X142601200Y-115167067D01*
X142601200Y-111277649D01*
X142756913Y-111351246D01*
X142890961Y-111391904D01*
X143113000Y-111269915D01*
X143113000Y-110127000D01*
X143367000Y-110127000D01*
X143367000Y-111269915D01*
X143589039Y-111391904D01*
X143723087Y-111351246D01*
X143977420Y-111231037D01*
X144203414Y-111063519D01*
X144392385Y-110855131D01*
X144537070Y-110613881D01*
X144631909Y-110349040D01*
X144510624Y-110127000D01*
X143367000Y-110127000D01*
X143113000Y-110127000D01*
X143093000Y-110127000D01*
X143093000Y-109873000D01*
X143113000Y-109873000D01*
X143113000Y-108730085D01*
X143367000Y-108730085D01*
X143367000Y-109873000D01*
X144510624Y-109873000D01*
X144631909Y-109650960D01*
X144537070Y-109386119D01*
X144392385Y-109144869D01*
X144203414Y-108936481D01*
X143977420Y-108768963D01*
X143723087Y-108648754D01*
X143589039Y-108608096D01*
X143367000Y-108730085D01*
X143113000Y-108730085D01*
X142890961Y-108608096D01*
X142756913Y-108648754D01*
X142601200Y-108722351D01*
X142601200Y-105492702D01*
X149436903Y-105492702D01*
X149508486Y-105736671D01*
X149763996Y-105857571D01*
X150038184Y-105926300D01*
X150320512Y-105940217D01*
X150600130Y-105898787D01*
X150866292Y-105803603D01*
X150991514Y-105736671D01*
X151063097Y-105492702D01*
X150250000Y-104679605D01*
X149436903Y-105492702D01*
X142601200Y-105492702D01*
X142601200Y-103665684D01*
X142688192Y-103712182D01*
X142958691Y-103794236D01*
X143169508Y-103815000D01*
X143310492Y-103815000D01*
X143521309Y-103794236D01*
X143791808Y-103712182D01*
X144041101Y-103578932D01*
X144259608Y-103399608D01*
X144282370Y-103371872D01*
X144719200Y-103808702D01*
X144719200Y-103808702D01*
G37*
X144719200Y-103808702D02*
X144742999Y-103837701D01*
X144858724Y-103932674D01*
X144990753Y-104003246D01*
X145134014Y-104046703D01*
X145245667Y-104057700D01*
X145245675Y-104057700D01*
X145283000Y-104061376D01*
X145320325Y-104057700D01*
X148881474Y-104057700D01*
X148823700Y-104288184D01*
X148809783Y-104570512D01*
X148851213Y-104850130D01*
X148946397Y-105116292D01*
X149013329Y-105241514D01*
X149257298Y-105313097D01*
X150070395Y-104500000D01*
X150056253Y-104485858D01*
X150235858Y-104306253D01*
X150250000Y-104320395D01*
X150264143Y-104306253D01*
X150443748Y-104485858D01*
X150429605Y-104500000D01*
X151242702Y-105313097D01*
X151441900Y-105254650D01*
X151441901Y-111084568D01*
X151438224Y-111121900D01*
X151441901Y-111159233D01*
X151452898Y-111270886D01*
X151459996Y-111294285D01*
X151496354Y-111414146D01*
X151566926Y-111546176D01*
X151632463Y-111626032D01*
X151661900Y-111661901D01*
X151690898Y-111685699D01*
X156945269Y-116940071D01*
X156718899Y-117061068D01*
X156500392Y-117240392D01*
X156321068Y-117458899D01*
X156250000Y-117591858D01*
X156178932Y-117458899D01*
X155999608Y-117240392D01*
X155781101Y-117061068D01*
X155531808Y-116927818D01*
X155261309Y-116845764D01*
X155050492Y-116825000D01*
X154909508Y-116825000D01*
X154698691Y-116845764D01*
X154428192Y-116927818D01*
X154178899Y-117061068D01*
X153960392Y-117240392D01*
X153781068Y-117458899D01*
X153710000Y-117591858D01*
X153638932Y-117458899D01*
X153459608Y-117240392D01*
X153241101Y-117061068D01*
X152991808Y-116927818D01*
X152721309Y-116845764D01*
X152510492Y-116825000D01*
X152369508Y-116825000D01*
X152158691Y-116845764D01*
X151888192Y-116927818D01*
X151638899Y-117061068D01*
X151420392Y-117240392D01*
X151241068Y-117458899D01*
X151170000Y-117591858D01*
X151098932Y-117458899D01*
X150919608Y-117240392D01*
X150701101Y-117061068D01*
X150451808Y-116927818D01*
X150181309Y-116845764D01*
X149970492Y-116825000D01*
X149829508Y-116825000D01*
X149618691Y-116845764D01*
X149348192Y-116927818D01*
X149098899Y-117061068D01*
X148880392Y-117240392D01*
X148701068Y-117458899D01*
X148630000Y-117591858D01*
X148558932Y-117458899D01*
X148379608Y-117240392D01*
X148161101Y-117061068D01*
X147911808Y-116927818D01*
X147641309Y-116845764D01*
X147430492Y-116825000D01*
X147289508Y-116825000D01*
X147078691Y-116845764D01*
X146808192Y-116927818D01*
X146558899Y-117061068D01*
X146340392Y-117240392D01*
X146161068Y-117458899D01*
X146090000Y-117591858D01*
X146018932Y-117458899D01*
X145839608Y-117240392D01*
X145621101Y-117061068D01*
X145371808Y-116927818D01*
X145101309Y-116845764D01*
X144890492Y-116825000D01*
X144749508Y-116825000D01*
X144538691Y-116845764D01*
X144268192Y-116927818D01*
X144018899Y-117061068D01*
X143800392Y-117240392D01*
X143621068Y-117458899D01*
X143550000Y-117591858D01*
X143478932Y-117458899D01*
X143299608Y-117240392D01*
X143081101Y-117061068D01*
X142831808Y-116927818D01*
X142561309Y-116845764D01*
X142350492Y-116825000D01*
X142209508Y-116825000D01*
X141998691Y-116845764D01*
X141914700Y-116871242D01*
X141914700Y-116205701D01*
X142352202Y-115768199D01*
X142381201Y-115744401D01*
X142476174Y-115628676D01*
X142546746Y-115496647D01*
X142590203Y-115353386D01*
X142601200Y-115241733D01*
X142604877Y-115204400D01*
X142601200Y-115167067D01*
X142601200Y-111277649D01*
X142756913Y-111351246D01*
X142890961Y-111391904D01*
X143113000Y-111269915D01*
X143113000Y-110127000D01*
X143367000Y-110127000D01*
X143367000Y-111269915D01*
X143589039Y-111391904D01*
X143723087Y-111351246D01*
X143977420Y-111231037D01*
X144203414Y-111063519D01*
X144392385Y-110855131D01*
X144537070Y-110613881D01*
X144631909Y-110349040D01*
X144510624Y-110127000D01*
X143367000Y-110127000D01*
X143113000Y-110127000D01*
X143093000Y-110127000D01*
X143093000Y-109873000D01*
X143113000Y-109873000D01*
X143113000Y-108730085D01*
X143367000Y-108730085D01*
X143367000Y-109873000D01*
X144510624Y-109873000D01*
X144631909Y-109650960D01*
X144537070Y-109386119D01*
X144392385Y-109144869D01*
X144203414Y-108936481D01*
X143977420Y-108768963D01*
X143723087Y-108648754D01*
X143589039Y-108608096D01*
X143367000Y-108730085D01*
X143113000Y-108730085D01*
X142890961Y-108608096D01*
X142756913Y-108648754D01*
X142601200Y-108722351D01*
X142601200Y-105492702D01*
X149436903Y-105492702D01*
X149508486Y-105736671D01*
X149763996Y-105857571D01*
X150038184Y-105926300D01*
X150320512Y-105940217D01*
X150600130Y-105898787D01*
X150866292Y-105803603D01*
X150991514Y-105736671D01*
X151063097Y-105492702D01*
X150250000Y-104679605D01*
X149436903Y-105492702D01*
X142601200Y-105492702D01*
X142601200Y-103665684D01*
X142688192Y-103712182D01*
X142958691Y-103794236D01*
X143169508Y-103815000D01*
X143310492Y-103815000D01*
X143521309Y-103794236D01*
X143791808Y-103712182D01*
X144041101Y-103578932D01*
X144259608Y-103399608D01*
X144282370Y-103371872D01*
X144719200Y-103808702D01*
G36*
X126114601Y-103722669D02*
G01*
X125992702Y-103686903D01*
X125179605Y-104500000D01*
X125992702Y-105313097D01*
X126114601Y-105277331D01*
X126114600Y-114699578D01*
X126110924Y-114736900D01*
X126114600Y-114774222D01*
X126114600Y-114774232D01*
X126125597Y-114885885D01*
X126155649Y-114984954D01*
X126169054Y-115029146D01*
X126239626Y-115161176D01*
X126279471Y-115209726D01*
X126334599Y-115276901D01*
X126363603Y-115300704D01*
X127694701Y-116631803D01*
X127694701Y-116982815D01*
X127591808Y-116927818D01*
X127321309Y-116845764D01*
X127110492Y-116825000D01*
X126969508Y-116825000D01*
X126758691Y-116845764D01*
X126674700Y-116871242D01*
X126674700Y-115977825D01*
X126678376Y-115940500D01*
X126674700Y-115903175D01*
X126674700Y-115903167D01*
X126663703Y-115791514D01*
X126620246Y-115648253D01*
X126549674Y-115516224D01*
X126454701Y-115400499D01*
X126425703Y-115376701D01*
X124595300Y-113546299D01*
X124595300Y-105877951D01*
X124788184Y-105926300D01*
X125070512Y-105940217D01*
X125350130Y-105898787D01*
X125616292Y-105803603D01*
X125741514Y-105736671D01*
X125813097Y-105492702D01*
X125000000Y-104679605D01*
X124985858Y-104693748D01*
X124806253Y-104514143D01*
X124820395Y-104500000D01*
X124806253Y-104485858D01*
X124985858Y-104306253D01*
X125000000Y-104320395D01*
X125813097Y-103507298D01*
X125741514Y-103263329D01*
X125712659Y-103249676D01*
X125914759Y-103114637D01*
X126114601Y-102914795D01*
X126114601Y-103722669D01*
X126114601Y-103722669D01*
G37*
X126114601Y-103722669D02*
X125992702Y-103686903D01*
X125179605Y-104500000D01*
X125992702Y-105313097D01*
X126114601Y-105277331D01*
X126114600Y-114699578D01*
X126110924Y-114736900D01*
X126114600Y-114774222D01*
X126114600Y-114774232D01*
X126125597Y-114885885D01*
X126155649Y-114984954D01*
X126169054Y-115029146D01*
X126239626Y-115161176D01*
X126279471Y-115209726D01*
X126334599Y-115276901D01*
X126363603Y-115300704D01*
X127694701Y-116631803D01*
X127694701Y-116982815D01*
X127591808Y-116927818D01*
X127321309Y-116845764D01*
X127110492Y-116825000D01*
X126969508Y-116825000D01*
X126758691Y-116845764D01*
X126674700Y-116871242D01*
X126674700Y-115977825D01*
X126678376Y-115940500D01*
X126674700Y-115903175D01*
X126674700Y-115903167D01*
X126663703Y-115791514D01*
X126620246Y-115648253D01*
X126549674Y-115516224D01*
X126454701Y-115400499D01*
X126425703Y-115376701D01*
X124595300Y-113546299D01*
X124595300Y-105877951D01*
X124788184Y-105926300D01*
X125070512Y-105940217D01*
X125350130Y-105898787D01*
X125616292Y-105803603D01*
X125741514Y-105736671D01*
X125813097Y-105492702D01*
X125000000Y-104679605D01*
X124985858Y-104693748D01*
X124806253Y-104514143D01*
X124820395Y-104500000D01*
X124806253Y-104485858D01*
X124985858Y-104306253D01*
X125000000Y-104320395D01*
X125813097Y-103507298D01*
X125741514Y-103263329D01*
X125712659Y-103249676D01*
X125914759Y-103114637D01*
X126114601Y-102914795D01*
X126114601Y-103722669D01*
G36*
X127175026Y-90284276D02*
G01*
X127209388Y-90326146D01*
X127269999Y-90400001D01*
X127299003Y-90423804D01*
X128823833Y-91948635D01*
X128795000Y-92093589D01*
X128795000Y-92366411D01*
X128848225Y-92633989D01*
X128952629Y-92886043D01*
X129104201Y-93112886D01*
X129297114Y-93305799D01*
X129523957Y-93457371D01*
X129776011Y-93561775D01*
X130043589Y-93615000D01*
X130316411Y-93615000D01*
X130583989Y-93561775D01*
X130836043Y-93457371D01*
X131062886Y-93305799D01*
X131177800Y-93190885D01*
X131177801Y-101101878D01*
X131023087Y-101028754D01*
X130889039Y-100988096D01*
X130667000Y-101110085D01*
X130667000Y-102253000D01*
X130687000Y-102253000D01*
X130687000Y-102507000D01*
X130667000Y-102507000D01*
X130667000Y-103649915D01*
X130889039Y-103771904D01*
X131023087Y-103731246D01*
X131177801Y-103658121D01*
X131177801Y-108713782D01*
X131091808Y-108667818D01*
X130821309Y-108585764D01*
X130610492Y-108565000D01*
X130469508Y-108565000D01*
X130258691Y-108585764D01*
X129988192Y-108667818D01*
X129885400Y-108722762D01*
X129885400Y-103650181D01*
X130056913Y-103731246D01*
X130190961Y-103771904D01*
X130413000Y-103649915D01*
X130413000Y-102507000D01*
X130393000Y-102507000D01*
X130393000Y-102253000D01*
X130413000Y-102253000D01*
X130413000Y-101110085D01*
X130190961Y-100988096D01*
X130056913Y-101028754D01*
X129885400Y-101109819D01*
X129885400Y-97117025D01*
X129889076Y-97079700D01*
X129885400Y-97042375D01*
X129885400Y-97042367D01*
X129874403Y-96930714D01*
X129830946Y-96787453D01*
X129760374Y-96655424D01*
X129665401Y-96539699D01*
X129636404Y-96515902D01*
X127135300Y-94014799D01*
X127135300Y-90209954D01*
X127175026Y-90284276D01*
X127175026Y-90284276D01*
G37*
X127175026Y-90284276D02*
X127209388Y-90326146D01*
X127269999Y-90400001D01*
X127299003Y-90423804D01*
X128823833Y-91948635D01*
X128795000Y-92093589D01*
X128795000Y-92366411D01*
X128848225Y-92633989D01*
X128952629Y-92886043D01*
X129104201Y-93112886D01*
X129297114Y-93305799D01*
X129523957Y-93457371D01*
X129776011Y-93561775D01*
X130043589Y-93615000D01*
X130316411Y-93615000D01*
X130583989Y-93561775D01*
X130836043Y-93457371D01*
X131062886Y-93305799D01*
X131177800Y-93190885D01*
X131177801Y-101101878D01*
X131023087Y-101028754D01*
X130889039Y-100988096D01*
X130667000Y-101110085D01*
X130667000Y-102253000D01*
X130687000Y-102253000D01*
X130687000Y-102507000D01*
X130667000Y-102507000D01*
X130667000Y-103649915D01*
X130889039Y-103771904D01*
X131023087Y-103731246D01*
X131177801Y-103658121D01*
X131177801Y-108713782D01*
X131091808Y-108667818D01*
X130821309Y-108585764D01*
X130610492Y-108565000D01*
X130469508Y-108565000D01*
X130258691Y-108585764D01*
X129988192Y-108667818D01*
X129885400Y-108722762D01*
X129885400Y-103650181D01*
X130056913Y-103731246D01*
X130190961Y-103771904D01*
X130413000Y-103649915D01*
X130413000Y-102507000D01*
X130393000Y-102507000D01*
X130393000Y-102253000D01*
X130413000Y-102253000D01*
X130413000Y-101110085D01*
X130190961Y-100988096D01*
X130056913Y-101028754D01*
X129885400Y-101109819D01*
X129885400Y-97117025D01*
X129889076Y-97079700D01*
X129885400Y-97042375D01*
X129885400Y-97042367D01*
X129874403Y-96930714D01*
X129830946Y-96787453D01*
X129760374Y-96655424D01*
X129665401Y-96539699D01*
X129636404Y-96515902D01*
X127135300Y-94014799D01*
X127135300Y-90209954D01*
X127175026Y-90284276D01*
G36*
X133823996Y-88087571D02*
G01*
X134098184Y-88156300D01*
X134380512Y-88170217D01*
X134660130Y-88128787D01*
X134924600Y-88034208D01*
X134924600Y-90845000D01*
X134923589Y-90845000D01*
X134656011Y-90898225D01*
X134403957Y-91002629D01*
X134177114Y-91154201D01*
X133984201Y-91347114D01*
X133832629Y-91573957D01*
X133728225Y-91826011D01*
X133675000Y-92093589D01*
X133675000Y-92366411D01*
X133728225Y-92633989D01*
X133832629Y-92886043D01*
X133984201Y-93112886D01*
X134177114Y-93305799D01*
X134403957Y-93457371D01*
X134656011Y-93561775D01*
X134923589Y-93615000D01*
X135196411Y-93615000D01*
X135463989Y-93561775D01*
X135716043Y-93457371D01*
X135862801Y-93359310D01*
X135862800Y-100950078D01*
X135859124Y-100987400D01*
X135862800Y-101024722D01*
X135862800Y-101024732D01*
X135864831Y-101045348D01*
X135747000Y-101110085D01*
X135747000Y-102253000D01*
X135767000Y-102253000D01*
X135767000Y-102507000D01*
X135747000Y-102507000D01*
X135747000Y-103649915D01*
X135969039Y-103771904D01*
X136025101Y-103754900D01*
X136025101Y-108623315D01*
X135901309Y-108585764D01*
X135690492Y-108565000D01*
X135549508Y-108565000D01*
X135338691Y-108585764D01*
X135068192Y-108667818D01*
X134979400Y-108715278D01*
X134979400Y-103656798D01*
X135136913Y-103731246D01*
X135270961Y-103771904D01*
X135493000Y-103649915D01*
X135493000Y-102507000D01*
X135473000Y-102507000D01*
X135473000Y-102253000D01*
X135493000Y-102253000D01*
X135493000Y-101110085D01*
X135270961Y-100988096D01*
X135136913Y-101028754D01*
X134982801Y-101101594D01*
X134983076Y-101098799D01*
X134979400Y-101061476D01*
X134979400Y-101061467D01*
X134968403Y-100949814D01*
X134924946Y-100806553D01*
X134854374Y-100674524D01*
X134826874Y-100641015D01*
X134783199Y-100587796D01*
X134783195Y-100587792D01*
X134759401Y-100558799D01*
X134730408Y-100535005D01*
X133580000Y-99384599D01*
X133580000Y-87972119D01*
X133823996Y-88087571D01*
X133823996Y-88087571D01*
G37*
X133823996Y-88087571D02*
X134098184Y-88156300D01*
X134380512Y-88170217D01*
X134660130Y-88128787D01*
X134924600Y-88034208D01*
X134924600Y-90845000D01*
X134923589Y-90845000D01*
X134656011Y-90898225D01*
X134403957Y-91002629D01*
X134177114Y-91154201D01*
X133984201Y-91347114D01*
X133832629Y-91573957D01*
X133728225Y-91826011D01*
X133675000Y-92093589D01*
X133675000Y-92366411D01*
X133728225Y-92633989D01*
X133832629Y-92886043D01*
X133984201Y-93112886D01*
X134177114Y-93305799D01*
X134403957Y-93457371D01*
X134656011Y-93561775D01*
X134923589Y-93615000D01*
X135196411Y-93615000D01*
X135463989Y-93561775D01*
X135716043Y-93457371D01*
X135862801Y-93359310D01*
X135862800Y-100950078D01*
X135859124Y-100987400D01*
X135862800Y-101024722D01*
X135862800Y-101024732D01*
X135864831Y-101045348D01*
X135747000Y-101110085D01*
X135747000Y-102253000D01*
X135767000Y-102253000D01*
X135767000Y-102507000D01*
X135747000Y-102507000D01*
X135747000Y-103649915D01*
X135969039Y-103771904D01*
X136025101Y-103754900D01*
X136025101Y-108623315D01*
X135901309Y-108585764D01*
X135690492Y-108565000D01*
X135549508Y-108565000D01*
X135338691Y-108585764D01*
X135068192Y-108667818D01*
X134979400Y-108715278D01*
X134979400Y-103656798D01*
X135136913Y-103731246D01*
X135270961Y-103771904D01*
X135493000Y-103649915D01*
X135493000Y-102507000D01*
X135473000Y-102507000D01*
X135473000Y-102253000D01*
X135493000Y-102253000D01*
X135493000Y-101110085D01*
X135270961Y-100988096D01*
X135136913Y-101028754D01*
X134982801Y-101101594D01*
X134983076Y-101098799D01*
X134979400Y-101061476D01*
X134979400Y-101061467D01*
X134968403Y-100949814D01*
X134924946Y-100806553D01*
X134854374Y-100674524D01*
X134826874Y-100641015D01*
X134783199Y-100587796D01*
X134783195Y-100587792D01*
X134759401Y-100558799D01*
X134730408Y-100535005D01*
X133580000Y-99384599D01*
X133580000Y-87972119D01*
X133823996Y-88087571D01*
G36*
X184167000Y-96613000D02*
G01*
X184187000Y-96613000D01*
X184187000Y-96867000D01*
X184167000Y-96867000D01*
X184167000Y-98060814D01*
X184396891Y-98181481D01*
X184455300Y-98160762D01*
X184455300Y-107074160D01*
X184331111Y-107036487D01*
X184112950Y-107015000D01*
X183967050Y-107015000D01*
X183748889Y-107036487D01*
X183468966Y-107121401D01*
X183210986Y-107259294D01*
X182984866Y-107444866D01*
X182960393Y-107474687D01*
X182939502Y-107405820D01*
X182880537Y-107295506D01*
X182801185Y-107198815D01*
X182704494Y-107119463D01*
X182594180Y-107060498D01*
X182474482Y-107024188D01*
X182350000Y-107011928D01*
X181084600Y-107011928D01*
X181084600Y-99827989D01*
X182128664Y-98783926D01*
X182164344Y-98754644D01*
X182281186Y-98612272D01*
X182368007Y-98449840D01*
X182421471Y-98273592D01*
X182435000Y-98136232D01*
X182439524Y-98090300D01*
X182435000Y-98044368D01*
X182435000Y-97893725D01*
X182555134Y-97795134D01*
X182740706Y-97569014D01*
X182771584Y-97511244D01*
X182942412Y-97740269D01*
X183158645Y-97935178D01*
X183408748Y-98084157D01*
X183683109Y-98181481D01*
X183913000Y-98060814D01*
X183913000Y-96867000D01*
X183893000Y-96867000D01*
X183893000Y-96613000D01*
X183913000Y-96613000D01*
X183913000Y-96593000D01*
X184167000Y-96593000D01*
X184167000Y-96613000D01*
X184167000Y-96613000D01*
G37*
X184167000Y-96613000D02*
X184187000Y-96613000D01*
X184187000Y-96867000D01*
X184167000Y-96867000D01*
X184167000Y-98060814D01*
X184396891Y-98181481D01*
X184455300Y-98160762D01*
X184455300Y-107074160D01*
X184331111Y-107036487D01*
X184112950Y-107015000D01*
X183967050Y-107015000D01*
X183748889Y-107036487D01*
X183468966Y-107121401D01*
X183210986Y-107259294D01*
X182984866Y-107444866D01*
X182960393Y-107474687D01*
X182939502Y-107405820D01*
X182880537Y-107295506D01*
X182801185Y-107198815D01*
X182704494Y-107119463D01*
X182594180Y-107060498D01*
X182474482Y-107024188D01*
X182350000Y-107011928D01*
X181084600Y-107011928D01*
X181084600Y-99827989D01*
X182128664Y-98783926D01*
X182164344Y-98754644D01*
X182281186Y-98612272D01*
X182368007Y-98449840D01*
X182421471Y-98273592D01*
X182435000Y-98136232D01*
X182439524Y-98090300D01*
X182435000Y-98044368D01*
X182435000Y-97893725D01*
X182555134Y-97795134D01*
X182740706Y-97569014D01*
X182771584Y-97511244D01*
X182942412Y-97740269D01*
X183158645Y-97935178D01*
X183408748Y-98084157D01*
X183683109Y-98181481D01*
X183913000Y-98060814D01*
X183913000Y-96867000D01*
X183893000Y-96867000D01*
X183893000Y-96613000D01*
X183913000Y-96613000D01*
X183913000Y-96593000D01*
X184167000Y-96593000D01*
X184167000Y-96613000D01*
G36*
X185840000Y-88113199D02*
G01*
X185215396Y-87488595D01*
X185280706Y-87409014D01*
X185418599Y-87151034D01*
X185503513Y-86871111D01*
X185532185Y-86580000D01*
X185503513Y-86288889D01*
X185418599Y-86008966D01*
X185280706Y-85750986D01*
X185095134Y-85524866D01*
X184869014Y-85339294D01*
X184814209Y-85310000D01*
X184869014Y-85280706D01*
X185095134Y-85095134D01*
X185280706Y-84869014D01*
X185418599Y-84611034D01*
X185503513Y-84331111D01*
X185532185Y-84040000D01*
X185503513Y-83748889D01*
X185418599Y-83468966D01*
X185280706Y-83210986D01*
X185095134Y-82984866D01*
X184869014Y-82799294D01*
X184814209Y-82770000D01*
X184869014Y-82740706D01*
X185095134Y-82555134D01*
X185280706Y-82329014D01*
X185418599Y-82071034D01*
X185503513Y-81791111D01*
X185532185Y-81500000D01*
X185503513Y-81208889D01*
X185418599Y-80928966D01*
X185280706Y-80670986D01*
X185095134Y-80444866D01*
X184869014Y-80259294D01*
X184611034Y-80121401D01*
X184331111Y-80036487D01*
X184112950Y-80015000D01*
X183967050Y-80015000D01*
X183748889Y-80036487D01*
X183468966Y-80121401D01*
X183426123Y-80144301D01*
X183404701Y-80118199D01*
X183375698Y-80094397D01*
X183094904Y-79813603D01*
X183071101Y-79784599D01*
X182955376Y-79689626D01*
X182823347Y-79619054D01*
X182680086Y-79575597D01*
X182568433Y-79564600D01*
X182568422Y-79564600D01*
X182531100Y-79560924D01*
X182493778Y-79564600D01*
X180547422Y-79564600D01*
X180510099Y-79560924D01*
X180472776Y-79564600D01*
X180472767Y-79564600D01*
X180361114Y-79575597D01*
X180217853Y-79619054D01*
X180085823Y-79689626D01*
X180002183Y-79758268D01*
X179970099Y-79784599D01*
X179946301Y-79813597D01*
X175182498Y-84577401D01*
X175153500Y-84601199D01*
X175129702Y-84630197D01*
X175129701Y-84630198D01*
X175058526Y-84716924D01*
X174987954Y-84848954D01*
X174978537Y-84880000D01*
X174944498Y-84992214D01*
X174937497Y-85063292D01*
X174929824Y-85141200D01*
X174933501Y-85178532D01*
X174933500Y-99249798D01*
X172522636Y-101660663D01*
X172478932Y-101578899D01*
X172299608Y-101360392D01*
X172081101Y-101181068D01*
X172040000Y-101159099D01*
X172040000Y-90122622D01*
X172043676Y-90085299D01*
X172040000Y-90047976D01*
X172040000Y-90047967D01*
X172029003Y-89936314D01*
X171985546Y-89793053D01*
X171914974Y-89661024D01*
X171820001Y-89545299D01*
X171791003Y-89521501D01*
X170639936Y-88370434D01*
X170695134Y-88325134D01*
X170880706Y-88099014D01*
X171018599Y-87841034D01*
X171103513Y-87561111D01*
X171132185Y-87270000D01*
X171103513Y-86978889D01*
X171018599Y-86698966D01*
X170880706Y-86440986D01*
X170695134Y-86214866D01*
X170469014Y-86029294D01*
X170414209Y-86000000D01*
X170469014Y-85970706D01*
X170695134Y-85785134D01*
X170880706Y-85559014D01*
X171018599Y-85301034D01*
X171103513Y-85021111D01*
X171132185Y-84730000D01*
X171103513Y-84438889D01*
X171018599Y-84158966D01*
X170880706Y-83900986D01*
X170695134Y-83674866D01*
X170469014Y-83489294D01*
X170211034Y-83351401D01*
X169931111Y-83266487D01*
X169712950Y-83245000D01*
X169567050Y-83245000D01*
X169348889Y-83266487D01*
X169068966Y-83351401D01*
X168810986Y-83489294D01*
X168584866Y-83674866D01*
X168399294Y-83900986D01*
X168370000Y-83955791D01*
X168340706Y-83900986D01*
X168155134Y-83674866D01*
X167929014Y-83489294D01*
X167671034Y-83351401D01*
X167391111Y-83266487D01*
X167172950Y-83245000D01*
X167027050Y-83245000D01*
X166808889Y-83266487D01*
X166528966Y-83351401D01*
X166270986Y-83489294D01*
X166044866Y-83674866D01*
X165859294Y-83900986D01*
X165830000Y-83955791D01*
X165800706Y-83900986D01*
X165615134Y-83674866D01*
X165389014Y-83489294D01*
X165131034Y-83351401D01*
X164851111Y-83266487D01*
X164632950Y-83245000D01*
X164487050Y-83245000D01*
X164268889Y-83266487D01*
X163988966Y-83351401D01*
X163730986Y-83489294D01*
X163504866Y-83674866D01*
X163319294Y-83900986D01*
X163290000Y-83955791D01*
X163260706Y-83900986D01*
X163075134Y-83674866D01*
X162849014Y-83489294D01*
X162591034Y-83351401D01*
X162311111Y-83266487D01*
X162092950Y-83245000D01*
X161947050Y-83245000D01*
X161728889Y-83266487D01*
X161448966Y-83351401D01*
X161190986Y-83489294D01*
X160964866Y-83674866D01*
X160779294Y-83900986D01*
X160641401Y-84158966D01*
X160556487Y-84438889D01*
X160527815Y-84730000D01*
X160556487Y-85021111D01*
X160641401Y-85301034D01*
X160674577Y-85363101D01*
X160671899Y-85365299D01*
X160648096Y-85394303D01*
X160519655Y-85522744D01*
X160484001Y-85479299D01*
X160455004Y-85455502D01*
X151599935Y-76600434D01*
X151655134Y-76555134D01*
X151840706Y-76329014D01*
X151870000Y-76274209D01*
X151899294Y-76329014D01*
X152084866Y-76555134D01*
X152310986Y-76740706D01*
X152568966Y-76878599D01*
X152848889Y-76963513D01*
X153067050Y-76985000D01*
X153212950Y-76985000D01*
X153431111Y-76963513D01*
X153711034Y-76878599D01*
X153969014Y-76740706D01*
X154195134Y-76555134D01*
X154380706Y-76329014D01*
X154410000Y-76274209D01*
X154439294Y-76329014D01*
X154624866Y-76555134D01*
X154850986Y-76740706D01*
X155108966Y-76878599D01*
X155388889Y-76963513D01*
X155607050Y-76985000D01*
X155752950Y-76985000D01*
X155971111Y-76963513D01*
X156251034Y-76878599D01*
X156509014Y-76740706D01*
X156735134Y-76555134D01*
X156920706Y-76329014D01*
X156950000Y-76274209D01*
X156979294Y-76329014D01*
X157164866Y-76555134D01*
X157390986Y-76740706D01*
X157648966Y-76878599D01*
X157928889Y-76963513D01*
X158147050Y-76985000D01*
X158292950Y-76985000D01*
X158511111Y-76963513D01*
X158791034Y-76878599D01*
X159049014Y-76740706D01*
X159275134Y-76555134D01*
X159460706Y-76329014D01*
X159490000Y-76274209D01*
X159519294Y-76329014D01*
X159704866Y-76555134D01*
X159930986Y-76740706D01*
X160188966Y-76878599D01*
X160468889Y-76963513D01*
X160687050Y-76985000D01*
X160832950Y-76985000D01*
X161051111Y-76963513D01*
X161331034Y-76878599D01*
X161589014Y-76740706D01*
X161815134Y-76555134D01*
X162000706Y-76329014D01*
X162138599Y-76071034D01*
X162223513Y-75791111D01*
X162252185Y-75500000D01*
X162223513Y-75208889D01*
X162138599Y-74928966D01*
X162000706Y-74670986D01*
X161815134Y-74444866D01*
X161589014Y-74259294D01*
X161534209Y-74230000D01*
X161589014Y-74200706D01*
X161815134Y-74015134D01*
X162000706Y-73789014D01*
X162138599Y-73531034D01*
X162223513Y-73251111D01*
X162252185Y-72960000D01*
X162223513Y-72668889D01*
X162138599Y-72388966D01*
X162000706Y-72130986D01*
X161815134Y-71904866D01*
X161589014Y-71719294D01*
X161331034Y-71581401D01*
X161051111Y-71496487D01*
X160832950Y-71475000D01*
X160687050Y-71475000D01*
X160468889Y-71496487D01*
X160188966Y-71581401D01*
X159930986Y-71719294D01*
X159704866Y-71904866D01*
X159519294Y-72130986D01*
X159490000Y-72185791D01*
X159460706Y-72130986D01*
X159275134Y-71904866D01*
X159049014Y-71719294D01*
X158791034Y-71581401D01*
X158511111Y-71496487D01*
X158292950Y-71475000D01*
X158147050Y-71475000D01*
X157928889Y-71496487D01*
X157648966Y-71581401D01*
X157390986Y-71719294D01*
X157164866Y-71904866D01*
X156979294Y-72130986D01*
X156950000Y-72185791D01*
X156920706Y-72130986D01*
X156735134Y-71904866D01*
X156509014Y-71719294D01*
X156251034Y-71581401D01*
X155971111Y-71496487D01*
X155752950Y-71475000D01*
X155607050Y-71475000D01*
X155388889Y-71496487D01*
X155108966Y-71581401D01*
X154850986Y-71719294D01*
X154624866Y-71904866D01*
X154439294Y-72130986D01*
X154410000Y-72185791D01*
X154380706Y-72130986D01*
X154195134Y-71904866D01*
X153969014Y-71719294D01*
X153711034Y-71581401D01*
X153431111Y-71496487D01*
X153212950Y-71475000D01*
X153067050Y-71475000D01*
X152848889Y-71496487D01*
X152568966Y-71581401D01*
X152310986Y-71719294D01*
X152084866Y-71904866D01*
X151899294Y-72130986D01*
X151870000Y-72185791D01*
X151840706Y-72130986D01*
X151655134Y-71904866D01*
X151429014Y-71719294D01*
X151171034Y-71581401D01*
X150891111Y-71496487D01*
X150672950Y-71475000D01*
X150527050Y-71475000D01*
X150308889Y-71496487D01*
X150028966Y-71581401D01*
X149770986Y-71719294D01*
X149544866Y-71904866D01*
X149359294Y-72130986D01*
X149330000Y-72185791D01*
X149300706Y-72130986D01*
X149115134Y-71904866D01*
X148889014Y-71719294D01*
X148631034Y-71581401D01*
X148351111Y-71496487D01*
X148132950Y-71475000D01*
X147987050Y-71475000D01*
X147768889Y-71496487D01*
X147488966Y-71581401D01*
X147230986Y-71719294D01*
X147004866Y-71904866D01*
X146819294Y-72130986D01*
X146790000Y-72185791D01*
X146760706Y-72130986D01*
X146575134Y-71904866D01*
X146349014Y-71719294D01*
X146091034Y-71581401D01*
X145811111Y-71496487D01*
X145592950Y-71475000D01*
X145447050Y-71475000D01*
X145228889Y-71496487D01*
X144948966Y-71581401D01*
X144690986Y-71719294D01*
X144464866Y-71904866D01*
X144279294Y-72130986D01*
X144250000Y-72185791D01*
X144220706Y-72130986D01*
X144035134Y-71904866D01*
X143809014Y-71719294D01*
X143551034Y-71581401D01*
X143271111Y-71496487D01*
X143052950Y-71475000D01*
X142907050Y-71475000D01*
X142688889Y-71496487D01*
X142408966Y-71581401D01*
X142150986Y-71719294D01*
X141924866Y-71904866D01*
X141739294Y-72130986D01*
X141710000Y-72185791D01*
X141680706Y-72130986D01*
X141495134Y-71904866D01*
X141269014Y-71719294D01*
X141011034Y-71581401D01*
X140731111Y-71496487D01*
X140512950Y-71475000D01*
X140367050Y-71475000D01*
X140148889Y-71496487D01*
X139868966Y-71581401D01*
X139610986Y-71719294D01*
X139384866Y-71904866D01*
X139199294Y-72130986D01*
X139170000Y-72185791D01*
X139140706Y-72130986D01*
X138955134Y-71904866D01*
X138729014Y-71719294D01*
X138471034Y-71581401D01*
X138191111Y-71496487D01*
X137972950Y-71475000D01*
X137827050Y-71475000D01*
X137608889Y-71496487D01*
X137328966Y-71581401D01*
X137070986Y-71719294D01*
X136960428Y-71810027D01*
X136416503Y-71266102D01*
X136392701Y-71237099D01*
X136276976Y-71142126D01*
X136144947Y-71071554D01*
X136001686Y-71028097D01*
X135890033Y-71017100D01*
X135890022Y-71017100D01*
X135852700Y-71013424D01*
X135815378Y-71017100D01*
X132308233Y-71017100D01*
X132270900Y-71013423D01*
X132233567Y-71017100D01*
X132121914Y-71028097D01*
X131978653Y-71071554D01*
X131846624Y-71142126D01*
X131730899Y-71237099D01*
X131707101Y-71266098D01*
X131188595Y-71784604D01*
X131109014Y-71719294D01*
X130851034Y-71581401D01*
X130571111Y-71496487D01*
X130352950Y-71475000D01*
X130207050Y-71475000D01*
X129988889Y-71496487D01*
X129708966Y-71581401D01*
X129450986Y-71719294D01*
X129224866Y-71904866D01*
X129039294Y-72130986D01*
X129010000Y-72185791D01*
X128980706Y-72130986D01*
X128795134Y-71904866D01*
X128569014Y-71719294D01*
X128311034Y-71581401D01*
X128031111Y-71496487D01*
X127812950Y-71475000D01*
X127667050Y-71475000D01*
X127448889Y-71496487D01*
X127168966Y-71581401D01*
X126910986Y-71719294D01*
X126831406Y-71784604D01*
X126303303Y-71256502D01*
X126279501Y-71227499D01*
X126163776Y-71132526D01*
X126031747Y-71061954D01*
X125888486Y-71018497D01*
X125776833Y-71007500D01*
X125776822Y-71007500D01*
X125739500Y-71003824D01*
X125702178Y-71007500D01*
X122125723Y-71007500D01*
X122088400Y-71003824D01*
X122051077Y-71007500D01*
X122051067Y-71007500D01*
X121939414Y-71018497D01*
X121796153Y-71061954D01*
X121664123Y-71132526D01*
X121580483Y-71201168D01*
X121548399Y-71227499D01*
X121524600Y-71256498D01*
X121010964Y-71770135D01*
X120949014Y-71719294D01*
X120691034Y-71581401D01*
X120411111Y-71496487D01*
X120192950Y-71475000D01*
X120047050Y-71475000D01*
X119828889Y-71496487D01*
X119548966Y-71581401D01*
X119290986Y-71719294D01*
X119064866Y-71904866D01*
X118879294Y-72130986D01*
X118850000Y-72185791D01*
X118820706Y-72130986D01*
X118635134Y-71904866D01*
X118409014Y-71719294D01*
X118151034Y-71581401D01*
X117871111Y-71496487D01*
X117652950Y-71475000D01*
X117507050Y-71475000D01*
X117288889Y-71496487D01*
X117008966Y-71581401D01*
X116750986Y-71719294D01*
X116524866Y-71904866D01*
X116339294Y-72130986D01*
X116304799Y-72195523D01*
X116235178Y-72078645D01*
X116040269Y-71862412D01*
X115806920Y-71688359D01*
X115544099Y-71563175D01*
X115396890Y-71518524D01*
X115167000Y-71639845D01*
X115167000Y-72833000D01*
X115187000Y-72833000D01*
X115187000Y-73087000D01*
X115167000Y-73087000D01*
X115167000Y-73107000D01*
X114913000Y-73107000D01*
X114913000Y-73087000D01*
X112627000Y-73087000D01*
X112627000Y-73107000D01*
X112373000Y-73107000D01*
X112373000Y-73087000D01*
X111179186Y-73087000D01*
X111058519Y-73316891D01*
X111155843Y-73591252D01*
X111304822Y-73841355D01*
X111481626Y-74037502D01*
X111405820Y-74060498D01*
X111295506Y-74119463D01*
X111198815Y-74198815D01*
X111119463Y-74295506D01*
X111060498Y-74405820D01*
X111024188Y-74525518D01*
X111019482Y-74573302D01*
X110966408Y-74578529D01*
X110790160Y-74631993D01*
X110627728Y-74718814D01*
X110485356Y-74835656D01*
X110456070Y-74871341D01*
X108262411Y-77065000D01*
X107387289Y-77065000D01*
X105435000Y-75112711D01*
X105435000Y-74858665D01*
X105379853Y-74581426D01*
X105271680Y-74320273D01*
X105114637Y-74085241D01*
X104914759Y-73885363D01*
X104679727Y-73728320D01*
X104418574Y-73620147D01*
X104141335Y-73565000D01*
X103858665Y-73565000D01*
X103581426Y-73620147D01*
X103320273Y-73728320D01*
X103085241Y-73885363D01*
X102918661Y-74051943D01*
X102889502Y-73955820D01*
X102830537Y-73845506D01*
X102751185Y-73748815D01*
X102654494Y-73669463D01*
X102544180Y-73610498D01*
X102424482Y-73574188D01*
X102300000Y-73561928D01*
X101785750Y-73565000D01*
X101627000Y-73723750D01*
X101627000Y-74873000D01*
X101647000Y-74873000D01*
X101647000Y-75127000D01*
X101627000Y-75127000D01*
X101627000Y-76276250D01*
X101785750Y-76435000D01*
X102300000Y-76438072D01*
X102424482Y-76425812D01*
X102544180Y-76389502D01*
X102654494Y-76330537D01*
X102751185Y-76251185D01*
X102830537Y-76154494D01*
X102889502Y-76044180D01*
X102918661Y-75948057D01*
X103085241Y-76114637D01*
X103320273Y-76271680D01*
X103581426Y-76379853D01*
X103858665Y-76435000D01*
X104112711Y-76435000D01*
X106050711Y-78373000D01*
X87160000Y-78373000D01*
X87160000Y-75800000D01*
X100061928Y-75800000D01*
X100074188Y-75924482D01*
X100110498Y-76044180D01*
X100169463Y-76154494D01*
X100248815Y-76251185D01*
X100345506Y-76330537D01*
X100455820Y-76389502D01*
X100575518Y-76425812D01*
X100700000Y-76438072D01*
X101214250Y-76435000D01*
X101373000Y-76276250D01*
X101373000Y-75127000D01*
X100223750Y-75127000D01*
X100065000Y-75285750D01*
X100061928Y-75800000D01*
X87160000Y-75800000D01*
X87160000Y-74200000D01*
X100061928Y-74200000D01*
X100065000Y-74714250D01*
X100223750Y-74873000D01*
X101373000Y-74873000D01*
X101373000Y-73723750D01*
X101214250Y-73565000D01*
X100700000Y-73561928D01*
X100575518Y-73574188D01*
X100455820Y-73610498D01*
X100345506Y-73669463D01*
X100248815Y-73748815D01*
X100169463Y-73845506D01*
X100110498Y-73955820D01*
X100074188Y-74075518D01*
X100061928Y-74200000D01*
X87160000Y-74200000D01*
X87160000Y-72603109D01*
X111058519Y-72603109D01*
X111179186Y-72833000D01*
X112373000Y-72833000D01*
X112373000Y-71639845D01*
X112627000Y-71639845D01*
X112627000Y-72833000D01*
X114913000Y-72833000D01*
X114913000Y-71639845D01*
X114683110Y-71518524D01*
X114535901Y-71563175D01*
X114273080Y-71688359D01*
X114039731Y-71862412D01*
X113844822Y-72078645D01*
X113770000Y-72204255D01*
X113695178Y-72078645D01*
X113500269Y-71862412D01*
X113266920Y-71688359D01*
X113004099Y-71563175D01*
X112856890Y-71518524D01*
X112627000Y-71639845D01*
X112373000Y-71639845D01*
X112143110Y-71518524D01*
X111995901Y-71563175D01*
X111733080Y-71688359D01*
X111499731Y-71862412D01*
X111304822Y-72078645D01*
X111155843Y-72328748D01*
X111058519Y-72603109D01*
X87160000Y-72603109D01*
X87160000Y-68279872D01*
X89765000Y-68279872D01*
X89765000Y-68720128D01*
X89850890Y-69151925D01*
X90019369Y-69558669D01*
X90263962Y-69924729D01*
X90575271Y-70236038D01*
X90941331Y-70480631D01*
X91348075Y-70649110D01*
X91779872Y-70735000D01*
X92220128Y-70735000D01*
X92651925Y-70649110D01*
X93058669Y-70480631D01*
X93424729Y-70236038D01*
X93736038Y-69924729D01*
X93980631Y-69558669D01*
X94149110Y-69151925D01*
X94235000Y-68720128D01*
X94235000Y-68279872D01*
X178765000Y-68279872D01*
X178765000Y-68720128D01*
X178850890Y-69151925D01*
X179019369Y-69558669D01*
X179263962Y-69924729D01*
X179575271Y-70236038D01*
X179941331Y-70480631D01*
X180348075Y-70649110D01*
X180779872Y-70735000D01*
X181220128Y-70735000D01*
X181651925Y-70649110D01*
X182058669Y-70480631D01*
X182424729Y-70236038D01*
X182736038Y-69924729D01*
X182980631Y-69558669D01*
X183149110Y-69151925D01*
X183235000Y-68720128D01*
X183235000Y-68279872D01*
X183149110Y-67848075D01*
X182980631Y-67441331D01*
X182736038Y-67075271D01*
X182424729Y-66763962D01*
X182058669Y-66519369D01*
X181651925Y-66350890D01*
X181220128Y-66265000D01*
X180779872Y-66265000D01*
X180348075Y-66350890D01*
X179941331Y-66519369D01*
X179575271Y-66763962D01*
X179263962Y-67075271D01*
X179019369Y-67441331D01*
X178850890Y-67848075D01*
X178765000Y-68279872D01*
X94235000Y-68279872D01*
X94149110Y-67848075D01*
X93980631Y-67441331D01*
X93736038Y-67075271D01*
X93424729Y-66763962D01*
X93058669Y-66519369D01*
X92651925Y-66350890D01*
X92220128Y-66265000D01*
X91779872Y-66265000D01*
X91348075Y-66350890D01*
X90941331Y-66519369D01*
X90575271Y-66763962D01*
X90263962Y-67075271D01*
X90019369Y-67441331D01*
X89850890Y-67848075D01*
X89765000Y-68279872D01*
X87160000Y-68279872D01*
X87160000Y-64660000D01*
X185840000Y-64660000D01*
X185840000Y-88113199D01*
X185840000Y-88113199D01*
G37*
X185840000Y-88113199D02*
X185215396Y-87488595D01*
X185280706Y-87409014D01*
X185418599Y-87151034D01*
X185503513Y-86871111D01*
X185532185Y-86580000D01*
X185503513Y-86288889D01*
X185418599Y-86008966D01*
X185280706Y-85750986D01*
X185095134Y-85524866D01*
X184869014Y-85339294D01*
X184814209Y-85310000D01*
X184869014Y-85280706D01*
X185095134Y-85095134D01*
X185280706Y-84869014D01*
X185418599Y-84611034D01*
X185503513Y-84331111D01*
X185532185Y-84040000D01*
X185503513Y-83748889D01*
X185418599Y-83468966D01*
X185280706Y-83210986D01*
X185095134Y-82984866D01*
X184869014Y-82799294D01*
X184814209Y-82770000D01*
X184869014Y-82740706D01*
X185095134Y-82555134D01*
X185280706Y-82329014D01*
X185418599Y-82071034D01*
X185503513Y-81791111D01*
X185532185Y-81500000D01*
X185503513Y-81208889D01*
X185418599Y-80928966D01*
X185280706Y-80670986D01*
X185095134Y-80444866D01*
X184869014Y-80259294D01*
X184611034Y-80121401D01*
X184331111Y-80036487D01*
X184112950Y-80015000D01*
X183967050Y-80015000D01*
X183748889Y-80036487D01*
X183468966Y-80121401D01*
X183426123Y-80144301D01*
X183404701Y-80118199D01*
X183375698Y-80094397D01*
X183094904Y-79813603D01*
X183071101Y-79784599D01*
X182955376Y-79689626D01*
X182823347Y-79619054D01*
X182680086Y-79575597D01*
X182568433Y-79564600D01*
X182568422Y-79564600D01*
X182531100Y-79560924D01*
X182493778Y-79564600D01*
X180547422Y-79564600D01*
X180510099Y-79560924D01*
X180472776Y-79564600D01*
X180472767Y-79564600D01*
X180361114Y-79575597D01*
X180217853Y-79619054D01*
X180085823Y-79689626D01*
X180002183Y-79758268D01*
X179970099Y-79784599D01*
X179946301Y-79813597D01*
X175182498Y-84577401D01*
X175153500Y-84601199D01*
X175129702Y-84630197D01*
X175129701Y-84630198D01*
X175058526Y-84716924D01*
X174987954Y-84848954D01*
X174978537Y-84880000D01*
X174944498Y-84992214D01*
X174937497Y-85063292D01*
X174929824Y-85141200D01*
X174933501Y-85178532D01*
X174933500Y-99249798D01*
X172522636Y-101660663D01*
X172478932Y-101578899D01*
X172299608Y-101360392D01*
X172081101Y-101181068D01*
X172040000Y-101159099D01*
X172040000Y-90122622D01*
X172043676Y-90085299D01*
X172040000Y-90047976D01*
X172040000Y-90047967D01*
X172029003Y-89936314D01*
X171985546Y-89793053D01*
X171914974Y-89661024D01*
X171820001Y-89545299D01*
X171791003Y-89521501D01*
X170639936Y-88370434D01*
X170695134Y-88325134D01*
X170880706Y-88099014D01*
X171018599Y-87841034D01*
X171103513Y-87561111D01*
X171132185Y-87270000D01*
X171103513Y-86978889D01*
X171018599Y-86698966D01*
X170880706Y-86440986D01*
X170695134Y-86214866D01*
X170469014Y-86029294D01*
X170414209Y-86000000D01*
X170469014Y-85970706D01*
X170695134Y-85785134D01*
X170880706Y-85559014D01*
X171018599Y-85301034D01*
X171103513Y-85021111D01*
X171132185Y-84730000D01*
X171103513Y-84438889D01*
X171018599Y-84158966D01*
X170880706Y-83900986D01*
X170695134Y-83674866D01*
X170469014Y-83489294D01*
X170211034Y-83351401D01*
X169931111Y-83266487D01*
X169712950Y-83245000D01*
X169567050Y-83245000D01*
X169348889Y-83266487D01*
X169068966Y-83351401D01*
X168810986Y-83489294D01*
X168584866Y-83674866D01*
X168399294Y-83900986D01*
X168370000Y-83955791D01*
X168340706Y-83900986D01*
X168155134Y-83674866D01*
X167929014Y-83489294D01*
X167671034Y-83351401D01*
X167391111Y-83266487D01*
X167172950Y-83245000D01*
X167027050Y-83245000D01*
X166808889Y-83266487D01*
X166528966Y-83351401D01*
X166270986Y-83489294D01*
X166044866Y-83674866D01*
X165859294Y-83900986D01*
X165830000Y-83955791D01*
X165800706Y-83900986D01*
X165615134Y-83674866D01*
X165389014Y-83489294D01*
X165131034Y-83351401D01*
X164851111Y-83266487D01*
X164632950Y-83245000D01*
X164487050Y-83245000D01*
X164268889Y-83266487D01*
X163988966Y-83351401D01*
X163730986Y-83489294D01*
X163504866Y-83674866D01*
X163319294Y-83900986D01*
X163290000Y-83955791D01*
X163260706Y-83900986D01*
X163075134Y-83674866D01*
X162849014Y-83489294D01*
X162591034Y-83351401D01*
X162311111Y-83266487D01*
X162092950Y-83245000D01*
X161947050Y-83245000D01*
X161728889Y-83266487D01*
X161448966Y-83351401D01*
X161190986Y-83489294D01*
X160964866Y-83674866D01*
X160779294Y-83900986D01*
X160641401Y-84158966D01*
X160556487Y-84438889D01*
X160527815Y-84730000D01*
X160556487Y-85021111D01*
X160641401Y-85301034D01*
X160674577Y-85363101D01*
X160671899Y-85365299D01*
X160648096Y-85394303D01*
X160519655Y-85522744D01*
X160484001Y-85479299D01*
X160455004Y-85455502D01*
X151599935Y-76600434D01*
X151655134Y-76555134D01*
X151840706Y-76329014D01*
X151870000Y-76274209D01*
X151899294Y-76329014D01*
X152084866Y-76555134D01*
X152310986Y-76740706D01*
X152568966Y-76878599D01*
X152848889Y-76963513D01*
X153067050Y-76985000D01*
X153212950Y-76985000D01*
X153431111Y-76963513D01*
X153711034Y-76878599D01*
X153969014Y-76740706D01*
X154195134Y-76555134D01*
X154380706Y-76329014D01*
X154410000Y-76274209D01*
X154439294Y-76329014D01*
X154624866Y-76555134D01*
X154850986Y-76740706D01*
X155108966Y-76878599D01*
X155388889Y-76963513D01*
X155607050Y-76985000D01*
X155752950Y-76985000D01*
X155971111Y-76963513D01*
X156251034Y-76878599D01*
X156509014Y-76740706D01*
X156735134Y-76555134D01*
X156920706Y-76329014D01*
X156950000Y-76274209D01*
X156979294Y-76329014D01*
X157164866Y-76555134D01*
X157390986Y-76740706D01*
X157648966Y-76878599D01*
X157928889Y-76963513D01*
X158147050Y-76985000D01*
X158292950Y-76985000D01*
X158511111Y-76963513D01*
X158791034Y-76878599D01*
X159049014Y-76740706D01*
X159275134Y-76555134D01*
X159460706Y-76329014D01*
X159490000Y-76274209D01*
X159519294Y-76329014D01*
X159704866Y-76555134D01*
X159930986Y-76740706D01*
X160188966Y-76878599D01*
X160468889Y-76963513D01*
X160687050Y-76985000D01*
X160832950Y-76985000D01*
X161051111Y-76963513D01*
X161331034Y-76878599D01*
X161589014Y-76740706D01*
X161815134Y-76555134D01*
X162000706Y-76329014D01*
X162138599Y-76071034D01*
X162223513Y-75791111D01*
X162252185Y-75500000D01*
X162223513Y-75208889D01*
X162138599Y-74928966D01*
X162000706Y-74670986D01*
X161815134Y-74444866D01*
X161589014Y-74259294D01*
X161534209Y-74230000D01*
X161589014Y-74200706D01*
X161815134Y-74015134D01*
X162000706Y-73789014D01*
X162138599Y-73531034D01*
X162223513Y-73251111D01*
X162252185Y-72960000D01*
X162223513Y-72668889D01*
X162138599Y-72388966D01*
X162000706Y-72130986D01*
X161815134Y-71904866D01*
X161589014Y-71719294D01*
X161331034Y-71581401D01*
X161051111Y-71496487D01*
X160832950Y-71475000D01*
X160687050Y-71475000D01*
X160468889Y-71496487D01*
X160188966Y-71581401D01*
X159930986Y-71719294D01*
X159704866Y-71904866D01*
X159519294Y-72130986D01*
X159490000Y-72185791D01*
X159460706Y-72130986D01*
X159275134Y-71904866D01*
X159049014Y-71719294D01*
X158791034Y-71581401D01*
X158511111Y-71496487D01*
X158292950Y-71475000D01*
X158147050Y-71475000D01*
X157928889Y-71496487D01*
X157648966Y-71581401D01*
X157390986Y-71719294D01*
X157164866Y-71904866D01*
X156979294Y-72130986D01*
X156950000Y-72185791D01*
X156920706Y-72130986D01*
X156735134Y-71904866D01*
X156509014Y-71719294D01*
X156251034Y-71581401D01*
X155971111Y-71496487D01*
X155752950Y-71475000D01*
X155607050Y-71475000D01*
X155388889Y-71496487D01*
X155108966Y-71581401D01*
X154850986Y-71719294D01*
X154624866Y-71904866D01*
X154439294Y-72130986D01*
X154410000Y-72185791D01*
X154380706Y-72130986D01*
X154195134Y-71904866D01*
X153969014Y-71719294D01*
X153711034Y-71581401D01*
X153431111Y-71496487D01*
X153212950Y-71475000D01*
X153067050Y-71475000D01*
X152848889Y-71496487D01*
X152568966Y-71581401D01*
X152310986Y-71719294D01*
X152084866Y-71904866D01*
X151899294Y-72130986D01*
X151870000Y-72185791D01*
X151840706Y-72130986D01*
X151655134Y-71904866D01*
X151429014Y-71719294D01*
X151171034Y-71581401D01*
X150891111Y-71496487D01*
X150672950Y-71475000D01*
X150527050Y-71475000D01*
X150308889Y-71496487D01*
X150028966Y-71581401D01*
X149770986Y-71719294D01*
X149544866Y-71904866D01*
X149359294Y-72130986D01*
X149330000Y-72185791D01*
X149300706Y-72130986D01*
X149115134Y-71904866D01*
X148889014Y-71719294D01*
X148631034Y-71581401D01*
X148351111Y-71496487D01*
X148132950Y-71475000D01*
X147987050Y-71475000D01*
X147768889Y-71496487D01*
X147488966Y-71581401D01*
X147230986Y-71719294D01*
X147004866Y-71904866D01*
X146819294Y-72130986D01*
X146790000Y-72185791D01*
X146760706Y-72130986D01*
X146575134Y-71904866D01*
X146349014Y-71719294D01*
X146091034Y-71581401D01*
X145811111Y-71496487D01*
X145592950Y-71475000D01*
X145447050Y-71475000D01*
X145228889Y-71496487D01*
X144948966Y-71581401D01*
X144690986Y-71719294D01*
X144464866Y-71904866D01*
X144279294Y-72130986D01*
X144250000Y-72185791D01*
X144220706Y-72130986D01*
X144035134Y-71904866D01*
X143809014Y-71719294D01*
X143551034Y-71581401D01*
X143271111Y-71496487D01*
X143052950Y-71475000D01*
X142907050Y-71475000D01*
X142688889Y-71496487D01*
X142408966Y-71581401D01*
X142150986Y-71719294D01*
X141924866Y-71904866D01*
X141739294Y-72130986D01*
X141710000Y-72185791D01*
X141680706Y-72130986D01*
X141495134Y-71904866D01*
X141269014Y-71719294D01*
X141011034Y-71581401D01*
X140731111Y-71496487D01*
X140512950Y-71475000D01*
X140367050Y-71475000D01*
X140148889Y-71496487D01*
X139868966Y-71581401D01*
X139610986Y-71719294D01*
X139384866Y-71904866D01*
X139199294Y-72130986D01*
X139170000Y-72185791D01*
X139140706Y-72130986D01*
X138955134Y-71904866D01*
X138729014Y-71719294D01*
X138471034Y-71581401D01*
X138191111Y-71496487D01*
X137972950Y-71475000D01*
X137827050Y-71475000D01*
X137608889Y-71496487D01*
X137328966Y-71581401D01*
X137070986Y-71719294D01*
X136960428Y-71810027D01*
X136416503Y-71266102D01*
X136392701Y-71237099D01*
X136276976Y-71142126D01*
X136144947Y-71071554D01*
X136001686Y-71028097D01*
X135890033Y-71017100D01*
X135890022Y-71017100D01*
X135852700Y-71013424D01*
X135815378Y-71017100D01*
X132308233Y-71017100D01*
X132270900Y-71013423D01*
X132233567Y-71017100D01*
X132121914Y-71028097D01*
X131978653Y-71071554D01*
X131846624Y-71142126D01*
X131730899Y-71237099D01*
X131707101Y-71266098D01*
X131188595Y-71784604D01*
X131109014Y-71719294D01*
X130851034Y-71581401D01*
X130571111Y-71496487D01*
X130352950Y-71475000D01*
X130207050Y-71475000D01*
X129988889Y-71496487D01*
X129708966Y-71581401D01*
X129450986Y-71719294D01*
X129224866Y-71904866D01*
X129039294Y-72130986D01*
X129010000Y-72185791D01*
X128980706Y-72130986D01*
X128795134Y-71904866D01*
X128569014Y-71719294D01*
X128311034Y-71581401D01*
X128031111Y-71496487D01*
X127812950Y-71475000D01*
X127667050Y-71475000D01*
X127448889Y-71496487D01*
X127168966Y-71581401D01*
X126910986Y-71719294D01*
X126831406Y-71784604D01*
X126303303Y-71256502D01*
X126279501Y-71227499D01*
X126163776Y-71132526D01*
X126031747Y-71061954D01*
X125888486Y-71018497D01*
X125776833Y-71007500D01*
X125776822Y-71007500D01*
X125739500Y-71003824D01*
X125702178Y-71007500D01*
X122125723Y-71007500D01*
X122088400Y-71003824D01*
X122051077Y-71007500D01*
X122051067Y-71007500D01*
X121939414Y-71018497D01*
X121796153Y-71061954D01*
X121664123Y-71132526D01*
X121580483Y-71201168D01*
X121548399Y-71227499D01*
X121524600Y-71256498D01*
X121010964Y-71770135D01*
X120949014Y-71719294D01*
X120691034Y-71581401D01*
X120411111Y-71496487D01*
X120192950Y-71475000D01*
X120047050Y-71475000D01*
X119828889Y-71496487D01*
X119548966Y-71581401D01*
X119290986Y-71719294D01*
X119064866Y-71904866D01*
X118879294Y-72130986D01*
X118850000Y-72185791D01*
X118820706Y-72130986D01*
X118635134Y-71904866D01*
X118409014Y-71719294D01*
X118151034Y-71581401D01*
X117871111Y-71496487D01*
X117652950Y-71475000D01*
X117507050Y-71475000D01*
X117288889Y-71496487D01*
X117008966Y-71581401D01*
X116750986Y-71719294D01*
X116524866Y-71904866D01*
X116339294Y-72130986D01*
X116304799Y-72195523D01*
X116235178Y-72078645D01*
X116040269Y-71862412D01*
X115806920Y-71688359D01*
X115544099Y-71563175D01*
X115396890Y-71518524D01*
X115167000Y-71639845D01*
X115167000Y-72833000D01*
X115187000Y-72833000D01*
X115187000Y-73087000D01*
X115167000Y-73087000D01*
X115167000Y-73107000D01*
X114913000Y-73107000D01*
X114913000Y-73087000D01*
X112627000Y-73087000D01*
X112627000Y-73107000D01*
X112373000Y-73107000D01*
X112373000Y-73087000D01*
X111179186Y-73087000D01*
X111058519Y-73316891D01*
X111155843Y-73591252D01*
X111304822Y-73841355D01*
X111481626Y-74037502D01*
X111405820Y-74060498D01*
X111295506Y-74119463D01*
X111198815Y-74198815D01*
X111119463Y-74295506D01*
X111060498Y-74405820D01*
X111024188Y-74525518D01*
X111019482Y-74573302D01*
X110966408Y-74578529D01*
X110790160Y-74631993D01*
X110627728Y-74718814D01*
X110485356Y-74835656D01*
X110456070Y-74871341D01*
X108262411Y-77065000D01*
X107387289Y-77065000D01*
X105435000Y-75112711D01*
X105435000Y-74858665D01*
X105379853Y-74581426D01*
X105271680Y-74320273D01*
X105114637Y-74085241D01*
X104914759Y-73885363D01*
X104679727Y-73728320D01*
X104418574Y-73620147D01*
X104141335Y-73565000D01*
X103858665Y-73565000D01*
X103581426Y-73620147D01*
X103320273Y-73728320D01*
X103085241Y-73885363D01*
X102918661Y-74051943D01*
X102889502Y-73955820D01*
X102830537Y-73845506D01*
X102751185Y-73748815D01*
X102654494Y-73669463D01*
X102544180Y-73610498D01*
X102424482Y-73574188D01*
X102300000Y-73561928D01*
X101785750Y-73565000D01*
X101627000Y-73723750D01*
X101627000Y-74873000D01*
X101647000Y-74873000D01*
X101647000Y-75127000D01*
X101627000Y-75127000D01*
X101627000Y-76276250D01*
X101785750Y-76435000D01*
X102300000Y-76438072D01*
X102424482Y-76425812D01*
X102544180Y-76389502D01*
X102654494Y-76330537D01*
X102751185Y-76251185D01*
X102830537Y-76154494D01*
X102889502Y-76044180D01*
X102918661Y-75948057D01*
X103085241Y-76114637D01*
X103320273Y-76271680D01*
X103581426Y-76379853D01*
X103858665Y-76435000D01*
X104112711Y-76435000D01*
X106050711Y-78373000D01*
X87160000Y-78373000D01*
X87160000Y-75800000D01*
X100061928Y-75800000D01*
X100074188Y-75924482D01*
X100110498Y-76044180D01*
X100169463Y-76154494D01*
X100248815Y-76251185D01*
X100345506Y-76330537D01*
X100455820Y-76389502D01*
X100575518Y-76425812D01*
X100700000Y-76438072D01*
X101214250Y-76435000D01*
X101373000Y-76276250D01*
X101373000Y-75127000D01*
X100223750Y-75127000D01*
X100065000Y-75285750D01*
X100061928Y-75800000D01*
X87160000Y-75800000D01*
X87160000Y-74200000D01*
X100061928Y-74200000D01*
X100065000Y-74714250D01*
X100223750Y-74873000D01*
X101373000Y-74873000D01*
X101373000Y-73723750D01*
X101214250Y-73565000D01*
X100700000Y-73561928D01*
X100575518Y-73574188D01*
X100455820Y-73610498D01*
X100345506Y-73669463D01*
X100248815Y-73748815D01*
X100169463Y-73845506D01*
X100110498Y-73955820D01*
X100074188Y-74075518D01*
X100061928Y-74200000D01*
X87160000Y-74200000D01*
X87160000Y-72603109D01*
X111058519Y-72603109D01*
X111179186Y-72833000D01*
X112373000Y-72833000D01*
X112373000Y-71639845D01*
X112627000Y-71639845D01*
X112627000Y-72833000D01*
X114913000Y-72833000D01*
X114913000Y-71639845D01*
X114683110Y-71518524D01*
X114535901Y-71563175D01*
X114273080Y-71688359D01*
X114039731Y-71862412D01*
X113844822Y-72078645D01*
X113770000Y-72204255D01*
X113695178Y-72078645D01*
X113500269Y-71862412D01*
X113266920Y-71688359D01*
X113004099Y-71563175D01*
X112856890Y-71518524D01*
X112627000Y-71639845D01*
X112373000Y-71639845D01*
X112143110Y-71518524D01*
X111995901Y-71563175D01*
X111733080Y-71688359D01*
X111499731Y-71862412D01*
X111304822Y-72078645D01*
X111155843Y-72328748D01*
X111058519Y-72603109D01*
X87160000Y-72603109D01*
X87160000Y-68279872D01*
X89765000Y-68279872D01*
X89765000Y-68720128D01*
X89850890Y-69151925D01*
X90019369Y-69558669D01*
X90263962Y-69924729D01*
X90575271Y-70236038D01*
X90941331Y-70480631D01*
X91348075Y-70649110D01*
X91779872Y-70735000D01*
X92220128Y-70735000D01*
X92651925Y-70649110D01*
X93058669Y-70480631D01*
X93424729Y-70236038D01*
X93736038Y-69924729D01*
X93980631Y-69558669D01*
X94149110Y-69151925D01*
X94235000Y-68720128D01*
X94235000Y-68279872D01*
X178765000Y-68279872D01*
X178765000Y-68720128D01*
X178850890Y-69151925D01*
X179019369Y-69558669D01*
X179263962Y-69924729D01*
X179575271Y-70236038D01*
X179941331Y-70480631D01*
X180348075Y-70649110D01*
X180779872Y-70735000D01*
X181220128Y-70735000D01*
X181651925Y-70649110D01*
X182058669Y-70480631D01*
X182424729Y-70236038D01*
X182736038Y-69924729D01*
X182980631Y-69558669D01*
X183149110Y-69151925D01*
X183235000Y-68720128D01*
X183235000Y-68279872D01*
X183149110Y-67848075D01*
X182980631Y-67441331D01*
X182736038Y-67075271D01*
X182424729Y-66763962D01*
X182058669Y-66519369D01*
X181651925Y-66350890D01*
X181220128Y-66265000D01*
X180779872Y-66265000D01*
X180348075Y-66350890D01*
X179941331Y-66519369D01*
X179575271Y-66763962D01*
X179263962Y-67075271D01*
X179019369Y-67441331D01*
X178850890Y-67848075D01*
X178765000Y-68279872D01*
X94235000Y-68279872D01*
X94149110Y-67848075D01*
X93980631Y-67441331D01*
X93736038Y-67075271D01*
X93424729Y-66763962D01*
X93058669Y-66519369D01*
X92651925Y-66350890D01*
X92220128Y-66265000D01*
X91779872Y-66265000D01*
X91348075Y-66350890D01*
X90941331Y-66519369D01*
X90575271Y-66763962D01*
X90263962Y-67075271D01*
X90019369Y-67441331D01*
X89850890Y-67848075D01*
X89765000Y-68279872D01*
X87160000Y-68279872D01*
X87160000Y-64660000D01*
X185840000Y-64660000D01*
X185840000Y-88113199D01*
G36*
X127135367Y-77136546D02*
G01*
X127200000Y-77215301D01*
X127228998Y-77239099D01*
X131177800Y-81187902D01*
X131177800Y-85682593D01*
X131123097Y-85737296D01*
X131051514Y-85493329D01*
X130796004Y-85372429D01*
X130521816Y-85303700D01*
X130239488Y-85289783D01*
X129959870Y-85331213D01*
X129693708Y-85426397D01*
X129568486Y-85493329D01*
X129496903Y-85737298D01*
X130310000Y-86550395D01*
X130324143Y-86536253D01*
X130503748Y-86715858D01*
X130489605Y-86730000D01*
X130503748Y-86744143D01*
X130324143Y-86923748D01*
X130310000Y-86909605D01*
X129496903Y-87722702D01*
X129568486Y-87966671D01*
X129823996Y-88087571D01*
X130098184Y-88156300D01*
X130380512Y-88170217D01*
X130660130Y-88128787D01*
X130926292Y-88033603D01*
X131051514Y-87966671D01*
X131123097Y-87722704D01*
X131177800Y-87777407D01*
X131177800Y-91269115D01*
X131062886Y-91154201D01*
X130836043Y-91002629D01*
X130583989Y-90898225D01*
X130316411Y-90845000D01*
X130043589Y-90845000D01*
X129898635Y-90873833D01*
X128570000Y-89545199D01*
X128570000Y-87948043D01*
X128724759Y-87844637D01*
X128924637Y-87644759D01*
X129058692Y-87444131D01*
X129073329Y-87471514D01*
X129317298Y-87543097D01*
X130130395Y-86730000D01*
X129317298Y-85916903D01*
X129073329Y-85988486D01*
X129059676Y-86017341D01*
X128924637Y-85815241D01*
X128724759Y-85615363D01*
X128489727Y-85458320D01*
X128228574Y-85350147D01*
X127951335Y-85295000D01*
X127668665Y-85295000D01*
X127391426Y-85350147D01*
X127135300Y-85456238D01*
X127135300Y-77136465D01*
X127135367Y-77136546D01*
X127135367Y-77136546D01*
G37*
X127135367Y-77136546D02*
X127200000Y-77215301D01*
X127228998Y-77239099D01*
X131177800Y-81187902D01*
X131177800Y-85682593D01*
X131123097Y-85737296D01*
X131051514Y-85493329D01*
X130796004Y-85372429D01*
X130521816Y-85303700D01*
X130239488Y-85289783D01*
X129959870Y-85331213D01*
X129693708Y-85426397D01*
X129568486Y-85493329D01*
X129496903Y-85737298D01*
X130310000Y-86550395D01*
X130324143Y-86536253D01*
X130503748Y-86715858D01*
X130489605Y-86730000D01*
X130503748Y-86744143D01*
X130324143Y-86923748D01*
X130310000Y-86909605D01*
X129496903Y-87722702D01*
X129568486Y-87966671D01*
X129823996Y-88087571D01*
X130098184Y-88156300D01*
X130380512Y-88170217D01*
X130660130Y-88128787D01*
X130926292Y-88033603D01*
X131051514Y-87966671D01*
X131123097Y-87722704D01*
X131177800Y-87777407D01*
X131177800Y-91269115D01*
X131062886Y-91154201D01*
X130836043Y-91002629D01*
X130583989Y-90898225D01*
X130316411Y-90845000D01*
X130043589Y-90845000D01*
X129898635Y-90873833D01*
X128570000Y-89545199D01*
X128570000Y-87948043D01*
X128724759Y-87844637D01*
X128924637Y-87644759D01*
X129058692Y-87444131D01*
X129073329Y-87471514D01*
X129317298Y-87543097D01*
X130130395Y-86730000D01*
X129317298Y-85916903D01*
X129073329Y-85988486D01*
X129059676Y-86017341D01*
X128924637Y-85815241D01*
X128724759Y-85615363D01*
X128489727Y-85458320D01*
X128228574Y-85350147D01*
X127951335Y-85295000D01*
X127668665Y-85295000D01*
X127391426Y-85350147D01*
X127135300Y-85456238D01*
X127135300Y-77136465D01*
X127135367Y-77136546D01*
G36*
X134503748Y-86715858D02*
G01*
X134489605Y-86730000D01*
X134503748Y-86744143D01*
X134324143Y-86923748D01*
X134310000Y-86909605D01*
X134295858Y-86923748D01*
X134116253Y-86744143D01*
X134130395Y-86730000D01*
X134116253Y-86715858D01*
X134295858Y-86536253D01*
X134310000Y-86550395D01*
X134324143Y-86536253D01*
X134503748Y-86715858D01*
X134503748Y-86715858D01*
G37*
X134503748Y-86715858D02*
X134489605Y-86730000D01*
X134503748Y-86744143D01*
X134324143Y-86923748D01*
X134310000Y-86909605D01*
X134295858Y-86923748D01*
X134116253Y-86744143D01*
X134130395Y-86730000D01*
X134116253Y-86715858D01*
X134295858Y-86536253D01*
X134310000Y-86550395D01*
X134324143Y-86536253D01*
X134503748Y-86715858D01*
M02*
